/* XPM */
static char *_5c2bafa546c45f5843252f4e9de8bccNUnhHYBuVJ9ieXwf[] = {
/* columns rows colors chars-per-pixel */
"100 100 48 1 ",
"  c #3FA8EC",
". c #3FAAEE",
"X c #3FACEF",
"o c #42A7EB",
"O c #43A8EC",
"+ c #44AAEC",
"@ c #45ABED",
"# c #42AEEF",
"$ c #45ACEF",
"% c #49ACEF",
"& c #4BAEEF",
"* c #4DB1EF",
"= c #50B3EE",
"- c #51B4EF",
"; c #41ACF0",
": c #46AFF1",
"> c #49AFF1",
", c #4CAFF2",
"< c #44B0F1",
"1 c #46B2F3",
"2 c #47B3F4",
"3 c #4FB3F1",
"4 c #4CB2F2",
"5 c #4BB5F3",
"6 c #4FB5F3",
"7 c #4AB1F4",
"8 c #4DB3F5",
"9 c #48B4F4",
"0 c #4BB4F5",
"q c #4FB5F5",
"w c #4FB9F3",
"e c #4FB9F7",
"r c #52B5F0",
"t c #50B4F2",
"y c #53B7F3",
"u c #54B7F2",
"i c #52B9F3",
"p c #55B8F3",
"a c #52B9F4",
"s c #56B9F4",
"d c #52BCF6",
"f c #56BDF7",
"g c #58BCF7",
"h c #54BAF8",
"j c #52BCF8",
"k c #54BCF9",
"l c #59BDF8",
"z c #59C0FA",
/* pixels */
"uuuuuuuuuuuuuuuuppppppppssssssssssssssssssssssssssssssfsssllllllffffffffkkkkkkkkzzllllllzzzzzzzzzzzz",
"uuuuuuuuuuuuuuuuppppppppssssssssssssssssssssssssssssssffsssgllllffffffffkkkkkkkkzzlzllllzzzzzzzzzzzz",
"uuuuuuuuuuuuuuuuuuuuuuuuppppppppssssssssssssssssssssssfsssssggllffffffffllkkkkllzzzzzzlzzzzzzzzzzzzz",
"uuuuuuuuuuuuuuuuuuuuuuuuppppppppssssssssssssssssssssssfssssssgggfffffffflkkkkkklllllkkkkzzzzzzzzzzzz",
"uuuuuuuuuuuuuuuurrrrrrrruuuuuuuusssssssssssssssssssssssssssfssggffffffffllkkkkllkkklkkkklzzzzzzzllzz",
"uuuuuuuuuuuuuuuurrrrrrrruuuuuuuuipppppppssssssssssssssssssssssssffffffffllkkkkllkkklkkkkllzzzzzlllll",
"uuuuuuuuuuuuuuuurrrrrrrruuuuuuuuppppppppssssssssssssssssssssssssfffffffflllkklllffffffffkkkklllkkkkk",
"uuuuuuuuuuuuuuuurrrrrrrrrrrrrrrrppppppppssssssssssssssssssssssssffffffffllkkkkllffffffffkkkkkklkkkkk",
"rrrrrrrrrrrrrrrrrrrrrrrrrrrrrrrrrrrrrrrpsssspppppppsssssssfffffsffffffffffffffffkkklkkkkkkllkkkkkkll",
"rrrrrrrrrrrrrrrrrrrrrrrrrrrrrrrrrrrrrrrrssssiippppppssssssssffssffffffffffffffffkkllkkkkllllkkkkklll",
"rrrrrrrrrrrrrrrrrrrrrrrrrrrrrrrrrrrrrrrrppsspipprrppssssssssssssfffffffffffffffflkllkkkkklllkkkkkkll",
"----------------rrrrrrrrrrrrrrrrirrrrrrrippppppprrrpppssssssssssffffffffffffffffffffffffffffffffkkkk",
"----------------rrrrrrrrrrrrrrrriirrrrpiiipppppprrrrppppssssssssffffffffffffffffffffffffffffffffkkkk",
"----------------rrrrrrrrrrrrrrrriirrrriippppiipprrrrrpppssssssssaaadffdassssssssffffffffffffffffkklk",
"================rrrrrrrrrrrrrrrriirrrriippppippprrrrrrrpssssssssssssffaaasssssssffffffffffffffffllll",
"================rrrrrrrrrrrrrrrraarrrraassssaassrrrrrrrrsssssssssssssfaaasssssssfffffffffffffffflzlz",
"rrrr6rrrrrrr66rrrr6666rr666rr366r6666666yyaarrrraiiiiiiiaaaaaaaaaajajaaahshshshskdkdkdkjjdjdjdjdfzfz",
"rrrr666rrrrrr6rrrr6666rr666r33rrqqqqqqqqrqqqrrrraiiiiiiiaaaaaaaajjjjjjaahhhhhhhjkjjjjjjjjjjjjjjdkzzd",
"rrrrr6rrrrrr6666rrr6rrrrrrrrrrrrqqqqqqqqrrqqqqrriiiiiiiiiiiiiiiiaaaaarrrjjjjjjjjkjjjjjjjjjjjjjjdkzff",
"3333333333333333rr66rrrrrrrrrrrrqqqqqqqqrrqqqqrriiiiiriiiiiiiiiaaaaarrraajjjjjjjjjjjjjjjjjjjjjjddddd",
"3333333333333333rrrrrrrrrrrrrrrrqqqqqqqqqqqqqqq6iiiiiiiiiiiiiiiirrrrayyraajjjjajjjjjjjjjjjjjjjjddddd",
"3333333333333333rrr6rrrrr6rrrrrrqqqqqqqqqqqqqqq6riiiiiiiiiiiiiiirrrrayyraaaraaraaaaaaajjjjjjjjjddddd",
"3333333333333333rr6666rr6666rrrrqqqqqqqqqqqqqqq6riiiiiiiiiiiiiiirryyaarrarrraaaajaaaaaaajjjjjjjddddd",
"3333333333333333rr666636666666rrqqqqqqqqqqqqqqqqriiiiiii66rrrrrrqqqqqqrrarrraaaajaaaaaaajjjjjjjddddd",
"****************3333333333333333qqqqqqqqqq8qqq8866636666rryyyryyrrryaarraaaaaaaaaeeeeeeeaaaajjaadddd",
"****************3333333333333333qqqqqqqq6q8qqqqq66636666qrrrqqqqrrqqqqrraaaaaaaaaeeeeeeeaaaajjaadddd",
"****************3333333333333333qqqqqqqqqqqqqqq666666666qrqrqqqqrrrrqqqyaarrrrraaeeeeeeeaaaaeeaaaddd",
"****************333333333333333333333333qqqqqqq666666666qrrrrqqqrrrqqqqqyayrrrraaeeeeeeeaaaaeeaaaddd",
"****************333333333333333333333333q8qqqqqqqqqqqqqqqqqqqqqq6666666qqrrrrrrqaeeeeeeeeeeeeeewaddd",
"********************************33333333q6qqqqqqqq33qqqqqqqqqqqq6666666qqrrrrrrqaeeeeeeeeeeeeeewiiww",
"********************************34343333q3qqqqqqqqqqqqqqqqqqqqqq666666qqqqqq6666aeeeeeeeeeeeeeewiiii",
"******************3*3*3*3*3*3*3334343333qqqqqqqqqqqqqqqqqqqqqqqqq66666qqqqqq6666eeeeeeeeweewweeeiiia",
"33,,,,33,,%%,,,,,,,,,,,,,,33,,,,3344444488888888qqqqqqq070808085q0q0q5qqq06060q0eeqqqqqqeeeeeeeeeeee",
"333,,333,,,%,,,3,,,,,,,,,,338,,,3344444488888888qqqqqqqq00000000000055qqq0005000eeqqqqeqeeeeeeeeeeee",
"%%,,,,3,3,%%%%33,,,,,,,,,,3388,,7334333388888888q0qqqqqq00000000q0qq0qqq0000q0qqeeqqeeeeeeeeeeeeeeee",
"%%,>>,33,,%%%%33,,,,,,,,,,3388,,73443333888888877000000000000000qqq6qqqq0000qqqqeeqqqeeeeeeeeeeeeeee",
"%,,,rr33,,,,%%%3,,,,,,,,,,,3333,33333477878877777000000000000000qqqqqqqqqq0000qqqqqeqqqqeeeeeeeeeeee",
"%%%%%%%%,,%%%%,,,,,,,,,,,,3333,,3373334744444444777700770000000000qqqqqqqq0q00qqqqqeqqqqeeeeeeeeeeee",
"%%%%%%%%%%%%%%%%,,,,,,,,8833333344334444443333447777000700000000000000qqqqqq055qqqeeeqqqeeeeeeeeeeee",
"%%%%%%%%%%%%%%%%,,,,>,,,8833333344444444433333447777000700000000000000qq66qq000qqqeeeqqqeeeeeeeeeeee",
"%%%%%%%%%%%%%%%%,,,,,,,,,,,,,,,,444>>>>>44333337444412440000000055555555q000qq0q500000000qq666qqqqqe",
"%%%%%%%%%%%%%%%%,,,,,,,,,,,,,,,,444>44>>44333344744433240000000055555555q000qqqq50000000qqqqqqqqqqqq",
"%%%%%%%%%%%%%%%%>>>>>>>>,,,,,,,,>>>>443344333344443333440000000055555555qq0000qqqq00006q0qqqqq00qqqq",
"%%%%%%%%%%%%%%%%>>>>>>>>,,,,,,,,>>>>43334333334444333344777777775555555555555555q000056q0qqqq000qqqq",
"%%%%%%%%%%%%%%%%>>>>>>>>,,,,,,,,>344>>334433337443334444777777775555555555555555qq0005qq00qqqq00qqee",
"%%%%%%%%%%%%%%%%>>>>>>>>,,,,,,,,3343>>334433337744334444444433334433333355555555qq0000qq00qqqq00qqee",
"%%%%%%%%%%%%%%%%>>>>>>>>,,,,,,,,3333>>>44447344447333333444433334444333355555555qqq00qqq050qqq50qqee",
"%%%%%%%%%%%%%%%%%%%%%%%%,,,,,,333333>>>>4444444447333333344433333444443375757575qqq000qq0500qq50qqee",
"$$$$$$$$$$$$$$$$$$$$$$%%%$$$$$$%34>>333334>>333377777777777777777373737373737373000000000000qqqq0000",
"$$$$$$$$$$$$$$$$%%$$$$%%$$$$$$$%3>>>33333>>>333377777777777777777777777777777777000000000000qqqq0000",
"$$$$$$$$$$$$$$$$%%$$$$$%$$$$$$$$>>>>>>>>>>>>>>>>3111333311113333777777777777777700000000qq00qqqq0000",
"$$$$$$$$$$$$$$$$%%%$$$%%$$$$$$$$>>>>>>>>>>>>>>>>3111333311111133777777777777777777777777000000000000",
"$$$$$$$$$$$$$$$$$$$$%$$$%%$$$$%$>>>>>>>>>>>>>>>:3113334433331111777777777777777777770007000000000000",
"$$$$$$$$$$$$$$$$$$$$%$$$%%$$$$%%>>>>>>>>>>>>>>>:>1:11111::::1111777777777777777733333344777700770000",
"$$$$$$$$$$$$$$$$$$%%%%$$%%$$$%%%>>>>>>>>>>>>>>>:>1111:::11::1111777777777777777733333333777700070000",
"$$$$$$$$$$$$$$$$$$%%%%$$%%$$$$%%$$$$$$$$$$$$$$$$>111::::11::1111777777777777777743333333777700070000",
"@@@@@@@@@@@@@@@@$$$$$$$$$$$$$$$$>>>>>>>>>>>>>>>>>1::111111::::11333333111111337744333333000000770000",
"@@@@@@@@@@@@@@@@$$$$$$$$$$$$$$$$$$$$$%%%>>>>>>>>>:::111111::::11333333111111337744443333000070770000",
"@@@@@@@@@@@@@@@@$$$$$$$$$$$$$$$$$$$$$$$$>>>>>>>:::::::::111:11111111::111111117744444142777777770000",
"@@@@@@@@@@@@@@@@@@@@@@@@@@@@@@@@$$$$$$$$>>>>>>>:::::::::11::11111111::11:111337744444444777777770000",
"@@@@@@@@@@@@@@@@@@@@@@@@@@@@@@@@$$$$$$$$$$$$$$$$::::::::11111::::::::::::::3117744444444777777770099",
"@@@@@@@@@@@@@@@@@@@@@@@@@@@@@@@@$$$$$$$$%%$$$$$$::::::::113111:>:::::::::::3117744444434707777770009",
"@@@@@@@@@@@@@@@@@@@@@@@@@@@@@@@@@@@@@@@@$$$$$$$$$$$$$$$$1:111:::::::::::11:3117243442333000077770000",
"@@@@@@@@@@@@@@@@@@@@@@@@@@@@@@@@@@@@@@@@$$$$$$$$$$$$$$$$::111:::::::::::1113117233432333000000770000",
"oooOO@@@@@@@@@@@@@@@@@@@@O@@@OO@@@@@@@@@@@@@@@@@::$$$$$$:::::::::::::::::>::::1122222222222222222222",
"oooOO@@@O@@@@@@@@@@@@@@@@O@@@@@@@@@@@@@@@@@@@@@@@:$$$$$$::::::::::::$:::::::111322222222222222222222",
"oooOO@@@O@@@@@@O@O@@@@@@@@@@@@@@@@@@@@@@@@@@@@@@$$$$$$$$::::::::::::::::1:11111111111111111111112222",
"oooOO@@@@@@@@@@O@O@@@@@O@@@@@@@@@@@@@@@@@@@@@@@@$$$$$$$$::::::::::::::::1111111111111111111111112222",
"ooooo@@@@@@@@@@@@@O@@@@O@@O@@@@O@@@@@@@@@@@@@@@@$$#$$$$#$$$$$$$$:::$:$$:1111111111111111111111112222",
"ooooo@@@@@@@@@@@@@@@@@@@@@O@@@@@@@@@@@@@@@@@@@@@$$#$$$$$$$$$$$$$:::::$::1111111111111111111111112222",
"ooooO@@@@@@@@@@@@@@@@@@@@@@@@@@@@@@@@@@@@@@@@@@@$$$$$$$$######OO::::::::::::1:1111111111111111112222",
"ooooO@@@@@@@@@@@@@@@@@@@@@@@@@@@@@@@@@@@@@@@@@@@$$$$$$$$######OO::::::::::::::1111111111111111112222",
"oooooooooooooooo@@@@@@@@ooOOOOOO@@@@@@@@@@@@@@@O@######OO######O$$$$#$$$::::::::;;OO1111111111111111",
"oooooooooooooooo@@@@@@@@ooOoOOOO@@@@@@@@@@@@@@@O@######OOO######$$##$$$$::::::::;;OO111;111111111111",
"oooooooooooooooo@@@@@@@@ooooOOOO@@@@@OO@@@@@@@@O@###############$$#$$$$$::::::::;<;;11;;111111111111",
"oooooooooooooooooOoOOOOOooooOOOOO@@@@O@@@@@@@@@O@###############$$$$$$$$::::::::<<111;;;111111111111",
"ooooooooooooooooooooOOOOOOOOOOOO@@@@@@@@@@@@OOOO@#############O#$$$$$$$$$$$$$$$$<12<;;;1111111111111",
"ooooooooooooooooooooooooOOOOOOOO@@@@@@@@@@@@OOOO@O####OOO#####OO$$$$$$$$$$$$$$$$<111;#;1111111111111",
"ooooooooooooooooooooooooOOOOOOOO@@@@@@@@@@@OOOOO@####OOOOOO####O$$$$$$#$####O#####11####1111;;1;1111",
"ooooooooooooooooo@ooo@o@OOOOOOOO@O@O@O@O@O@OOOOOOO####OOOO####OO$$$$$$#$####O####;;;###;;;######;###",
"ooooooooooooooooOOOOOOOOOOO.O.OO;;;;;;OOOOOOOOOO;X;;.XXX.XXXOOOO;;;;;;;;;;;;;;;;;;;;;;;;::222222;;##",
"ooooooooooooooo@OOOO..OOOO....OO;O;;;;OOOOOOOOOOXX;OOXXXOXXXOOOO;;;;;;;;;;;;;;;;;;;;;;;;;;;;;:;:11##",
"ooooooooooooooo@OOOO....O....OOOOOOO;OOOOOOOOOOOXXOOOOXXOOXX;;XO;;;;;;;;;;;;;;;;;;;;;;;;;;;;;;;;1111",
"ooooooooooooooo@O..O....OO..OOOOOOOOOOOOOOOOOOOOXXOOOOXXOOXX;;XX;;;;;;;;;;;;;;;;;;;;;;;;;;;;;;;;1111",
"ooooooooooooooo@O...OO....OO....OOOOOOOOOOOOOOOOXOOOOO;;OOO;XXXX;;;;;;;;;;;;;;;;;;;;;;;;;;;;;;;;;;;1",
"ooooooooooooooo@O....OOO.OOO......OOOOOOOOOOOOOOXXOOOO;;OO;;XXXX;;;;;;;;;;;;;;;;;;;;;;;;;;;;;;;;;;;1",
"ooooooooooooooooO..OOOO...OOOO......OOOOOOOOOOOO;;OOOOXXXXXX;;OO;;;;;;;;;;;;;;;;OOOOXXXO;;;;;;;;;;;;",
"ooooooooooooooooO...OOOO..OOOO........O.OOOOOOOO;;OOOOOXXXXX;OOO;;;;;;;;;;;;;;;;OOOOXX;O;;;;;;;;;;;;",
"ooooooooooooooooo.........OOO...OOOOOO..OOOOOOOO........OO...XOO;;;;;;;;XXXXXX;;;;;;;;;;;;;;;;;;####",
"ooooooooooooooo.o.........OOOO..OOOOOO..OOOOOOOO........OO....OO;;;;;;;;X;XXXX;O;;;;;;;;;;;;;;;;####",
"ooooooooooooooo.o........OOO.....O......OOOOOOOO........OOOOXXXO;;;;;;;;;;OOOOOO;;;;;;;;;;;;;;;;####",
"ooooooooooooooo.o........OOO............OOOOOOOO................OOOOOOOOOOOOOOOO;;;;;;;;;;;;;;;;####",
"ooooooooooooooooo.......O...OOOO........OOOOOOOO................OOOOOOOOX;OOOOOO;;;;;;;;;;;;;;;;####",
"ooooooooooooooooo.......O...OOOOOO......OOOOOOOO........................XXOOOOOO;;;;;;;;;;;;;;;;####",
"ooooooooooooooooo.......OO....OOOOOO.O..OOOOOOOO........................XXXXOXOO;;;;;;;;;;;;;;;;####",
"ooooooooooooooooo.......OO...OOOOOOOOO..OOOOOOOO........................XXXXXXOO;;;;;;;;;;;;;;;;####",
"..oo...oooooooooo.......................................................................XXXXXXXX;;;;",
"..oo..ooooooooooo.......................................................................XXXXXXXX;;;;",
"oooo...ooooooooo........................................................................XXXXXXXX;;;;",
"oooo...oooooooo......... .......... .... ...............................................XXXXXXXXXXXX"
};
