/* XPM */
static char *result[] = {
/* columns rows colors chars-per-pixel */
"128 128 8 1 ",
"  c #A9A274",
". c #C2BB88",
"X c #CECE96",
"o c #D6D695",
"O c #DDE4A5",
"+ c #ECFBAF",
"@ c #E8F4B2",
"# c #EEF6C9",
/* pixels */
"........@@@@@@@@@@@@@@@@########################################++++++++++++++++################++++++++@@@@@@@@........        ",
"........@@@@@@@@@@@@@@@@########################################++++++++++++++++################++++++++@@@@@@@@........        ",
"........@@@@@@@@@@@@@@@@########################################++++++++++++++++################++++++++@@@@@@@@........        ",
"........@@@@@@@@@@@@@@@@########################################++++++++++++++++################++++++++@@@@@@@@........        ",
"........@@@@@@@@@@@@@@@@########################################++++++++++++++++################++++++++@@@@@@@@........        ",
"........@@@@@@@@@@@@@@@@########################################++++++++++++++++################++++++++@@@@@@@@........        ",
"........@@@@@@@@@@@@@@@@########################################++++++++++++++++################++++++++@@@@@@@@........        ",
"........@@@@@@@@@@@@@@@@########################################++++++++++++++++################++++++++@@@@@@@@........        ",
"OOOOOOOO@@@@@@@@++++++++@@@@@@@@@@@@@@@@@@@@@@@@++++++++++++++++OOOOOOOO@@@@@@@@@@@@@@@@@@@@@@@@@@@@@@@@@@@@@@@@OOOOOOOOXXXXXXXX",
"OOOOOOOO@@@@@@@@++++++++@@@@@@@@@@@@@@@@@@@@@@@@++++++++++++++++OOOOOOOO@@@@@@@@@@@@@@@@@@@@@@@@@@@@@@@@@@@@@@@@OOOOOOOOXXXXXXXX",
"OOOOOOOO@@@@@@@@++++++++@@@@@@@@@@@@@@@@@@@@@@@@++++++++++++++++OOOOOOOO@@@@@@@@@@@@@@@@@@@@@@@@@@@@@@@@@@@@@@@@OOOOOOOOXXXXXXXX",
"OOOOOOOO@@@@@@@@++++++++@@@@@@@@@@@@@@@@@@@@@@@@++++++++++++++++OOOOOOOO@@@@@@@@@@@@@@@@@@@@@@@@@@@@@@@@@@@@@@@@OOOOOOOOXXXXXXXX",
"OOOOOOOO@@@@@@@@++++++++@@@@@@@@@@@@@@@@@@@@@@@@++++++++++++++++OOOOOOOO@@@@@@@@@@@@@@@@@@@@@@@@@@@@@@@@@@@@@@@@OOOOOOOOXXXXXXXX",
"OOOOOOOO@@@@@@@@++++++++@@@@@@@@@@@@@@@@@@@@@@@@++++++++++++++++OOOOOOOO@@@@@@@@@@@@@@@@@@@@@@@@@@@@@@@@@@@@@@@@OOOOOOOOXXXXXXXX",
"OOOOOOOO@@@@@@@@++++++++@@@@@@@@@@@@@@@@@@@@@@@@++++++++++++++++OOOOOOOO@@@@@@@@@@@@@@@@@@@@@@@@@@@@@@@@@@@@@@@@OOOOOOOOXXXXXXXX",
"OOOOOOOO@@@@@@@@++++++++@@@@@@@@@@@@@@@@@@@@@@@@++++++++++++++++OOOOOOOO@@@@@@@@@@@@@@@@@@@@@@@@@@@@@@@@@@@@@@@@OOOOOOOOXXXXXXXX",
"++++++++@@@@@@@@OOOOOOOO@@@@@@@@@@@@@@@@++++++++++++++++@@@@@@@@@@@@@@@@@@@@@@@@@@@@@@@@++++++++@@@@@@@@OOOOOOOO@@@@@@@@XXXXXXXX",
"++++++++@@@@@@@@OOOOOOOO@@@@@@@@@@@@@@@@++++++++++++++++@@@@@@@@@@@@@@@@@@@@@@@@@@@@@@@@++++++++@@@@@@@@OOOOOOOO@@@@@@@@XXXXXXXX",
"++++++++@@@@@@@@OOOOOOOO@@@@@@@@@@@@@@@@++++++++++++++++@@@@@@@@@@@@@@@@@@@@@@@@@@@@@@@@++++++++@@@@@@@@OOOOOOOO@@@@@@@@XXXXXXXX",
"++++++++@@@@@@@@OOOOOOOO@@@@@@@@@@@@@@@@++++++++++++++++@@@@@@@@@@@@@@@@@@@@@@@@@@@@@@@@++++++++@@@@@@@@OOOOOOOO@@@@@@@@XXXXXXXX",
"++++++++@@@@@@@@OOOOOOOO@@@@@@@@@@@@@@@@++++++++++++++++@@@@@@@@@@@@@@@@@@@@@@@@@@@@@@@@++++++++@@@@@@@@OOOOOOOO@@@@@@@@XXXXXXXX",
"++++++++@@@@@@@@OOOOOOOO@@@@@@@@@@@@@@@@++++++++++++++++@@@@@@@@@@@@@@@@@@@@@@@@@@@@@@@@++++++++@@@@@@@@OOOOOOOO@@@@@@@@XXXXXXXX",
"++++++++@@@@@@@@OOOOOOOO@@@@@@@@@@@@@@@@++++++++++++++++@@@@@@@@@@@@@@@@@@@@@@@@@@@@@@@@++++++++@@@@@@@@OOOOOOOO@@@@@@@@XXXXXXXX",
"++++++++@@@@@@@@OOOOOOOO@@@@@@@@@@@@@@@@++++++++++++++++@@@@@@@@@@@@@@@@@@@@@@@@@@@@@@@@++++++++@@@@@@@@OOOOOOOO@@@@@@@@XXXXXXXX",
"@@@@@@@@OOOOOOOOooooooooOOOOOOOOOOOOOOOOOOOOOOOO@@@@@@@@OOOOOOOOOOOOOOOO++++++++++++++++++++++++++++++++@@@@@@@@OOOOOOOOXXXXXXXX",
"@@@@@@@@OOOOOOOOooooooooOOOOOOOOOOOOOOOOOOOOOOOO@@@@@@@@OOOOOOOOOOOOOOOO++++++++++++++++++++++++++++++++@@@@@@@@OOOOOOOOXXXXXXXX",
"@@@@@@@@OOOOOOOOooooooooOOOOOOOOOOOOOOOOOOOOOOOO@@@@@@@@OOOOOOOOOOOOOOOO++++++++++++++++++++++++++++++++@@@@@@@@OOOOOOOOXXXXXXXX",
"@@@@@@@@OOOOOOOOooooooooOOOOOOOOOOOOOOOOOOOOOOOO@@@@@@@@OOOOOOOOOOOOOOOO++++++++++++++++++++++++++++++++@@@@@@@@OOOOOOOOXXXXXXXX",
"@@@@@@@@OOOOOOOOooooooooOOOOOOOOOOOOOOOOOOOOOOOO@@@@@@@@OOOOOOOOOOOOOOOO++++++++++++++++++++++++++++++++@@@@@@@@OOOOOOOOXXXXXXXX",
"@@@@@@@@OOOOOOOOooooooooOOOOOOOOOOOOOOOOOOOOOOOO@@@@@@@@OOOOOOOOOOOOOOOO++++++++++++++++++++++++++++++++@@@@@@@@OOOOOOOOXXXXXXXX",
"@@@@@@@@OOOOOOOOooooooooOOOOOOOOOOOOOOOOOOOOOOOO@@@@@@@@OOOOOOOOOOOOOOOO++++++++++++++++++++++++++++++++@@@@@@@@OOOOOOOOXXXXXXXX",
"@@@@@@@@OOOOOOOOooooooooOOOOOOOOOOOOOOOOOOOOOOOO@@@@@@@@OOOOOOOOOOOOOOOO++++++++++++++++++++++++++++++++@@@@@@@@OOOOOOOOXXXXXXXX",
"OOOOOOOOOOOOOOOO@@@@@@@@++++++++++++++++@@@@@@@@OOOOOOOOOOOOOOOO@@@@@@@@OOOOOOOO@@@@@@@@++++++++@@@@@@@@OOOOOOOOOOOOOOOO........",
"OOOOOOOOOOOOOOOO@@@@@@@@++++++++++++++++@@@@@@@@OOOOOOOOOOOOOOOO@@@@@@@@OOOOOOOO@@@@@@@@++++++++@@@@@@@@OOOOOOOOOOOOOOOO........",
"OOOOOOOOOOOOOOOO@@@@@@@@++++++++++++++++@@@@@@@@OOOOOOOOOOOOOOOO@@@@@@@@OOOOOOOO@@@@@@@@++++++++@@@@@@@@OOOOOOOOOOOOOOOO........",
"OOOOOOOOOOOOOOOO@@@@@@@@++++++++++++++++@@@@@@@@OOOOOOOOOOOOOOOO@@@@@@@@OOOOOOOO@@@@@@@@++++++++@@@@@@@@OOOOOOOOOOOOOOOO........",
"OOOOOOOOOOOOOOOO@@@@@@@@++++++++++++++++@@@@@@@@OOOOOOOOOOOOOOOO@@@@@@@@OOOOOOOO@@@@@@@@++++++++@@@@@@@@OOOOOOOOOOOOOOOO........",
"OOOOOOOOOOOOOOOO@@@@@@@@++++++++++++++++@@@@@@@@OOOOOOOOOOOOOOOO@@@@@@@@OOOOOOOO@@@@@@@@++++++++@@@@@@@@OOOOOOOOOOOOOOOO........",
"OOOOOOOOOOOOOOOO@@@@@@@@++++++++++++++++@@@@@@@@OOOOOOOOOOOOOOOO@@@@@@@@OOOOOOOO@@@@@@@@++++++++@@@@@@@@OOOOOOOOOOOOOOOO........",
"OOOOOOOOOOOOOOOO@@@@@@@@++++++++++++++++@@@@@@@@OOOOOOOOOOOOOOOO@@@@@@@@OOOOOOOO@@@@@@@@++++++++@@@@@@@@OOOOOOOOOOOOOOOO........",
"OOOOOOOOooooooooOOOOOOOO@@@@@@@@@@@@@@@@OOOOOOOOOOOOOOOOooooooooooooooooOOOOOOOOOOOOOOOOOOOOOOOOOOOOOOOOOOOOOOOOOOOOOOOO........",
"OOOOOOOOooooooooOOOOOOOO@@@@@@@@@@@@@@@@OOOOOOOOOOOOOOOOooooooooooooooooOOOOOOOOOOOOOOOOOOOOOOOOOOOOOOOOOOOOOOOOOOOOOOOO........",
"OOOOOOOOooooooooOOOOOOOO@@@@@@@@@@@@@@@@OOOOOOOOOOOOOOOOooooooooooooooooOOOOOOOOOOOOOOOOOOOOOOOOOOOOOOOOOOOOOOOOOOOOOOOO........",
"OOOOOOOOooooooooOOOOOOOO@@@@@@@@@@@@@@@@OOOOOOOOOOOOOOOOooooooooooooooooOOOOOOOOOOOOOOOOOOOOOOOOOOOOOOOOOOOOOOOOOOOOOOOO........",
"OOOOOOOOooooooooOOOOOOOO@@@@@@@@@@@@@@@@OOOOOOOOOOOOOOOOooooooooooooooooOOOOOOOOOOOOOOOOOOOOOOOOOOOOOOOOOOOOOOOOOOOOOOOO........",
"OOOOOOOOooooooooOOOOOOOO@@@@@@@@@@@@@@@@OOOOOOOOOOOOOOOOooooooooooooooooOOOOOOOOOOOOOOOOOOOOOOOOOOOOOOOOOOOOOOOOOOOOOOOO........",
"OOOOOOOOooooooooOOOOOOOO@@@@@@@@@@@@@@@@OOOOOOOOOOOOOOOOooooooooooooooooOOOOOOOOOOOOOOOOOOOOOOOOOOOOOOOOOOOOOOOOOOOOOOOO........",
"OOOOOOOOooooooooOOOOOOOO@@@@@@@@@@@@@@@@OOOOOOOOOOOOOOOOooooooooooooooooOOOOOOOOOOOOOOOOOOOOOOOOOOOOOOOOOOOOOOOOOOOOOOOO........",
"........ooooooooooooooooooooooooooooooooooooooooooooooooooooooooOOOOOOOOOOOOOOOOoooooooooooooooooooooooooooooooo........        ",
"........ooooooooooooooooooooooooooooooooooooooooooooooooooooooooOOOOOOOOOOOOOOOOoooooooooooooooooooooooooooooooo........        ",
"........ooooooooooooooooooooooooooooooooooooooooooooooooooooooooOOOOOOOOOOOOOOOOoooooooooooooooooooooooooooooooo........        ",
"........ooooooooooooooooooooooooooooooooooooooooooooooooooooooooOOOOOOOOOOOOOOOOoooooooooooooooooooooooooooooooo........        ",
"........ooooooooooooooooooooooooooooooooooooooooooooooooooooooooOOOOOOOOOOOOOOOOoooooooooooooooooooooooooooooooo........        ",
"........ooooooooooooooooooooooooooooooooooooooooooooooooooooooooOOOOOOOOOOOOOOOOoooooooooooooooooooooooooooooooo........        ",
"........ooooooooooooooooooooooooooooooooooooooooooooooooooooooooOOOOOOOOOOOOOOOOoooooooooooooooooooooooooooooooo........        ",
"........ooooooooooooooooooooooooooooooooooooooooooooooooooooooooOOOOOOOOOOOOOOOOoooooooooooooooooooooooooooooooo........        ",
"        ........XXXXXXXX........................                                ................XXXXXXXX........                ",
"        ........XXXXXXXX........................                                ................XXXXXXXX........                ",
"        ........XXXXXXXX........................                                ................XXXXXXXX........                ",
"        ........XXXXXXXX........................                                ................XXXXXXXX........                ",
"        ........XXXXXXXX........................                                ................XXXXXXXX........                ",
"        ........XXXXXXXX........................                                ................XXXXXXXX........                ",
"        ........XXXXXXXX........................                                ................XXXXXXXX........                ",
"        ........XXXXXXXX........................                                ................XXXXXXXX........                ",
"########++++++++++++++++########################@@@@@@@@........        ........@@@@@@@@++++++++################################",
"########++++++++++++++++########################@@@@@@@@........        ........@@@@@@@@++++++++################################",
"########++++++++++++++++########################@@@@@@@@........        ........@@@@@@@@++++++++################################",
"########++++++++++++++++########################@@@@@@@@........        ........@@@@@@@@++++++++################################",
"########++++++++++++++++########################@@@@@@@@........        ........@@@@@@@@++++++++################################",
"########++++++++++++++++########################@@@@@@@@........        ........@@@@@@@@++++++++################################",
"########++++++++++++++++########################@@@@@@@@........        ........@@@@@@@@++++++++################################",
"########++++++++++++++++########################@@@@@@@@........        ........@@@@@@@@++++++++################################",
"@@@@@@@@@@@@@@@@@@@@@@@@++++++++@@@@@@@@@@@@@@@@@@@@@@@@OOOOOOOO........OOOOOOOO@@@@@@@@@@@@@@@@@@@@@@@@@@@@@@@@@@@@@@@@@@@@@@@@",
"@@@@@@@@@@@@@@@@@@@@@@@@++++++++@@@@@@@@@@@@@@@@@@@@@@@@OOOOOOOO........OOOOOOOO@@@@@@@@@@@@@@@@@@@@@@@@@@@@@@@@@@@@@@@@@@@@@@@@",
"@@@@@@@@@@@@@@@@@@@@@@@@++++++++@@@@@@@@@@@@@@@@@@@@@@@@OOOOOOOO........OOOOOOOO@@@@@@@@@@@@@@@@@@@@@@@@@@@@@@@@@@@@@@@@@@@@@@@@",
"@@@@@@@@@@@@@@@@@@@@@@@@++++++++@@@@@@@@@@@@@@@@@@@@@@@@OOOOOOOO........OOOOOOOO@@@@@@@@@@@@@@@@@@@@@@@@@@@@@@@@@@@@@@@@@@@@@@@@",
"@@@@@@@@@@@@@@@@@@@@@@@@++++++++@@@@@@@@@@@@@@@@@@@@@@@@OOOOOOOO........OOOOOOOO@@@@@@@@@@@@@@@@@@@@@@@@@@@@@@@@@@@@@@@@@@@@@@@@",
"@@@@@@@@@@@@@@@@@@@@@@@@++++++++@@@@@@@@@@@@@@@@@@@@@@@@OOOOOOOO........OOOOOOOO@@@@@@@@@@@@@@@@@@@@@@@@@@@@@@@@@@@@@@@@@@@@@@@@",
"@@@@@@@@@@@@@@@@@@@@@@@@++++++++@@@@@@@@@@@@@@@@@@@@@@@@OOOOOOOO........OOOOOOOO@@@@@@@@@@@@@@@@@@@@@@@@@@@@@@@@@@@@@@@@@@@@@@@@",
"@@@@@@@@@@@@@@@@@@@@@@@@++++++++@@@@@@@@@@@@@@@@@@@@@@@@OOOOOOOO........OOOOOOOO@@@@@@@@@@@@@@@@@@@@@@@@@@@@@@@@@@@@@@@@@@@@@@@@",
"@@@@@@@@@@@@@@@@@@@@@@@@@@@@@@@@OOOOOOOO++++++++++++++++@@@@@@@@........++++++++@@@@@@@@@@@@@@@@@@@@@@@@++++++++++++++++@@@@@@@@",
"@@@@@@@@@@@@@@@@@@@@@@@@@@@@@@@@OOOOOOOO++++++++++++++++@@@@@@@@........++++++++@@@@@@@@@@@@@@@@@@@@@@@@++++++++++++++++@@@@@@@@",
"@@@@@@@@@@@@@@@@@@@@@@@@@@@@@@@@OOOOOOOO++++++++++++++++@@@@@@@@........++++++++@@@@@@@@@@@@@@@@@@@@@@@@++++++++++++++++@@@@@@@@",
"@@@@@@@@@@@@@@@@@@@@@@@@@@@@@@@@OOOOOOOO++++++++++++++++@@@@@@@@........++++++++@@@@@@@@@@@@@@@@@@@@@@@@++++++++++++++++@@@@@@@@",
"@@@@@@@@@@@@@@@@@@@@@@@@@@@@@@@@OOOOOOOO++++++++++++++++@@@@@@@@........++++++++@@@@@@@@@@@@@@@@@@@@@@@@++++++++++++++++@@@@@@@@",
"@@@@@@@@@@@@@@@@@@@@@@@@@@@@@@@@OOOOOOOO++++++++++++++++@@@@@@@@........++++++++@@@@@@@@@@@@@@@@@@@@@@@@++++++++++++++++@@@@@@@@",
"@@@@@@@@@@@@@@@@@@@@@@@@@@@@@@@@OOOOOOOO++++++++++++++++@@@@@@@@........++++++++@@@@@@@@@@@@@@@@@@@@@@@@++++++++++++++++@@@@@@@@",
"@@@@@@@@@@@@@@@@@@@@@@@@@@@@@@@@OOOOOOOO++++++++++++++++@@@@@@@@........++++++++@@@@@@@@@@@@@@@@@@@@@@@@++++++++++++++++@@@@@@@@",
"@@@@@@@@OOOOOOOO@@@@@@@@++++++++++++++++@@@@@@@@OOOOOOOOOOOOOOOOXXXXXXXX@@@@@@@@OOOOOOOOOOOOOOOO++++++++++++++++@@@@@@@@OOOOOOOO",
"@@@@@@@@OOOOOOOO@@@@@@@@++++++++++++++++@@@@@@@@OOOOOOOOOOOOOOOOXXXXXXXX@@@@@@@@OOOOOOOOOOOOOOOO++++++++++++++++@@@@@@@@OOOOOOOO",
"@@@@@@@@OOOOOOOO@@@@@@@@++++++++++++++++@@@@@@@@OOOOOOOOOOOOOOOOXXXXXXXX@@@@@@@@OOOOOOOOOOOOOOOO++++++++++++++++@@@@@@@@OOOOOOOO",
"@@@@@@@@OOOOOOOO@@@@@@@@++++++++++++++++@@@@@@@@OOOOOOOOOOOOOOOOXXXXXXXX@@@@@@@@OOOOOOOOOOOOOOOO++++++++++++++++@@@@@@@@OOOOOOOO",
"@@@@@@@@OOOOOOOO@@@@@@@@++++++++++++++++@@@@@@@@OOOOOOOOOOOOOOOOXXXXXXXX@@@@@@@@OOOOOOOOOOOOOOOO++++++++++++++++@@@@@@@@OOOOOOOO",
"@@@@@@@@OOOOOOOO@@@@@@@@++++++++++++++++@@@@@@@@OOOOOOOOOOOOOOOOXXXXXXXX@@@@@@@@OOOOOOOOOOOOOOOO++++++++++++++++@@@@@@@@OOOOOOOO",
"@@@@@@@@OOOOOOOO@@@@@@@@++++++++++++++++@@@@@@@@OOOOOOOOOOOOOOOOXXXXXXXX@@@@@@@@OOOOOOOOOOOOOOOO++++++++++++++++@@@@@@@@OOOOOOOO",
"@@@@@@@@OOOOOOOO@@@@@@@@++++++++++++++++@@@@@@@@OOOOOOOOOOOOOOOOXXXXXXXX@@@@@@@@OOOOOOOOOOOOOOOO++++++++++++++++@@@@@@@@OOOOOOOO",
"OOOOOOOO++++++++@@@@@@@@OOOOOOOOooooooooooooooooOOOOOOOOooooooooXXXXXXXXOOOOOOOOOOOOOOOO@@@@@@@@oooooooo@@@@@@@@OOOOOOOOOOOOOOOO",
"OOOOOOOO++++++++@@@@@@@@OOOOOOOOooooooooooooooooOOOOOOOOooooooooXXXXXXXXOOOOOOOOOOOOOOOO@@@@@@@@oooooooo@@@@@@@@OOOOOOOOOOOOOOOO",
"OOOOOOOO++++++++@@@@@@@@OOOOOOOOooooooooooooooooOOOOOOOOooooooooXXXXXXXXOOOOOOOOOOOOOOOO@@@@@@@@oooooooo@@@@@@@@OOOOOOOOOOOOOOOO",
"OOOOOOOO++++++++@@@@@@@@OOOOOOOOooooooooooooooooOOOOOOOOooooooooXXXXXXXXOOOOOOOOOOOOOOOO@@@@@@@@oooooooo@@@@@@@@OOOOOOOOOOOOOOOO",
"OOOOOOOO++++++++@@@@@@@@OOOOOOOOooooooooooooooooOOOOOOOOooooooooXXXXXXXXOOOOOOOOOOOOOOOO@@@@@@@@oooooooo@@@@@@@@OOOOOOOOOOOOOOOO",
"OOOOOOOO++++++++@@@@@@@@OOOOOOOOooooooooooooooooOOOOOOOOooooooooXXXXXXXXOOOOOOOOOOOOOOOO@@@@@@@@oooooooo@@@@@@@@OOOOOOOOOOOOOOOO",
"OOOOOOOO++++++++@@@@@@@@OOOOOOOOooooooooooooooooOOOOOOOOooooooooXXXXXXXXOOOOOOOOOOOOOOOO@@@@@@@@oooooooo@@@@@@@@OOOOOOOOOOOOOOOO",
"OOOOOOOO++++++++@@@@@@@@OOOOOOOOooooooooooooooooOOOOOOOOooooooooXXXXXXXXOOOOOOOOOOOOOOOO@@@@@@@@oooooooo@@@@@@@@OOOOOOOOOOOOOOOO",
"ooooooooOOOOOOOOOOOOOOOOooooooooOOOOOOOO@@@@@@@@@@@@@@@@oooooooo........OOOOOOOOOOOOOOOOooooooooOOOOOOOOOOOOOOOOoooooooooooooooo",
"ooooooooOOOOOOOOOOOOOOOOooooooooOOOOOOOO@@@@@@@@@@@@@@@@oooooooo........OOOOOOOOOOOOOOOOooooooooOOOOOOOOOOOOOOOOoooooooooooooooo",
"ooooooooOOOOOOOOOOOOOOOOooooooooOOOOOOOO@@@@@@@@@@@@@@@@oooooooo........OOOOOOOOOOOOOOOOooooooooOOOOOOOOOOOOOOOOoooooooooooooooo",
"ooooooooOOOOOOOOOOOOOOOOooooooooOOOOOOOO@@@@@@@@@@@@@@@@oooooooo........OOOOOOOOOOOOOOOOooooooooOOOOOOOOOOOOOOOOoooooooooooooooo",
"ooooooooOOOOOOOOOOOOOOOOooooooooOOOOOOOO@@@@@@@@@@@@@@@@oooooooo........OOOOOOOOOOOOOOOOooooooooOOOOOOOOOOOOOOOOoooooooooooooooo",
"ooooooooOOOOOOOOOOOOOOOOooooooooOOOOOOOO@@@@@@@@@@@@@@@@oooooooo........OOOOOOOOOOOOOOOOooooooooOOOOOOOOOOOOOOOOoooooooooooooooo",
"ooooooooOOOOOOOOOOOOOOOOooooooooOOOOOOOO@@@@@@@@@@@@@@@@oooooooo........OOOOOOOOOOOOOOOOooooooooOOOOOOOOOOOOOOOOoooooooooooooooo",
"ooooooooOOOOOOOOOOOOOOOOooooooooOOOOOOOO@@@@@@@@@@@@@@@@oooooooo........OOOOOOOOOOOOOOOOooooooooOOOOOOOOOOOOOOOOoooooooooooooooo",
"OOOOOOOOOOOOOOOOoooooooooooooooooooooooooooooooooooooooo........        ........oooooooooooooooooooooooooooooooooooooooooooooooo",
"OOOOOOOOOOOOOOOOoooooooooooooooooooooooooooooooooooooooo........        ........oooooooooooooooooooooooooooooooooooooooooooooooo",
"OOOOOOOOOOOOOOOOoooooooooooooooooooooooooooooooooooooooo........        ........oooooooooooooooooooooooooooooooooooooooooooooooo",
"OOOOOOOOOOOOOOOOoooooooooooooooooooooooooooooooooooooooo........        ........oooooooooooooooooooooooooooooooooooooooooooooooo",
"OOOOOOOOOOOOOOOOoooooooooooooooooooooooooooooooooooooooo........        ........oooooooooooooooooooooooooooooooooooooooooooooooo",
"OOOOOOOOOOOOOOOOoooooooooooooooooooooooooooooooooooooooo........        ........oooooooooooooooooooooooooooooooooooooooooooooooo",
"OOOOOOOOOOOOOOOOoooooooooooooooooooooooooooooooooooooooo........        ........oooooooooooooooooooooooooooooooooooooooooooooooo",
"OOOOOOOOOOOOOOOOoooooooooooooooooooooooooooooooooooooooo........        ........oooooooooooooooooooooooooooooooooooooooooooooooo",
"        ................XXXXXXXXXXXXXXXX................                                ................                        ",
"        ................XXXXXXXXXXXXXXXX................                                ................                        ",
"        ................XXXXXXXXXXXXXXXX................                                ................                        ",
"        ................XXXXXXXXXXXXXXXX................                                ................                        ",
"        ................XXXXXXXXXXXXXXXX................                                ................                        ",
"        ................XXXXXXXXXXXXXXXX................                                ................                        ",
"        ................XXXXXXXXXXXXXXXX................                                ................                        ",
"        ................XXXXXXXXXXXXXXXX................                                ................                        "
};
