/* XPM */
static char *_ff8567b331f45cc8d1bd9b9ed54b9c5TB9JBNgBovVY9h3i[] = {
/* columns rows colors chars-per-pixel */
"100 100 8 1 ",
"  c #A9A274",
". c #C2BB88",
"X c #CECE96",
"o c #D6D695",
"O c #DDE4A5",
"+ c #ECFBAF",
"@ c #E8F4B2",
"# c #EEF6C9",
/* pixels */
"......@@@@@@@@@@@@@###############################++++++++++++#############++++++@@@@@@.......      ",
"......@@@@@@@@@@@@@###############################++++++++++++#############++++++@@@@@@.......      ",
"......@@@@@@@@@@@@@###############################++++++++++++#############++++++@@@@@@.......      ",
"......@@@@@@@@@@@@@###############################++++++++++++#############++++++@@@@@@.......      ",
"......@@@@@@@@@@@@@###############################++++++++++++#############++++++@@@@@@.......      ",
"......@@@@@@@@@@@@@###############################++++++++++++#############++++++@@@@@@.......      ",
"OOOOOO@@@@@@+++++++@@@@@@@@@@@@@@@@@@+++++++++++++OOOOOO@@@@@@@@@@@@@@@@@@@@@@@@@@@@@@@OOOOOOOXXXXXX",
"OOOOOO@@@@@@+++++++@@@@@@@@@@@@@@@@@@+++++++++++++OOOOOO@@@@@@@@@@@@@@@@@@@@@@@@@@@@@@@OOOOOOOXXXXXX",
"OOOOOO@@@@@@+++++++@@@@@@@@@@@@@@@@@@+++++++++++++OOOOOO@@@@@@@@@@@@@@@@@@@@@@@@@@@@@@@OOOOOOOXXXXXX",
"OOOOOO@@@@@@+++++++@@@@@@@@@@@@@@@@@@+++++++++++++OOOOOO@@@@@@@@@@@@@@@@@@@@@@@@@@@@@@@OOOOOOOXXXXXX",
"OOOOOO@@@@@@+++++++@@@@@@@@@@@@@@@@@@+++++++++++++OOOOOO@@@@@@@@@@@@@@@@@@@@@@@@@@@@@@@OOOOOOOXXXXXX",
"OOOOOO@@@@@@+++++++@@@@@@@@@@@@@@@@@@+++++++++++++OOOOOO@@@@@@@@@@@@@@@@@@@@@@@@@@@@@@@OOOOOOOXXXXXX",
"++++++@@@@@@OOOOOOO@@@@@@@@@@@@+++++++++++++@@@@@@@@@@@@@@@@@@@@@@@@@++++++@@@@@@OOOOOO@@@@@@@XXXXXX",
"++++++@@@@@@OOOOOOO@@@@@@@@@@@@+++++++++++++@@@@@@@@@@@@@@@@@@@@@@@@@++++++@@@@@@OOOOOO@@@@@@@XXXXXX",
"++++++@@@@@@OOOOOOO@@@@@@@@@@@@+++++++++++++@@@@@@@@@@@@@@@@@@@@@@@@@++++++@@@@@@OOOOOO@@@@@@@XXXXXX",
"++++++@@@@@@OOOOOOO@@@@@@@@@@@@+++++++++++++@@@@@@@@@@@@@@@@@@@@@@@@@++++++@@@@@@OOOOOO@@@@@@@XXXXXX",
"++++++@@@@@@OOOOOOO@@@@@@@@@@@@+++++++++++++@@@@@@@@@@@@@@@@@@@@@@@@@++++++@@@@@@OOOOOO@@@@@@@XXXXXX",
"++++++@@@@@@OOOOOOO@@@@@@@@@@@@+++++++++++++@@@@@@@@@@@@@@@@@@@@@@@@@++++++@@@@@@OOOOOO@@@@@@@XXXXXX",
"++++++@@@@@@OOOOOOO@@@@@@@@@@@@+++++++++++++@@@@@@@@@@@@@@@@@@@@@@@@@++++++@@@@@@OOOOOO@@@@@@@XXXXXX",
"@@@@@@OOOOOOoooooooOOOOOOOOOOOOOOOOOO@@@@@@@OOOOOOOOOOOO+++++++++++++++++++++++++@@@@@@OOOOOOOXXXXXX",
"@@@@@@OOOOOOoooooooOOOOOOOOOOOOOOOOOO@@@@@@@OOOOOOOOOOOO+++++++++++++++++++++++++@@@@@@OOOOOOOXXXXXX",
"@@@@@@OOOOOOoooooooOOOOOOOOOOOOOOOOOO@@@@@@@OOOOOOOOOOOO+++++++++++++++++++++++++@@@@@@OOOOOOOXXXXXX",
"@@@@@@OOOOOOoooooooOOOOOOOOOOOOOOOOOO@@@@@@@OOOOOOOOOOOO+++++++++++++++++++++++++@@@@@@OOOOOOOXXXXXX",
"@@@@@@OOOOOOoooooooOOOOOOOOOOOOOOOOOO@@@@@@@OOOOOOOOOOOO+++++++++++++++++++++++++@@@@@@OOOOOOOXXXXXX",
"@@@@@@OOOOOOoooooooOOOOOOOOOOOOOOOOOO@@@@@@@OOOOOOOOOOOO+++++++++++++++++++++++++@@@@@@OOOOOOOXXXXXX",
"OOOOOOOOOOOO@@@@@@@++++++++++++@@@@@@OOOOOOOOOOOOO@@@@@@OOOOOO@@@@@@@++++++@@@@@@OOOOOOOOOOOOO......",
"OOOOOOOOOOOO@@@@@@@++++++++++++@@@@@@OOOOOOOOOOOOO@@@@@@OOOOOO@@@@@@@++++++@@@@@@OOOOOOOOOOOOO......",
"OOOOOOOOOOOO@@@@@@@++++++++++++@@@@@@OOOOOOOOOOOOO@@@@@@OOOOOO@@@@@@@++++++@@@@@@OOOOOOOOOOOOO......",
"OOOOOOOOOOOO@@@@@@@++++++++++++@@@@@@OOOOOOOOOOOOO@@@@@@OOOOOO@@@@@@@++++++@@@@@@OOOOOOOOOOOOO......",
"OOOOOOOOOOOO@@@@@@@++++++++++++@@@@@@OOOOOOOOOOOOO@@@@@@OOOOOO@@@@@@@++++++@@@@@@OOOOOOOOOOOOO......",
"OOOOOOOOOOOO@@@@@@@++++++++++++@@@@@@OOOOOOOOOOOOO@@@@@@OOOOOO@@@@@@@++++++@@@@@@OOOOOOOOOOOOO......",
"OOOOOOooooooOOOOOOO@@@@@@@@@@@@OOOOOOOOOOOOOooooooooooooOOOOOOOOOOOOOOOOOOOOOOOOOOOOOOOOOOOOOO......",
"OOOOOOooooooOOOOOOO@@@@@@@@@@@@OOOOOOOOOOOOOooooooooooooOOOOOOOOOOOOOOOOOOOOOOOOOOOOOOOOOOOOOO......",
"OOOOOOooooooOOOOOOO@@@@@@@@@@@@OOOOOOOOOOOOOooooooooooooOOOOOOOOOOOOOOOOOOOOOOOOOOOOOOOOOOOOOO......",
"OOOOOOooooooOOOOOOO@@@@@@@@@@@@OOOOOOOOOOOOOooooooooooooOOOOOOOOOOOOOOOOOOOOOOOOOOOOOOOOOOOOOO......",
"OOOOOOooooooOOOOOOO@@@@@@@@@@@@OOOOOOOOOOOOOooooooooooooOOOOOOOOOOOOOOOOOOOOOOOOOOOOOOOOOOOOOO......",
"OOOOOOooooooOOOOOOO@@@@@@@@@@@@OOOOOOOOOOOOOooooooooooooOOOOOOOOOOOOOOOOOOOOOOOOOOOOOOOOOOOOOO......",
"......ooooooooooooooooooooooooooooooooooooooooooooOOOOOOOOOOOOooooooooooooooooooooooooo.......      ",
"......ooooooooooooooooooooooooooooooooooooooooooooOOOOOOOOOOOOooooooooooooooooooooooooo.......      ",
"......ooooooooooooooooooooooooooooooooooooooooooooOOOOOOOOOOOOooooooooooooooooooooooooo.......      ",
"......ooooooooooooooooooooooooooooooooooooooooooooOOOOOOOOOOOOooooooooooooooooooooooooo.......      ",
"......ooooooooooooooooooooooooooooooooooooooooooooOOOOOOOOOOOOooooooooooooooooooooooooo.......      ",
"......ooooooooooooooooooooooooooooooooooooooooooooOOOOOOOOOOOOooooooooooooooooooooooooo.......      ",
"......ooooooooooooooooooooooooooooooooooooooooooooOOOOOOOOOOOOooooooooooooooooooooooooo.......      ",
"      ......XXXXXXX..................                         .............XXXXXX......             ",
"      ......XXXXXXX..................                         .............XXXXXX......             ",
"      ......XXXXXXX..................                         .............XXXXXX......             ",
"      ......XXXXXXX..................                         .............XXXXXX......             ",
"      ......XXXXXXX..................                         .............XXXXXX......             ",
"      ......XXXXXXX..................                         .............XXXXXX......             ",
"######+++++++++++++##################@@@@@@@......      ......@@@@@@@++++++#########################",
"######+++++++++++++##################@@@@@@@......      ......@@@@@@@++++++#########################",
"######+++++++++++++##################@@@@@@@......      ......@@@@@@@++++++#########################",
"######+++++++++++++##################@@@@@@@......      ......@@@@@@@++++++#########################",
"######+++++++++++++##################@@@@@@@......      ......@@@@@@@++++++#########################",
"######+++++++++++++##################@@@@@@@......      ......@@@@@@@++++++#########################",
"@@@@@@@@@@@@@@@@@@@++++++@@@@@@@@@@@@@@@@@@@OOOOOO......OOOOOO@@@@@@@@@@@@@@@@@@@@@@@@@@@@@@@@@@@@@@",
"@@@@@@@@@@@@@@@@@@@++++++@@@@@@@@@@@@@@@@@@@OOOOOO......OOOOOO@@@@@@@@@@@@@@@@@@@@@@@@@@@@@@@@@@@@@@",
"@@@@@@@@@@@@@@@@@@@++++++@@@@@@@@@@@@@@@@@@@OOOOOO......OOOOOO@@@@@@@@@@@@@@@@@@@@@@@@@@@@@@@@@@@@@@",
"@@@@@@@@@@@@@@@@@@@++++++@@@@@@@@@@@@@@@@@@@OOOOOO......OOOOOO@@@@@@@@@@@@@@@@@@@@@@@@@@@@@@@@@@@@@@",
"@@@@@@@@@@@@@@@@@@@++++++@@@@@@@@@@@@@@@@@@@OOOOOO......OOOOOO@@@@@@@@@@@@@@@@@@@@@@@@@@@@@@@@@@@@@@",
"@@@@@@@@@@@@@@@@@@@++++++@@@@@@@@@@@@@@@@@@@OOOOOO......OOOOOO@@@@@@@@@@@@@@@@@@@@@@@@@@@@@@@@@@@@@@",
"@@@@@@@@@@@@@@@@@@@@@@@@@OOOOOO+++++++++++++@@@@@@......++++++@@@@@@@@@@@@@@@@@@@+++++++++++++@@@@@@",
"@@@@@@@@@@@@@@@@@@@@@@@@@OOOOOO+++++++++++++@@@@@@......++++++@@@@@@@@@@@@@@@@@@@+++++++++++++@@@@@@",
"@@@@@@@@@@@@@@@@@@@@@@@@@OOOOOO+++++++++++++@@@@@@......++++++@@@@@@@@@@@@@@@@@@@+++++++++++++@@@@@@",
"@@@@@@@@@@@@@@@@@@@@@@@@@OOOOOO+++++++++++++@@@@@@......++++++@@@@@@@@@@@@@@@@@@@+++++++++++++@@@@@@",
"@@@@@@@@@@@@@@@@@@@@@@@@@OOOOOO+++++++++++++@@@@@@......++++++@@@@@@@@@@@@@@@@@@@+++++++++++++@@@@@@",
"@@@@@@@@@@@@@@@@@@@@@@@@@OOOOOO+++++++++++++@@@@@@......++++++@@@@@@@@@@@@@@@@@@@+++++++++++++@@@@@@",
"@@@@@@@@@@@@@@@@@@@@@@@@@OOOOOO+++++++++++++@@@@@@......++++++@@@@@@@@@@@@@@@@@@@+++++++++++++@@@@@@",
"@@@@@@OOOOOO@@@@@@@++++++++++++@@@@@@OOOOOOOOOOOOOXXXXXX@@@@@@OOOOOOOOOOOOO++++++++++++@@@@@@@OOOOOO",
"@@@@@@OOOOOO@@@@@@@++++++++++++@@@@@@OOOOOOOOOOOOOXXXXXX@@@@@@OOOOOOOOOOOOO++++++++++++@@@@@@@OOOOOO",
"@@@@@@OOOOOO@@@@@@@++++++++++++@@@@@@OOOOOOOOOOOOOXXXXXX@@@@@@OOOOOOOOOOOOO++++++++++++@@@@@@@OOOOOO",
"@@@@@@OOOOOO@@@@@@@++++++++++++@@@@@@OOOOOOOOOOOOOXXXXXX@@@@@@OOOOOOOOOOOOO++++++++++++@@@@@@@OOOOOO",
"@@@@@@OOOOOO@@@@@@@++++++++++++@@@@@@OOOOOOOOOOOOOXXXXXX@@@@@@OOOOOOOOOOOOO++++++++++++@@@@@@@OOOOOO",
"@@@@@@OOOOOO@@@@@@@++++++++++++@@@@@@OOOOOOOOOOOOOXXXXXX@@@@@@OOOOOOOOOOOOO++++++++++++@@@@@@@OOOOOO",
"OOOOOO++++++@@@@@@@OOOOOOooooooooooooOOOOOOOooooooXXXXXXOOOOOOOOOOOOO@@@@@@oooooo@@@@@@OOOOOOOOOOOOO",
"OOOOOO++++++@@@@@@@OOOOOOooooooooooooOOOOOOOooooooXXXXXXOOOOOOOOOOOOO@@@@@@oooooo@@@@@@OOOOOOOOOOOOO",
"OOOOOO++++++@@@@@@@OOOOOOooooooooooooOOOOOOOooooooXXXXXXOOOOOOOOOOOOO@@@@@@oooooo@@@@@@OOOOOOOOOOOOO",
"OOOOOO++++++@@@@@@@OOOOOOooooooooooooOOOOOOOooooooXXXXXXOOOOOOOOOOOOO@@@@@@oooooo@@@@@@OOOOOOOOOOOOO",
"OOOOOO++++++@@@@@@@OOOOOOooooooooooooOOOOOOOooooooXXXXXXOOOOOOOOOOOOO@@@@@@oooooo@@@@@@OOOOOOOOOOOOO",
"OOOOOO++++++@@@@@@@OOOOOOooooooooooooOOOOOOOooooooXXXXXXOOOOOOOOOOOOO@@@@@@oooooo@@@@@@OOOOOOOOOOOOO",
"ooooooOOOOOOOOOOOOOooooooOOOOOO@@@@@@@@@@@@@oooooo......OOOOOOOOOOOOOooooooOOOOOOOOOOOOooooooooooooo",
"ooooooOOOOOOOOOOOOOooooooOOOOOO@@@@@@@@@@@@@oooooo......OOOOOOOOOOOOOooooooOOOOOOOOOOOOooooooooooooo",
"ooooooOOOOOOOOOOOOOooooooOOOOOO@@@@@@@@@@@@@oooooo......OOOOOOOOOOOOOooooooOOOOOOOOOOOOooooooooooooo",
"ooooooOOOOOOOOOOOOOooooooOOOOOO@@@@@@@@@@@@@oooooo......OOOOOOOOOOOOOooooooOOOOOOOOOOOOooooooooooooo",
"ooooooOOOOOOOOOOOOOooooooOOOOOO@@@@@@@@@@@@@oooooo......OOOOOOOOOOOOOooooooOOOOOOOOOOOOooooooooooooo",
"ooooooOOOOOOOOOOOOOooooooOOOOOO@@@@@@@@@@@@@oooooo......OOOOOOOOOOOOOooooooOOOOOOOOOOOOooooooooooooo",
"OOOOOOOOOOOOoooooooooooooooooooooooooooooooo......      ......oooooooooooooooooooooooooooooooooooooo",
"OOOOOOOOOOOOoooooooooooooooooooooooooooooooo......      ......oooooooooooooooooooooooooooooooooooooo",
"OOOOOOOOOOOOoooooooooooooooooooooooooooooooo......      ......oooooooooooooooooooooooooooooooooooooo",
"OOOOOOOOOOOOoooooooooooooooooooooooooooooooo......      ......oooooooooooooooooooooooooooooooooooooo",
"OOOOOOOOOOOOoooooooooooooooooooooooooooooooo......      ......oooooooooooooooooooooooooooooooooooooo",
"OOOOOOOOOOOOoooooooooooooooooooooooooooooooo......      ......oooooooooooooooooooooooooooooooooooooo",
"OOOOOOOOOOOOoooooooooooooooooooooooooooooooo......      ......oooooooooooooooooooooooooooooooooooooo",
"      .............XXXXXXXXXXXX.............                         ............                   ",
"      .............XXXXXXXXXXXX.............                         ............                   ",
"      .............XXXXXXXXXXXX.............                         ............                   ",
"      .............XXXXXXXXXXXX.............                         ............                   ",
"      .............XXXXXXXXXXXX.............                         ............                   ",
"      .............XXXXXXXXXXXX.............                         ............                   "
};
