/* XPM */
static char *result[] = {
/* columns rows colors chars-per-pixel */
"128 128 63 1 ",
"  c #3B5A20",
". c #3E5E21",
"X c #3E5F22",
"o c #3F6022",
"O c #406022",
"+ c #406123",
"@ c #416223",
"# c #416323",
"$ c #426423",
"% c #426424",
"& c #436524",
"* c #436624",
"= c #446725",
"- c #446825",
"; c #456925",
": c #456926",
"> c #466A26",
", c #466B26",
"< c #476C26",
"1 c #476D27",
"2 c #486D27",
"3 c #496E27",
"4 c #496F28",
"5 c #4A7028",
"6 c #4A7128",
"7 c #4B7128",
"8 c #4B7229",
"9 c #4C7329",
"0 c #4C7429",
"q c #4D752A",
"w c #4E762A",
"e c #4E772A",
"r c #4F782B",
"t c #4F792B",
"y c #50792B",
"u c #507A2C",
"i c #517B2C",
"p c #527D2C",
"a c #537D2D",
"s c #537E2D",
"d c #547F2D",
"f c #54802E",
"g c #55812E",
"h c #56822E",
"j c #56832F",
"k c #57842F",
"l c #57852F",
"z c #588530",
"x c #588630",
"c c #598730",
"v c #598830",
"b c #5A8931",
"n c #5B8931",
"m c #5B8A31",
"M c #5C8B32",
"N c #5C8C32",
"B c #5F9033",
"V c #609234",
"C c #619334",
"Z c #629635",
"A c #659A37",
"S c #669A37",
"D c #679D38",
/* pixels */
"eeeeeeeeDDDDDDDDwwwwwwww<<<<<<<<<<<<<<<<99999999********66666666ddddddddtttttttt444444441111111133333333xxxxxxxx        77777777",
"eeeeeeeeDDDDDDDDwwwwwwww<<<<<<<<<<<<<<<<99999999********66666666ddddddddtttttttt444444441111111133333333xxxxxxxx        77777777",
"eeeeeeeeDDDDDDDDwwwwwwww<<<<<<<<<<<<<<<<99999999********66666666ddddddddtttttttt444444441111111133333333xxxxxxxx        77777777",
"eeeeeeeeDDDDDDDDwwwwwwww<<<<<<<<<<<<<<<<99999999********66666666ddddddddtttttttt444444441111111133333333xxxxxxxx        77777777",
"eeeeeeeeDDDDDDDDwwwwwwww<<<<<<<<<<<<<<<<99999999********66666666ddddddddtttttttt444444441111111133333333xxxxxxxx        77777777",
"eeeeeeeeDDDDDDDDwwwwwwww<<<<<<<<<<<<<<<<99999999********66666666ddddddddtttttttt444444441111111133333333xxxxxxxx        77777777",
"eeeeeeeeDDDDDDDDwwwwwwww<<<<<<<<<<<<<<<<99999999********66666666ddddddddtttttttt444444441111111133333333xxxxxxxx        77777777",
"eeeeeeeeDDDDDDDDwwwwwwww<<<<<<<<<<<<<<<<99999999********66666666ddddddddtttttttt444444441111111133333333xxxxxxxx        77777777",
"rrrrrrrr66666666ggggggggyyyyyyyyiiiiiiii========iiiiiiii;;;;;;;;********vvvvvvvvzzzzzzzzwwwwwwwwDDDDDDDD666666661111111155555555",
"rrrrrrrr66666666ggggggggyyyyyyyyiiiiiiii========iiiiiiii;;;;;;;;********vvvvvvvvzzzzzzzzwwwwwwwwDDDDDDDD666666661111111155555555",
"rrrrrrrr66666666ggggggggyyyyyyyyiiiiiiii========iiiiiiii;;;;;;;;********vvvvvvvvzzzzzzzzwwwwwwwwDDDDDDDD666666661111111155555555",
"rrrrrrrr66666666ggggggggyyyyyyyyiiiiiiii========iiiiiiii;;;;;;;;********vvvvvvvvzzzzzzzzwwwwwwwwDDDDDDDD666666661111111155555555",
"rrrrrrrr66666666ggggggggyyyyyyyyiiiiiiii========iiiiiiii;;;;;;;;********vvvvvvvvzzzzzzzzwwwwwwwwDDDDDDDD666666661111111155555555",
"rrrrrrrr66666666ggggggggyyyyyyyyiiiiiiii========iiiiiiii;;;;;;;;********vvvvvvvvzzzzzzzzwwwwwwwwDDDDDDDD666666661111111155555555",
"rrrrrrrr66666666ggggggggyyyyyyyyiiiiiiii========iiiiiiii;;;;;;;;********vvvvvvvvzzzzzzzzwwwwwwwwDDDDDDDD666666661111111155555555",
"rrrrrrrr66666666ggggggggyyyyyyyyiiiiiiii========iiiiiiii;;;;;;;;********vvvvvvvvzzzzzzzzwwwwwwwwDDDDDDDD666666661111111155555555",
"jjjjjjjj77777777%%%%%%%%>>>>>>>>33333333222222220000000000000000eeeeeeeeffffffffccccccccMMMMMMMM11111111oooooooo========VVVVVVVV",
"jjjjjjjj77777777%%%%%%%%>>>>>>>>33333333222222220000000000000000eeeeeeeeffffffffccccccccMMMMMMMM11111111oooooooo========VVVVVVVV",
"jjjjjjjj77777777%%%%%%%%>>>>>>>>33333333222222220000000000000000eeeeeeeeffffffffccccccccMMMMMMMM11111111oooooooo========VVVVVVVV",
"jjjjjjjj77777777%%%%%%%%>>>>>>>>33333333222222220000000000000000eeeeeeeeffffffffccccccccMMMMMMMM11111111oooooooo========VVVVVVVV",
"jjjjjjjj77777777%%%%%%%%>>>>>>>>33333333222222220000000000000000eeeeeeeeffffffffccccccccMMMMMMMM11111111oooooooo========VVVVVVVV",
"jjjjjjjj77777777%%%%%%%%>>>>>>>>33333333222222220000000000000000eeeeeeeeffffffffccccccccMMMMMMMM11111111oooooooo========VVVVVVVV",
"jjjjjjjj77777777%%%%%%%%>>>>>>>>33333333222222220000000000000000eeeeeeeeffffffffccccccccMMMMMMMM11111111oooooooo========VVVVVVVV",
"jjjjjjjj77777777%%%%%%%%>>>>>>>>33333333222222220000000000000000eeeeeeeeffffffffccccccccMMMMMMMM11111111oooooooo========VVVVVVVV",
"XXXXXXXX,,,,,,,,44444444yyyyyyyyqqqqqqqqiiiiiiii%%%%%%%%qqqqqqqq********::::::::77777777yyyyyyyy9999999955555555xxxxxxxx%%%%%%%%",
"XXXXXXXX,,,,,,,,44444444yyyyyyyyqqqqqqqqiiiiiiii%%%%%%%%qqqqqqqq********::::::::77777777yyyyyyyy9999999955555555xxxxxxxx%%%%%%%%",
"XXXXXXXX,,,,,,,,44444444yyyyyyyyqqqqqqqqiiiiiiii%%%%%%%%qqqqqqqq********::::::::77777777yyyyyyyy9999999955555555xxxxxxxx%%%%%%%%",
"XXXXXXXX,,,,,,,,44444444yyyyyyyyqqqqqqqqiiiiiiii%%%%%%%%qqqqqqqq********::::::::77777777yyyyyyyy9999999955555555xxxxxxxx%%%%%%%%",
"XXXXXXXX,,,,,,,,44444444yyyyyyyyqqqqqqqqiiiiiiii%%%%%%%%qqqqqqqq********::::::::77777777yyyyyyyy9999999955555555xxxxxxxx%%%%%%%%",
"XXXXXXXX,,,,,,,,44444444yyyyyyyyqqqqqqqqiiiiiiii%%%%%%%%qqqqqqqq********::::::::77777777yyyyyyyy9999999955555555xxxxxxxx%%%%%%%%",
"XXXXXXXX,,,,,,,,44444444yyyyyyyyqqqqqqqqiiiiiiii%%%%%%%%qqqqqqqq********::::::::77777777yyyyyyyy9999999955555555xxxxxxxx%%%%%%%%",
"XXXXXXXX,,,,,,,,44444444yyyyyyyyqqqqqqqqiiiiiiii%%%%%%%%qqqqqqqq********::::::::77777777yyyyyyyy9999999955555555xxxxxxxx%%%%%%%%",
"hhhhhhhh::::::::MMMMMMMM::::::::mmmmmmmmNNNNNNNN22222222mmmmmmmmZZZZZZZZ........========xxxxxxxxnnnnnnnn&&&&&&&&2222222277777777",
"hhhhhhhh::::::::MMMMMMMM::::::::mmmmmmmmNNNNNNNN22222222mmmmmmmmZZZZZZZZ........========xxxxxxxxnnnnnnnn&&&&&&&&2222222277777777",
"hhhhhhhh::::::::MMMMMMMM::::::::mmmmmmmmNNNNNNNN22222222mmmmmmmmZZZZZZZZ........========xxxxxxxxnnnnnnnn&&&&&&&&2222222277777777",
"hhhhhhhh::::::::MMMMMMMM::::::::mmmmmmmmNNNNNNNN22222222mmmmmmmmZZZZZZZZ........========xxxxxxxxnnnnnnnn&&&&&&&&2222222277777777",
"hhhhhhhh::::::::MMMMMMMM::::::::mmmmmmmmNNNNNNNN22222222mmmmmmmmZZZZZZZZ........========xxxxxxxxnnnnnnnn&&&&&&&&2222222277777777",
"hhhhhhhh::::::::MMMMMMMM::::::::mmmmmmmmNNNNNNNN22222222mmmmmmmmZZZZZZZZ........========xxxxxxxxnnnnnnnn&&&&&&&&2222222277777777",
"hhhhhhhh::::::::MMMMMMMM::::::::mmmmmmmmNNNNNNNN22222222mmmmmmmmZZZZZZZZ........========xxxxxxxxnnnnnnnn&&&&&&&&2222222277777777",
"hhhhhhhh::::::::MMMMMMMM::::::::mmmmmmmmNNNNNNNN22222222mmmmmmmmZZZZZZZZ........========xxxxxxxxnnnnnnnn&&&&&&&&2222222277777777",
"iiiiiiiiuuuuuuuuOOOOOOOOzzzzzzzz--------ttttttttrrrrrrrrpppppppp11111111rrrrrrrr22222222::::::::OOOOOOOO2222222288888888eeeeeeee",
"iiiiiiiiuuuuuuuuOOOOOOOOzzzzzzzz--------ttttttttrrrrrrrrpppppppp11111111rrrrrrrr22222222::::::::OOOOOOOO2222222288888888eeeeeeee",
"iiiiiiiiuuuuuuuuOOOOOOOOzzzzzzzz--------ttttttttrrrrrrrrpppppppp11111111rrrrrrrr22222222::::::::OOOOOOOO2222222288888888eeeeeeee",
"iiiiiiiiuuuuuuuuOOOOOOOOzzzzzzzz--------ttttttttrrrrrrrrpppppppp11111111rrrrrrrr22222222::::::::OOOOOOOO2222222288888888eeeeeeee",
"iiiiiiiiuuuuuuuuOOOOOOOOzzzzzzzz--------ttttttttrrrrrrrrpppppppp11111111rrrrrrrr22222222::::::::OOOOOOOO2222222288888888eeeeeeee",
"iiiiiiiiuuuuuuuuOOOOOOOOzzzzzzzz--------ttttttttrrrrrrrrpppppppp11111111rrrrrrrr22222222::::::::OOOOOOOO2222222288888888eeeeeeee",
"iiiiiiiiuuuuuuuuOOOOOOOOzzzzzzzz--------ttttttttrrrrrrrrpppppppp11111111rrrrrrrr22222222::::::::OOOOOOOO2222222288888888eeeeeeee",
"iiiiiiiiuuuuuuuuOOOOOOOOzzzzzzzz--------ttttttttrrrrrrrrpppppppp11111111rrrrrrrr22222222::::::::OOOOOOOO2222222288888888eeeeeeee",
"&&&&&&&&aaaaaaaallllllll00000000qqqqqqqq::::::::44444444********>>>>>>>>11111111VVVVVVVVmmmmmmmmqqqqqqqqxxxxxxxxyyyyyyyy99999999",
"&&&&&&&&aaaaaaaallllllll00000000qqqqqqqq::::::::44444444********>>>>>>>>11111111VVVVVVVVmmmmmmmmqqqqqqqqxxxxxxxxyyyyyyyy99999999",
"&&&&&&&&aaaaaaaallllllll00000000qqqqqqqq::::::::44444444********>>>>>>>>11111111VVVVVVVVmmmmmmmmqqqqqqqqxxxxxxxxyyyyyyyy99999999",
"&&&&&&&&aaaaaaaallllllll00000000qqqqqqqq::::::::44444444********>>>>>>>>11111111VVVVVVVVmmmmmmmmqqqqqqqqxxxxxxxxyyyyyyyy99999999",
"&&&&&&&&aaaaaaaallllllll00000000qqqqqqqq::::::::44444444********>>>>>>>>11111111VVVVVVVVmmmmmmmmqqqqqqqqxxxxxxxxyyyyyyyy99999999",
"&&&&&&&&aaaaaaaallllllll00000000qqqqqqqq::::::::44444444********>>>>>>>>11111111VVVVVVVVmmmmmmmmqqqqqqqqxxxxxxxxyyyyyyyy99999999",
"&&&&&&&&aaaaaaaallllllll00000000qqqqqqqq::::::::44444444********>>>>>>>>11111111VVVVVVVVmmmmmmmmqqqqqqqqxxxxxxxxyyyyyyyy99999999",
"&&&&&&&&aaaaaaaallllllll00000000qqqqqqqq::::::::44444444********>>>>>>>>11111111VVVVVVVVmmmmmmmmqqqqqqqqxxxxxxxxyyyyyyyy99999999",
"9999999911111111ssssssss5555555500000000$$$$$$$$kkkkkkkk>>>>>>>>yyyyyyyyMMMMMMMM11111111--------99999999gggggggg********vvvvvvvv",
"9999999911111111ssssssss5555555500000000$$$$$$$$kkkkkkkk>>>>>>>>yyyyyyyyMMMMMMMM11111111--------99999999gggggggg********vvvvvvvv",
"9999999911111111ssssssss5555555500000000$$$$$$$$kkkkkkkk>>>>>>>>yyyyyyyyMMMMMMMM11111111--------99999999gggggggg********vvvvvvvv",
"9999999911111111ssssssss5555555500000000$$$$$$$$kkkkkkkk>>>>>>>>yyyyyyyyMMMMMMMM11111111--------99999999gggggggg********vvvvvvvv",
"9999999911111111ssssssss5555555500000000$$$$$$$$kkkkkkkk>>>>>>>>yyyyyyyyMMMMMMMM11111111--------99999999gggggggg********vvvvvvvv",
"9999999911111111ssssssss5555555500000000$$$$$$$$kkkkkkkk>>>>>>>>yyyyyyyyMMMMMMMM11111111--------99999999gggggggg********vvvvvvvv",
"9999999911111111ssssssss5555555500000000$$$$$$$$kkkkkkkk>>>>>>>>yyyyyyyyMMMMMMMM11111111--------99999999gggggggg********vvvvvvvv",
"9999999911111111ssssssss5555555500000000$$$$$$$$kkkkkkkk>>>>>>>>yyyyyyyyMMMMMMMM11111111--------99999999gggggggg********vvvvvvvv",
"xxxxxxxxppppppppVVVVVVVVbbbbbbbbmmmmmmmm--------MMMMMMMMaaaaaaaaBBBBBBBBbbbbbbbb;;;;;;;;qqqqqqqq,,,,,,,,wwwwwwwwdddddddd&&&&&&&&",
"xxxxxxxxppppppppVVVVVVVVbbbbbbbbmmmmmmmm--------MMMMMMMMaaaaaaaaBBBBBBBBbbbbbbbb;;;;;;;;qqqqqqqq,,,,,,,,wwwwwwwwdddddddd&&&&&&&&",
"xxxxxxxxppppppppVVVVVVVVbbbbbbbbmmmmmmmm--------MMMMMMMMaaaaaaaaBBBBBBBBbbbbbbbb;;;;;;;;qqqqqqqq,,,,,,,,wwwwwwwwdddddddd&&&&&&&&",
"xxxxxxxxppppppppVVVVVVVVbbbbbbbbmmmmmmmm--------MMMMMMMMaaaaaaaaBBBBBBBBbbbbbbbb;;;;;;;;qqqqqqqq,,,,,,,,wwwwwwwwdddddddd&&&&&&&&",
"xxxxxxxxppppppppVVVVVVVVbbbbbbbbmmmmmmmm--------MMMMMMMMaaaaaaaaBBBBBBBBbbbbbbbb;;;;;;;;qqqqqqqq,,,,,,,,wwwwwwwwdddddddd&&&&&&&&",
"xxxxxxxxppppppppVVVVVVVVbbbbbbbbmmmmmmmm--------MMMMMMMMaaaaaaaaBBBBBBBBbbbbbbbb;;;;;;;;qqqqqqqq,,,,,,,,wwwwwwwwdddddddd&&&&&&&&",
"xxxxxxxxppppppppVVVVVVVVbbbbbbbbmmmmmmmm--------MMMMMMMMaaaaaaaaBBBBBBBBbbbbbbbb;;;;;;;;qqqqqqqq,,,,,,,,wwwwwwwwdddddddd&&&&&&&&",
"xxxxxxxxppppppppVVVVVVVVbbbbbbbbmmmmmmmm--------MMMMMMMMaaaaaaaaBBBBBBBBbbbbbbbb;;;;;;;;qqqqqqqq,,,,,,,,wwwwwwwwdddddddd&&&&&&&&",
"yyyyyyyy;;;;;;;;CCCCCCCC7777777766666666uuuuuuuubbbbbbbb========11111111qqqqqqqqqqqqqqqqvvvvvvvv88888888BBBBBBBB99999999--------",
"yyyyyyyy;;;;;;;;CCCCCCCC7777777766666666uuuuuuuubbbbbbbb========11111111qqqqqqqqqqqqqqqqvvvvvvvv88888888BBBBBBBB99999999--------",
"yyyyyyyy;;;;;;;;CCCCCCCC7777777766666666uuuuuuuubbbbbbbb========11111111qqqqqqqqqqqqqqqqvvvvvvvv88888888BBBBBBBB99999999--------",
"yyyyyyyy;;;;;;;;CCCCCCCC7777777766666666uuuuuuuubbbbbbbb========11111111qqqqqqqqqqqqqqqqvvvvvvvv88888888BBBBBBBB99999999--------",
"yyyyyyyy;;;;;;;;CCCCCCCC7777777766666666uuuuuuuubbbbbbbb========11111111qqqqqqqqqqqqqqqqvvvvvvvv88888888BBBBBBBB99999999--------",
"yyyyyyyy;;;;;;;;CCCCCCCC7777777766666666uuuuuuuubbbbbbbb========11111111qqqqqqqqqqqqqqqqvvvvvvvv88888888BBBBBBBB99999999--------",
"yyyyyyyy;;;;;;;;CCCCCCCC7777777766666666uuuuuuuubbbbbbbb========11111111qqqqqqqqqqqqqqqqvvvvvvvv88888888BBBBBBBB99999999--------",
"yyyyyyyy;;;;;;;;CCCCCCCC7777777766666666uuuuuuuubbbbbbbb========11111111qqqqqqqqqqqqqqqqvvvvvvvv88888888BBBBBBBB99999999--------",
"ppppppppddddddddyyyyyyyyllllllll;;;;;;;;VVVVVVVV88888888wwwwwwwwSSSSSSSS++++++++xxxxxxxx::::::::9999999922222222yyyyyyyy99999999",
"ppppppppddddddddyyyyyyyyllllllll;;;;;;;;VVVVVVVV88888888wwwwwwwwSSSSSSSS++++++++xxxxxxxx::::::::9999999922222222yyyyyyyy99999999",
"ppppppppddddddddyyyyyyyyllllllll;;;;;;;;VVVVVVVV88888888wwwwwwwwSSSSSSSS++++++++xxxxxxxx::::::::9999999922222222yyyyyyyy99999999",
"ppppppppddddddddyyyyyyyyllllllll;;;;;;;;VVVVVVVV88888888wwwwwwwwSSSSSSSS++++++++xxxxxxxx::::::::9999999922222222yyyyyyyy99999999",
"ppppppppddddddddyyyyyyyyllllllll;;;;;;;;VVVVVVVV88888888wwwwwwwwSSSSSSSS++++++++xxxxxxxx::::::::9999999922222222yyyyyyyy99999999",
"ppppppppddddddddyyyyyyyyllllllll;;;;;;;;VVVVVVVV88888888wwwwwwwwSSSSSSSS++++++++xxxxxxxx::::::::9999999922222222yyyyyyyy99999999",
"ppppppppddddddddyyyyyyyyllllllll;;;;;;;;VVVVVVVV88888888wwwwwwwwSSSSSSSS++++++++xxxxxxxx::::::::9999999922222222yyyyyyyy99999999",
"ppppppppddddddddyyyyyyyyllllllll;;;;;;;;VVVVVVVV88888888wwwwwwwwSSSSSSSS++++++++xxxxxxxx::::::::9999999922222222yyyyyyyy99999999",
">>>>>>>>MMMMMMMM<<<<<<<<jjjjjjjjyyyyyyyy>>>>>>>>qqqqqqqq33333333yyyyyyyyqqqqqqqq66666666########BBBBBBBB********%%%%%%%%44444444",
">>>>>>>>MMMMMMMM<<<<<<<<jjjjjjjjyyyyyyyy>>>>>>>>qqqqqqqq33333333yyyyyyyyqqqqqqqq66666666########BBBBBBBB********%%%%%%%%44444444",
">>>>>>>>MMMMMMMM<<<<<<<<jjjjjjjjyyyyyyyy>>>>>>>>qqqqqqqq33333333yyyyyyyyqqqqqqqq66666666########BBBBBBBB********%%%%%%%%44444444",
">>>>>>>>MMMMMMMM<<<<<<<<jjjjjjjjyyyyyyyy>>>>>>>>qqqqqqqq33333333yyyyyyyyqqqqqqqq66666666########BBBBBBBB********%%%%%%%%44444444",
">>>>>>>>MMMMMMMM<<<<<<<<jjjjjjjjyyyyyyyy>>>>>>>>qqqqqqqq33333333yyyyyyyyqqqqqqqq66666666########BBBBBBBB********%%%%%%%%44444444",
">>>>>>>>MMMMMMMM<<<<<<<<jjjjjjjjyyyyyyyy>>>>>>>>qqqqqqqq33333333yyyyyyyyqqqqqqqq66666666########BBBBBBBB********%%%%%%%%44444444",
">>>>>>>>MMMMMMMM<<<<<<<<jjjjjjjjyyyyyyyy>>>>>>>>qqqqqqqq33333333yyyyyyyyqqqqqqqq66666666########BBBBBBBB********%%%%%%%%44444444",
">>>>>>>>MMMMMMMM<<<<<<<<jjjjjjjjyyyyyyyy>>>>>>>>qqqqqqqq33333333yyyyyyyyqqqqqqqq66666666########BBBBBBBB********%%%%%%%%44444444",
"ZZZZZZZZyyyyyyyy--------44444444iiiiiiiiqqqqqqqq,,,,,,,,@@@@@@@@44444444qqqqqqqq44444444%%%%%%%%ffffffffllllllll++++++++yyyyyyyy",
"ZZZZZZZZyyyyyyyy--------44444444iiiiiiiiqqqqqqqq,,,,,,,,@@@@@@@@44444444qqqqqqqq44444444%%%%%%%%ffffffffllllllll++++++++yyyyyyyy",
"ZZZZZZZZyyyyyyyy--------44444444iiiiiiiiqqqqqqqq,,,,,,,,@@@@@@@@44444444qqqqqqqq44444444%%%%%%%%ffffffffllllllll++++++++yyyyyyyy",
"ZZZZZZZZyyyyyyyy--------44444444iiiiiiiiqqqqqqqq,,,,,,,,@@@@@@@@44444444qqqqqqqq44444444%%%%%%%%ffffffffllllllll++++++++yyyyyyyy",
"ZZZZZZZZyyyyyyyy--------44444444iiiiiiiiqqqqqqqq,,,,,,,,@@@@@@@@44444444qqqqqqqq44444444%%%%%%%%ffffffffllllllll++++++++yyyyyyyy",
"ZZZZZZZZyyyyyyyy--------44444444iiiiiiiiqqqqqqqq,,,,,,,,@@@@@@@@44444444qqqqqqqq44444444%%%%%%%%ffffffffllllllll++++++++yyyyyyyy",
"ZZZZZZZZyyyyyyyy--------44444444iiiiiiiiqqqqqqqq,,,,,,,,@@@@@@@@44444444qqqqqqqq44444444%%%%%%%%ffffffffllllllll++++++++yyyyyyyy",
"ZZZZZZZZyyyyyyyy--------44444444iiiiiiiiqqqqqqqq,,,,,,,,@@@@@@@@44444444qqqqqqqq44444444%%%%%%%%ffffffffllllllll++++++++yyyyyyyy",
"--------ccccccccXXXXXXXXqqqqqqqq%%%%%%%%iiiiiiii--------DDDDDDDDggggggggwwwwwwwwccccccccppppppppgggggggg22222222ccccccccNNNNNNNN",
"--------ccccccccXXXXXXXXqqqqqqqq%%%%%%%%iiiiiiii--------DDDDDDDDggggggggwwwwwwwwccccccccppppppppgggggggg22222222ccccccccNNNNNNNN",
"--------ccccccccXXXXXXXXqqqqqqqq%%%%%%%%iiiiiiii--------DDDDDDDDggggggggwwwwwwwwccccccccppppppppgggggggg22222222ccccccccNNNNNNNN",
"--------ccccccccXXXXXXXXqqqqqqqq%%%%%%%%iiiiiiii--------DDDDDDDDggggggggwwwwwwwwccccccccppppppppgggggggg22222222ccccccccNNNNNNNN",
"--------ccccccccXXXXXXXXqqqqqqqq%%%%%%%%iiiiiiii--------DDDDDDDDggggggggwwwwwwwwccccccccppppppppgggggggg22222222ccccccccNNNNNNNN",
"--------ccccccccXXXXXXXXqqqqqqqq%%%%%%%%iiiiiiii--------DDDDDDDDggggggggwwwwwwwwccccccccppppppppgggggggg22222222ccccccccNNNNNNNN",
"--------ccccccccXXXXXXXXqqqqqqqq%%%%%%%%iiiiiiii--------DDDDDDDDggggggggwwwwwwwwccccccccppppppppgggggggg22222222ccccccccNNNNNNNN",
"--------ccccccccXXXXXXXXqqqqqqqq%%%%%%%%iiiiiiii--------DDDDDDDDggggggggwwwwwwwwccccccccppppppppgggggggg22222222ccccccccNNNNNNNN",
"jjjjjjjjggggggggSSSSSSSS########BBBBBBBBnnnnnnnneeeeeeeewwwwwwww&&&&&&&&rrrrrrrrrrrrrrrr11111111vvvvvvvvssssssss55555555++++++++",
"jjjjjjjjggggggggSSSSSSSS########BBBBBBBBnnnnnnnneeeeeeeewwwwwwww&&&&&&&&rrrrrrrrrrrrrrrr11111111vvvvvvvvssssssss55555555++++++++",
"jjjjjjjjggggggggSSSSSSSS########BBBBBBBBnnnnnnnneeeeeeeewwwwwwww&&&&&&&&rrrrrrrrrrrrrrrr11111111vvvvvvvvssssssss55555555++++++++",
"jjjjjjjjggggggggSSSSSSSS########BBBBBBBBnnnnnnnneeeeeeeewwwwwwww&&&&&&&&rrrrrrrrrrrrrrrr11111111vvvvvvvvssssssss55555555++++++++",
"jjjjjjjjggggggggSSSSSSSS########BBBBBBBBnnnnnnnneeeeeeeewwwwwwww&&&&&&&&rrrrrrrrrrrrrrrr11111111vvvvvvvvssssssss55555555++++++++",
"jjjjjjjjggggggggSSSSSSSS########BBBBBBBBnnnnnnnneeeeeeeewwwwwwww&&&&&&&&rrrrrrrrrrrrrrrr11111111vvvvvvvvssssssss55555555++++++++",
"jjjjjjjjggggggggSSSSSSSS########BBBBBBBBnnnnnnnneeeeeeeewwwwwwww&&&&&&&&rrrrrrrrrrrrrrrr11111111vvvvvvvvssssssss55555555++++++++",
"jjjjjjjjggggggggSSSSSSSS########BBBBBBBBnnnnnnnneeeeeeeewwwwwwww&&&&&&&&rrrrrrrrrrrrrrrr11111111vvvvvvvvssssssss55555555++++++++",
",,,,,,,,tttttttt2222222233333333kkkkkkkkuuuuuuuueeeeeeeewwwwwwww88888888AAAAAAAA$$$$$$$$vvvvvvvv>>>>>>>>0000000022222222dddddddd",
",,,,,,,,tttttttt2222222233333333kkkkkkkkuuuuuuuueeeeeeeewwwwwwww88888888AAAAAAAA$$$$$$$$vvvvvvvv>>>>>>>>0000000022222222dddddddd",
",,,,,,,,tttttttt2222222233333333kkkkkkkkuuuuuuuueeeeeeeewwwwwwww88888888AAAAAAAA$$$$$$$$vvvvvvvv>>>>>>>>0000000022222222dddddddd",
",,,,,,,,tttttttt2222222233333333kkkkkkkkuuuuuuuueeeeeeeewwwwwwww88888888AAAAAAAA$$$$$$$$vvvvvvvv>>>>>>>>0000000022222222dddddddd",
",,,,,,,,tttttttt2222222233333333kkkkkkkkuuuuuuuueeeeeeeewwwwwwww88888888AAAAAAAA$$$$$$$$vvvvvvvv>>>>>>>>0000000022222222dddddddd",
",,,,,,,,tttttttt2222222233333333kkkkkkkkuuuuuuuueeeeeeeewwwwwwww88888888AAAAAAAA$$$$$$$$vvvvvvvv>>>>>>>>0000000022222222dddddddd",
",,,,,,,,tttttttt2222222233333333kkkkkkkkuuuuuuuueeeeeeeewwwwwwww88888888AAAAAAAA$$$$$$$$vvvvvvvv>>>>>>>>0000000022222222dddddddd",
",,,,,,,,tttttttt2222222233333333kkkkkkkkuuuuuuuueeeeeeeewwwwwwww88888888AAAAAAAA$$$$$$$$vvvvvvvv>>>>>>>>0000000022222222dddddddd"
};
