/* XPM */
static char *_e5633190167441ce4527e43baa94029N7OiMkZfpNm0npMd[] = {
/* columns rows colors chars-per-pixel */
"100 100 35 1 ",
"  c #3B5A20",
". c #3E5F22",
"X c #3F6022",
"o c #406022",
"O c #426423",
"+ c #426424",
"@ c #446725",
"# c #466B26",
"$ c #476C26",
"% c #476D27",
"& c #486D27",
"* c #496F28",
"= c #4A7128",
"- c #4C7329",
"; c #4C7429",
": c #4E772A",
"> c #4F782B",
", c #4F792B",
"< c #50792B",
"1 c #517B2C",
"2 c #547F2D",
"3 c #54802E",
"4 c #55812E",
"5 c #57842F",
"6 c #57852F",
"7 c #588530",
"8 c #588630",
"9 c #5B8931",
"0 c #5C8B32",
"q c #5C8C32",
"w c #5F9033",
"e c #609234",
"r c #629635",
"t c #669A37",
"y c #679D38",
/* pixels */
"::::::yyyyyy:::::::$$$$$$$$$$$$------+++++++======222222>>>>>>*******$$$$$$&&&&&&777777       ======",
"::::::yyyyyy:::::::$$$$$$$$$$$$------+++++++======222222>>>>>>*******$$$$$$&&&&&&777777       ======",
"::::::yyyyyy:::::::$$$$$$$$$$$$------+++++++======224422>>>>>>*******$$$$$$&&&&&&777777       ======",
"::::::yyyyyy:::::::$$$$$$$$$$$$------+++++++======224422>>>>>>*******$$$$$$&&&&&&777777       ======",
"::::::yyyyyy:::::::$$$$$$$$$$$$------+++++++======222222>>>>>>*******$$$$$$&&&&&&777777       ======",
"::::::yyyyyy:::::::$$$$$$$$$$$$----::+++++++======222222>>>>>>*******$$$$$$&&&&&&777777       ======",
">>>>>>======4444444<<<<<<111111@@@##@1111111######++++++9999997777777::::::yyyyyy======$$$$$$$======",
">>>>>>======4444444<<<<<<111111@@@@@@1111111######++++++9999997777777::::::yyyyyy======$$$$$$$======",
">>>>>>======4444444<<<<<<111111@@@@@+1111111######++++++9999995577777::::::yyyyyy======$$$$$$$======",
">>>>>>======4444444<<<<<<111111@@@@@+1111111######++++++9999995577777::::::yyyyyy======$$$$$$$======",
">>>>>>======4444444<<<<<<111111@@@@@+1111111######++++++9999995577777::::::yyyyyy======$$$$$$$======",
">>>>>>======4444444<<<<<<111111@@@@@+1111111######++++++9999995577777::::::yyyyyy======$$$$$$$======",
"444444======+++++++######&&&&&&&&&&&&::-::-===::::::::::4444447799997000000$$$$$$XXXXXX@@@@@@@eeeeee",
"444444======+++++++######&&&&&&&&&&&&:::::-:==::::::::::4444447777797000000$$$$$$XXXXXX@@@@@@@eeeeee",
"544444======+++++++######&&&&&&&&&&&&:::::::=--:::::::::4444447777777000000$$$$$$XXXXXX@@@@@@@eeeeee",
"544444======+++++++######&&&&&&&&&&&&:::::::==::-:::::::4444447777777000000$$$$$$XXXXXX@@@@@@@eeeeee",
"554444======+++++++######&&&&&&&&&&$&:::::::-----:::>>>:4444447777777q00000$$$$$$XXXXXX@@@@@@@eeeeee",
"554444======+++++++######&&&&&&&&&&$&:::::::----::::>>>>44444477777770qq000$$$$$$XXXXXX@@@@@@@eeeeee",
"555445======+++++++######&&&&&&&&&$$&::::-::------::>>>>4444447777777qqq000$$$$$$XXXXXX@@@@@@@eeeeee",
"XX...X$$####*******<<<<<<::::::111111+++++++::::::++++++######=======<<<<<<------======7777777++++++",
"......######*******<<<<<<::::::111111+++++++::::::++++++######=======<<<<<<------======7777777++++++",
"......######*******<<<<<<::::::111111+++++++::::::++++++######=======<<<<<<------======7777777++++++",
"......######*******<<<<<<::::::111111+++++++::::::++++++######=======<<<<<<------======7777777++++++",
"......######*******<<<<<<::::::111111+++++++::::::++++++######=======<<<<<<------======7777777++++++",
"......######*******<<<<<<::::::111111+++++++::::::++++++######=======<<<<<<------======7777777++++++",
"444444######0000000######999999qqqqqq&&&&&&&999999rrrrrr......@@@@@@@777777999999++++++&&&&&&&======",
"444444######0000000######999999qqqqqq&&&&&&&999999rrrrrr......@@@@@@@777777999999++++++&&&&&&&======",
"444444######0000000######999999qqqqqq&&&&&&&999999rrrrrr......@@@@@@@777777999999++++++&&&&&&&======",
"444444######0000000######999999qqqqqq&&&&&&&999999rrrrrr......@@@@@@@777777999999++++++&&&&&&&======",
"444444######0000000######999999qqqqqq&&&&&&&999999rrrrrr......@@@@@@@777777999999++++++&&&&&&&======",
"444444######0000000######999999qqqqqq&&&&&&&999999rrrrrr......@@@@@@@777777999999++++++&&&&&&&======",
"111111111111ooooooo777777######>>>>>>>>>>>>>111111$$$$$$>>>>>>&&&&&&&######oooooo&&&&&&=======::::::",
"111111111111ooooooo777775+++###>>>>>>>>>>>>>111111$$$$$$>>>>>>&&&&&&&######oooooo&&&&&&=======::::::",
"111111111111ooooooo777775+++###>>>>>>>>>>>>>111111$$$$$$>>>>>>&&&&&&&######oooooo&&&&&&=======::::::",
"111111111111ooooooo777775@#@##@>>>>>>>>>>>>>111111$$$$$$>>>>>>&&&&&&&######oooooo&&&&&&=======::::::",
"111111111111ooooooo777777#####@>>>>>>>>>>>>>111111$$$$$$>>>>>>&&&&&&&######oooooo&&&&&&=======::::::",
"111111111111ooooooo777777###+++>>>>>>>>>>>>>111111$$$$$$>>>>>>&&&&&&&######oooooo&&&&&&=======::::::",
"++++@@2211115555555::-:::::::::######***==**++++++######$$$$$$eeeeeee999999::::::777777<<<<<<<------",
"++++@@1111115555555:-----::::::######***====++++++######$$$$$$eeeeeee999999::::::777777<<<<<<<------",
"++++++1111115555555:-----::::::######***====++++++######$$$$$$eeeeeee999999::::::777777<<<<<<<------",
"++++++1111127755555::::::::::::######*******++++++######$$$$$$eeeeeee999999::::::777777<<<<<><------",
"++++++2111127755555::::::::::::######*******++++++######$$$$$$eeeeeee999999::::::777777<<<<<>>------",
"++++@+2211117775555:=::=:::::::######*******++++++######$$$$$$eeeeeee999999::::::777777<<<<<<<::----",
"++++++2111117755555:====:::::::######*******++++++######$$$$$$eeeeeee999999::::::777777<<<<<<<::----",
"------$$$$$$2222111=***==-==-=:OooOOO5555555######<<<<<<000000$$$$$$$######------444444+++++++999999",
"------$$$$$$2222111=**===:=====OooOOO5555555######<<<<<<000000$$$$$$$#@####------444444+++++++999999",
"------$$$$$$2211111======:::-::OoooOO5555555######<<<<<<000000$$$$$$$#+@@##------444444+++++++999999",
"------$$$$$$1121111======::::::OooOOO5555555######<<<<<<000000$$$$$$$#+++##------444444+++++++999999",
"----::$$$$$$1111111======::::::OOOOOO5545555######<<<<<<000000$$$$$$$@###@@------444444+++++++999999",
"----::$$$$$$1111111======::::::OoOOOO5555555######<<<<<<000000$$$$$$$@###@@=-----444444+++++++999999",
"777777111111eeeeeee999999999999#@####0000000112211wwwwww999999#######::::::######::::::2222222++++++",
"777777111111eeeeeee999999999999#@@###0000000112211wwwwww999999#######::::::######::::::2222222++++++",
"777777111111eeeeeee999999999999#@####0000000111211eeeeww999999#######::::::######::::::2244422++++++",
"777777111111eeeeeee999999999999######0000000111111eeweww999999#######::::::######::::::2224411++++++",
"777777111111eeeeeee999999999999#@+###0000000111111wewwww999999#######::::::######::::::2222222++++++",
"777777111111eeeeeee999999999999#+@###0000000111111wwwwww999999#######::::::######::::::2222222++++++",
"<<<<<<######eeeeeee============1>>1119999999@@@@@@$$$$$$:::::::::::::799999======wwwwww-------######",
"<<<<<<######eeeeeee============1>>1119999999@@@@@@$$$$$$:::::::::::::797999======wwwwww-------######",
"<<<<<<######eeeeeee====-=======1>11119999999@@@@@@$$$$$$:::::::::::::777999======wwwwww-------######",
"<<<<<<######eeeeeee============1>>1119999999@@@@@@$$$$$$:::::::::::::777999======wwwwww-------##@@##",
"<<<<<<######eeeeeee============1111119999999@@@@@@$$$$$$:::::::::::::999999======wwwwww-------##++++",
"<<<<<<######eeeeeee============1111119999999@@@@@@$$$$$$:::::::::::::999999======wwwwww-------##++@@",
"111111222222<<<<<<<555555######eeeeee=======::::::ttttttoooooo5557555######=-----&&&&&&<<<<<<<:-:---",
"111111222222<<<<<<<555555######eeeeee=======::::::ttttttoooooo5555555######=-----&&&&&&<<<<<>>:::---",
"111111442222<<<<<<<555555######eeeeee=======::::::ttttttoooooo7777777######------&&&&&&<<<<<<<------",
"111111442222<<<<<<<555555######eeeeee=======::::::ttttttoooooo7777777######------&&&&&&<<<<<<<------",
"111111442222<<<<<<<555555######eeeeee=======::::::ttttttoooooo7777777######:-----&&&&&&<<<<<<<------",
"111111442222<<<<<<<555555######eeeeee=======::::::ttttttoooooo7777777######:-----&&&&&&<<<<<<<------",
"111111222222<<<<<<<555555######eeeeee=======::::::ttttttoooooo7777777######------&&&&&&<<<<<<<------",
"######000000$$$$$$$444444<<<<<<######:::::::&&&&&&<<<<<<::::::=======oooooowwwwww+++++++++++++******",
"######000000$$$$$$$444444<<<<<<######:::::::&&&&&&<<<<<<::::::=======oooooowwwwww+++++++++++++******",
"######000000$$$$$$$444454<<<<<<######:::::::&&&&&&<<<<<<::::::=======oooooowwwwww+++++++++++++******",
"######000000$$$$$$$544444<<<<<<######:::::::&&&&&&<<<<<<::::::=======oooooowwwwww+++++++++++++******",
"######000000$#$$$$$544444<<<<<<######:::::::&&&&&&<<<<<<::::::=======oooOoOwwwwww+++++++++++++******",
"######000000####$$$544444<<<<<<######:::::::&&&&&&<<<<<<::::::=======oooOOOwwwwww+++++++++++++******",
"rrrrrr<<<<<<++++###******111111::::::#####$$oooooo******::::::*******++++++444444555555ooooooo<<<<<<",
"rrrrrr<<<<<<##@+###******111111::::::#######oooooo====**::::::*******++++++444444555555ooooooo<<<<<<",
"rrrrrr<<<<<<##@####******111111::::::#######oooooo==****::::::*******++++++444444555555ooooooo<<<<<<",
"rrrrrr<<<<<<####++#******111111::::::#######oooooo*=****::::::*******++++++444444555555ooooooo<<<<<<",
"rrrrrr<<<<<<####+@#******111111::::::#######oooooo******::::::*******++++++444444555555ooooooo<<<<<<",
"rrrrrr<<<<<<####+##******111111::::::#######oooooo******::::::******=++++++444444555555ooooooo<<<<<<",
"++####777777.......::::::++++++111111####@++yyyyyy444444::::::7777779111111444444&&&&&&7779999qqqqqq",
"++####777777.......::::::++++++111111##@##@#yyyyyy444444::::::7777979111111444444&&&&&&7777977qqqqqq",
"++####777777.......::::::++++++111111##@#@##yyyyyy444444::::::7777999111111444444&&&&&&7777977qqqqqq",
"@#####777777.......::::::++++++111111#####++yyyyyy444444::::::7779779111111444444&&&&&&7777777qqqqqq",
"@#####777797.......::::::++++++111111#####++yyyyyy444444::::::7777977111111444444&&&&&&7777777qqqqqq",
"######999997.......::::::++++++111111#####++yyyyyy444444::::::7799979111111444444&&&&&&7777799qqqqqq",
"445444444444tttttttoooooowwwwww999999:::::::::::::++++++>>>:>>>>>>>>>$$$$$$999999111111=======oooooo",
"444555444444tttttttoOOOOowwwwww999999:::::::::::::++++++>>>>>>>>>>>>>$$$$$$999999222111=======oooooo",
"444455444444tttttttoOOOOowwwwww999999:::::::::::::++++++>>>>>>>>>>>>>$$$$$$999999221121=======oooooo",
"444444444444tttttttoOoOOowwwwww999999:::::::::::::++++++>>>>>>>>>>>>>$$$$$$999999211111=======oooooo",
"444444444444tttttttoooOOowwwwww999999:::::::::::::++++++>>>>>>>>>>>>>$$$$$$999999211111=======oooooo",
"444444444444tttttttoOoooowwwwww999999:::::::::::::++++++>>>>>>>>>>>>>$$$$$$977999111111=======oooooo",
"444444444444tttttttoooooowwwwww999999:::::::::::::++++++>>>>>>>>>>>>>$$$$$$977999111111=======oooooo",
"####$$>>>>>>&&&&&&&&&&&&&555555111111:::::::::::::===-==ttttttOOOOOOO999999######::::::&&&&&&&222222",
"####$$>>>>>>&&&&&&&&&&&&&555555111111:::::::::::::======ttttttOOOOOOO999999######::::::&&&&&&&222222",
"#$$$##>>>>>>&&&&&&&&&&&&&555555111111:::::::::::::======ttttttOOOOOOO999999######::::-:&&&&&&&222222",
"##$$##>>>>>>&&&&&&&&&&&&&555555111111:::::::::::::======ttttttOOOOOOO999999######:::=--$&&&&&&222222",
"######>>>>>>&&&&&&&&&&&&&555555111111:::::::::::::======ttttttOOOOOOO999999######:---=-$&&&&&&222222",
"######>>>>>>&&&&&&&&&&&&&555555111111:::::::::::::======ttttttOOOOOOO999999######::----&&&&&&&222222"
};
