/* XPM */
static char *result[] = {
/* columns rows colors chars-per-pixel */
"128 128 6 1 ",
"  c #160F10",
". c #23161F",
"X c #27221C",
"o c #312C36",
"O c #3C3947",
"+ c #4E4B54",
/* pixels */
"oooooooo++++++++++++++++OOOOOOOO++++++++++++++++OOOOOOOO++++++++++++++++OOOOOOOO++++++++++++++++OOOOOOOOOOOOOOOOoooooooo........",
"oooooooo++++++++++++++++OOOOOOOO++++++++++++++++OOOOOOOO++++++++++++++++OOOOOOOO++++++++++++++++OOOOOOOOOOOOOOOOoooooooo........",
"oooooooo++++++++++++++++OOOOOOOO++++++++++++++++OOOOOOOO++++++++++++++++OOOOOOOO++++++++++++++++OOOOOOOOOOOOOOOOoooooooo........",
"oooooooo++++++++++++++++OOOOOOOO++++++++++++++++OOOOOOOO++++++++++++++++OOOOOOOO++++++++++++++++OOOOOOOOOOOOOOOOoooooooo........",
"oooooooo++++++++++++++++OOOOOOOO++++++++++++++++OOOOOOOO++++++++++++++++OOOOOOOO++++++++++++++++OOOOOOOOOOOOOOOOoooooooo........",
"oooooooo++++++++++++++++OOOOOOOO++++++++++++++++OOOOOOOO++++++++++++++++OOOOOOOO++++++++++++++++OOOOOOOOOOOOOOOOoooooooo........",
"oooooooo++++++++++++++++OOOOOOOO++++++++++++++++OOOOOOOO++++++++++++++++OOOOOOOO++++++++++++++++OOOOOOOOOOOOOOOOoooooooo........",
"oooooooo++++++++++++++++OOOOOOOO++++++++++++++++OOOOOOOO++++++++++++++++OOOOOOOO++++++++++++++++OOOOOOOOOOOOOOOOoooooooo........",
"ooooooooOOOOOOOOooooooooOOOOOOOOoooooooo++++++++OOOOOOOOOOOOOOOOooooooooXXXXXXXXXXXXXXXXooooooooooooooooooooooooOOOOOOOO........",
"ooooooooOOOOOOOOooooooooOOOOOOOOoooooooo++++++++OOOOOOOOOOOOOOOOooooooooXXXXXXXXXXXXXXXXooooooooooooooooooooooooOOOOOOOO........",
"ooooooooOOOOOOOOooooooooOOOOOOOOoooooooo++++++++OOOOOOOOOOOOOOOOooooooooXXXXXXXXXXXXXXXXooooooooooooooooooooooooOOOOOOOO........",
"ooooooooOOOOOOOOooooooooOOOOOOOOoooooooo++++++++OOOOOOOOOOOOOOOOooooooooXXXXXXXXXXXXXXXXooooooooooooooooooooooooOOOOOOOO........",
"ooooooooOOOOOOOOooooooooOOOOOOOOoooooooo++++++++OOOOOOOOOOOOOOOOooooooooXXXXXXXXXXXXXXXXooooooooooooooooooooooooOOOOOOOO........",
"ooooooooOOOOOOOOooooooooOOOOOOOOoooooooo++++++++OOOOOOOOOOOOOOOOooooooooXXXXXXXXXXXXXXXXooooooooooooooooooooooooOOOOOOOO........",
"ooooooooOOOOOOOOooooooooOOOOOOOOoooooooo++++++++OOOOOOOOOOOOOOOOooooooooXXXXXXXXXXXXXXXXooooooooooooooooooooooooOOOOOOOO........",
"ooooooooOOOOOOOOooooooooOOOOOOOOoooooooo++++++++OOOOOOOOOOOOOOOOooooooooXXXXXXXXXXXXXXXXooooooooooooooooooooooooOOOOOOOO........",
"ooooooooOOOOOOOO++++++++OOOOOOOOOOOOOOOOOOOOOOOOXXXXXXXXooooooooXXXXXXXXXXXXXXXXooooooooOOOOOOOOOOOOOOOOOOOOOOOOOOOOOOOO        ",
"ooooooooOOOOOOOO++++++++OOOOOOOOOOOOOOOOOOOOOOOOXXXXXXXXooooooooXXXXXXXXXXXXXXXXooooooooOOOOOOOOOOOOOOOOOOOOOOOOOOOOOOOO        ",
"ooooooooOOOOOOOO++++++++OOOOOOOOOOOOOOOOOOOOOOOOXXXXXXXXooooooooXXXXXXXXXXXXXXXXooooooooOOOOOOOOOOOOOOOOOOOOOOOOOOOOOOOO        ",
"ooooooooOOOOOOOO++++++++OOOOOOOOOOOOOOOOOOOOOOOOXXXXXXXXooooooooXXXXXXXXXXXXXXXXooooooooOOOOOOOOOOOOOOOOOOOOOOOOOOOOOOOO        ",
"ooooooooOOOOOOOO++++++++OOOOOOOOOOOOOOOOOOOOOOOOXXXXXXXXooooooooXXXXXXXXXXXXXXXXooooooooOOOOOOOOOOOOOOOOOOOOOOOOOOOOOOOO        ",
"ooooooooOOOOOOOO++++++++OOOOOOOOOOOOOOOOOOOOOOOOXXXXXXXXooooooooXXXXXXXXXXXXXXXXooooooooOOOOOOOOOOOOOOOOOOOOOOOOOOOOOOOO        ",
"ooooooooOOOOOOOO++++++++OOOOOOOOOOOOOOOOOOOOOOOOXXXXXXXXooooooooXXXXXXXXXXXXXXXXooooooooOOOOOOOOOOOOOOOOOOOOOOOOOOOOOOOO        ",
"ooooooooOOOOOOOO++++++++OOOOOOOOOOOOOOOOOOOOOOOOXXXXXXXXooooooooXXXXXXXXXXXXXXXXooooooooOOOOOOOOOOOOOOOOOOOOOOOOOOOOOOOO        ",
"OOOOOOOOooooooooOOOOOOOOooooooooOOOOOOOOooooooooOOOOOOOOOOOOOOOOOOOOOOOOooooooooOOOOOOOOooooooooOOOOOOOOXXXXXXXXoooooooo        ",
"OOOOOOOOooooooooOOOOOOOOooooooooOOOOOOOOooooooooOOOOOOOOOOOOOOOOOOOOOOOOooooooooOOOOOOOOooooooooOOOOOOOOXXXXXXXXoooooooo        ",
"OOOOOOOOooooooooOOOOOOOOooooooooOOOOOOOOooooooooOOOOOOOOOOOOOOOOOOOOOOOOooooooooOOOOOOOOooooooooOOOOOOOOXXXXXXXXoooooooo        ",
"OOOOOOOOooooooooOOOOOOOOooooooooOOOOOOOOooooooooOOOOOOOOOOOOOOOOOOOOOOOOooooooooOOOOOOOOooooooooOOOOOOOOXXXXXXXXoooooooo        ",
"OOOOOOOOooooooooOOOOOOOOooooooooOOOOOOOOooooooooOOOOOOOOOOOOOOOOOOOOOOOOooooooooOOOOOOOOooooooooOOOOOOOOXXXXXXXXoooooooo        ",
"OOOOOOOOooooooooOOOOOOOOooooooooOOOOOOOOooooooooOOOOOOOOOOOOOOOOOOOOOOOOooooooooOOOOOOOOooooooooOOOOOOOOXXXXXXXXoooooooo        ",
"OOOOOOOOooooooooOOOOOOOOooooooooOOOOOOOOooooooooOOOOOOOOOOOOOOOOOOOOOOOOooooooooOOOOOOOOooooooooOOOOOOOOXXXXXXXXoooooooo        ",
"OOOOOOOOooooooooOOOOOOOOooooooooOOOOOOOOooooooooOOOOOOOOOOOOOOOOOOOOOOOOooooooooOOOOOOOOooooooooOOOOOOOOXXXXXXXXoooooooo        ",
"OOOOOOOOXXXXXXXXXXXXXXXXooooooooooooooooooooooooOOOOOOOOXXXXXXXXOOOOOOOOXXXXXXXXOOOOOOOOOOOOOOOOOOOOOOOOoooooooooooooooo        ",
"OOOOOOOOXXXXXXXXXXXXXXXXooooooooooooooooooooooooOOOOOOOOXXXXXXXXOOOOOOOOXXXXXXXXOOOOOOOOOOOOOOOOOOOOOOOOoooooooooooooooo        ",
"OOOOOOOOXXXXXXXXXXXXXXXXooooooooooooooooooooooooOOOOOOOOXXXXXXXXOOOOOOOOXXXXXXXXOOOOOOOOOOOOOOOOOOOOOOOOoooooooooooooooo        ",
"OOOOOOOOXXXXXXXXXXXXXXXXooooooooooooooooooooooooOOOOOOOOXXXXXXXXOOOOOOOOXXXXXXXXOOOOOOOOOOOOOOOOOOOOOOOOoooooooooooooooo        ",
"OOOOOOOOXXXXXXXXXXXXXXXXooooooooooooooooooooooooOOOOOOOOXXXXXXXXOOOOOOOOXXXXXXXXOOOOOOOOOOOOOOOOOOOOOOOOoooooooooooooooo        ",
"OOOOOOOOXXXXXXXXXXXXXXXXooooooooooooooooooooooooOOOOOOOOXXXXXXXXOOOOOOOOXXXXXXXXOOOOOOOOOOOOOOOOOOOOOOOOoooooooooooooooo        ",
"OOOOOOOOXXXXXXXXXXXXXXXXooooooooooooooooooooooooOOOOOOOOXXXXXXXXOOOOOOOOXXXXXXXXOOOOOOOOOOOOOOOOOOOOOOOOoooooooooooooooo        ",
"OOOOOOOOXXXXXXXXXXXXXXXXooooooooooooooooooooooooOOOOOOOOXXXXXXXXOOOOOOOOXXXXXXXXOOOOOOOOOOOOOOOOOOOOOOOOoooooooooooooooo        ",
"XXXXXXXXXXXXXXXXooooooooooooooooXXXXXXXXXXXXXXXXXXXXXXXXooooooooooooooooXXXXXXXXXXXXXXXXooooooooXXXXXXXXooooooooXXXXXXXX........",
"XXXXXXXXXXXXXXXXooooooooooooooooXXXXXXXXXXXXXXXXXXXXXXXXooooooooooooooooXXXXXXXXXXXXXXXXooooooooXXXXXXXXooooooooXXXXXXXX........",
"XXXXXXXXXXXXXXXXooooooooooooooooXXXXXXXXXXXXXXXXXXXXXXXXooooooooooooooooXXXXXXXXXXXXXXXXooooooooXXXXXXXXooooooooXXXXXXXX........",
"XXXXXXXXXXXXXXXXooooooooooooooooXXXXXXXXXXXXXXXXXXXXXXXXooooooooooooooooXXXXXXXXXXXXXXXXooooooooXXXXXXXXooooooooXXXXXXXX........",
"XXXXXXXXXXXXXXXXooooooooooooooooXXXXXXXXXXXXXXXXXXXXXXXXooooooooooooooooXXXXXXXXXXXXXXXXooooooooXXXXXXXXooooooooXXXXXXXX........",
"XXXXXXXXXXXXXXXXooooooooooooooooXXXXXXXXXXXXXXXXXXXXXXXXooooooooooooooooXXXXXXXXXXXXXXXXooooooooXXXXXXXXooooooooXXXXXXXX........",
"XXXXXXXXXXXXXXXXooooooooooooooooXXXXXXXXXXXXXXXXXXXXXXXXooooooooooooooooXXXXXXXXXXXXXXXXooooooooXXXXXXXXooooooooXXXXXXXX........",
"XXXXXXXXXXXXXXXXooooooooooooooooXXXXXXXXXXXXXXXXXXXXXXXXooooooooooooooooXXXXXXXXXXXXXXXXooooooooXXXXXXXXooooooooXXXXXXXX........",
"XXXXXXXX................XXXXXXXXXXXXXXXX........XXXXXXXXooooooooXXXXXXXX........XXXXXXXXXXXXXXXX........XXXXXXXX........        ",
"XXXXXXXX................XXXXXXXXXXXXXXXX........XXXXXXXXooooooooXXXXXXXX........XXXXXXXXXXXXXXXX........XXXXXXXX........        ",
"XXXXXXXX................XXXXXXXXXXXXXXXX........XXXXXXXXooooooooXXXXXXXX........XXXXXXXXXXXXXXXX........XXXXXXXX........        ",
"XXXXXXXX................XXXXXXXXXXXXXXXX........XXXXXXXXooooooooXXXXXXXX........XXXXXXXXXXXXXXXX........XXXXXXXX........        ",
"XXXXXXXX................XXXXXXXXXXXXXXXX........XXXXXXXXooooooooXXXXXXXX........XXXXXXXXXXXXXXXX........XXXXXXXX........        ",
"XXXXXXXX................XXXXXXXXXXXXXXXX........XXXXXXXXooooooooXXXXXXXX........XXXXXXXXXXXXXXXX........XXXXXXXX........        ",
"XXXXXXXX................XXXXXXXXXXXXXXXX........XXXXXXXXooooooooXXXXXXXX........XXXXXXXXXXXXXXXX........XXXXXXXX........        ",
"XXXXXXXX................XXXXXXXXXXXXXXXX........XXXXXXXXooooooooXXXXXXXX........XXXXXXXXXXXXXXXX........XXXXXXXX........        ",
"................                ................................................                ................                ",
"................                ................................................                ................                ",
"................                ................................................                ................                ",
"................                ................................................                ................                ",
"................                ................................................                ................                ",
"................                ................................................                ................                ",
"................                ................................................                ................                ",
"................                ................................................                ................                ",
"++++++++OOOOOOOO++++++++++++++++OOOOOOOOOOOOOOOOOOOOOOOO........XXXXXXXXooooooooOOOOOOOO++++++++++++++++++++++++OOOOOOOO++++++++",
"++++++++OOOOOOOO++++++++++++++++OOOOOOOOOOOOOOOOOOOOOOOO........XXXXXXXXooooooooOOOOOOOO++++++++++++++++++++++++OOOOOOOO++++++++",
"++++++++OOOOOOOO++++++++++++++++OOOOOOOOOOOOOOOOOOOOOOOO........XXXXXXXXooooooooOOOOOOOO++++++++++++++++++++++++OOOOOOOO++++++++",
"++++++++OOOOOOOO++++++++++++++++OOOOOOOOOOOOOOOOOOOOOOOO........XXXXXXXXooooooooOOOOOOOO++++++++++++++++++++++++OOOOOOOO++++++++",
"++++++++OOOOOOOO++++++++++++++++OOOOOOOOOOOOOOOOOOOOOOOO........XXXXXXXXooooooooOOOOOOOO++++++++++++++++++++++++OOOOOOOO++++++++",
"++++++++OOOOOOOO++++++++++++++++OOOOOOOOOOOOOOOOOOOOOOOO........XXXXXXXXooooooooOOOOOOOO++++++++++++++++++++++++OOOOOOOO++++++++",
"++++++++OOOOOOOO++++++++++++++++OOOOOOOOOOOOOOOOOOOOOOOO........XXXXXXXXooooooooOOOOOOOO++++++++++++++++++++++++OOOOOOOO++++++++",
"++++++++OOOOOOOO++++++++++++++++OOOOOOOOOOOOOOOOOOOOOOOO........XXXXXXXXooooooooOOOOOOOO++++++++++++++++++++++++OOOOOOOO++++++++",
"ooooooooXXXXXXXXOOOOOOOOooooooooOOOOOOOOooooooooOOOOOOOO........XXXXXXXXOOOOOOOOooooooooOOOOOOOOOOOOOOOO++++++++OOOOOOOOoooooooo",
"ooooooooXXXXXXXXOOOOOOOOooooooooOOOOOOOOooooooooOOOOOOOO........XXXXXXXXOOOOOOOOooooooooOOOOOOOOOOOOOOOO++++++++OOOOOOOOoooooooo",
"ooooooooXXXXXXXXOOOOOOOOooooooooOOOOOOOOooooooooOOOOOOOO........XXXXXXXXOOOOOOOOooooooooOOOOOOOOOOOOOOOO++++++++OOOOOOOOoooooooo",
"ooooooooXXXXXXXXOOOOOOOOooooooooOOOOOOOOooooooooOOOOOOOO........XXXXXXXXOOOOOOOOooooooooOOOOOOOOOOOOOOOO++++++++OOOOOOOOoooooooo",
"ooooooooXXXXXXXXOOOOOOOOooooooooOOOOOOOOooooooooOOOOOOOO........XXXXXXXXOOOOOOOOooooooooOOOOOOOOOOOOOOOO++++++++OOOOOOOOoooooooo",
"ooooooooXXXXXXXXOOOOOOOOooooooooOOOOOOOOooooooooOOOOOOOO........XXXXXXXXOOOOOOOOooooooooOOOOOOOOOOOOOOOO++++++++OOOOOOOOoooooooo",
"ooooooooXXXXXXXXOOOOOOOOooooooooOOOOOOOOooooooooOOOOOOOO........XXXXXXXXOOOOOOOOooooooooOOOOOOOOOOOOOOOO++++++++OOOOOOOOoooooooo",
"ooooooooXXXXXXXXOOOOOOOOooooooooOOOOOOOOooooooooOOOOOOOO........XXXXXXXXOOOOOOOOooooooooOOOOOOOOOOOOOOOO++++++++OOOOOOOOoooooooo",
"XXXXXXXXooooooooOOOOOOOO++++++++OOOOOOOOOOOOOOOOOOOOOOOO        ooooooooOOOOOOOOOOOOOOOO++++++++OOOOOOOOOOOOOOOOoooooooooooooooo",
"XXXXXXXXooooooooOOOOOOOO++++++++OOOOOOOOOOOOOOOOOOOOOOOO        ooooooooOOOOOOOOOOOOOOOO++++++++OOOOOOOOOOOOOOOOoooooooooooooooo",
"XXXXXXXXooooooooOOOOOOOO++++++++OOOOOOOOOOOOOOOOOOOOOOOO        ooooooooOOOOOOOOOOOOOOOO++++++++OOOOOOOOOOOOOOOOoooooooooooooooo",
"XXXXXXXXooooooooOOOOOOOO++++++++OOOOOOOOOOOOOOOOOOOOOOOO        ooooooooOOOOOOOOOOOOOOOO++++++++OOOOOOOOOOOOOOOOoooooooooooooooo",
"XXXXXXXXooooooooOOOOOOOO++++++++OOOOOOOOOOOOOOOOOOOOOOOO        ooooooooOOOOOOOOOOOOOOOO++++++++OOOOOOOOOOOOOOOOoooooooooooooooo",
"XXXXXXXXooooooooOOOOOOOO++++++++OOOOOOOOOOOOOOOOOOOOOOOO        ooooooooOOOOOOOOOOOOOOOO++++++++OOOOOOOOOOOOOOOOoooooooooooooooo",
"XXXXXXXXooooooooOOOOOOOO++++++++OOOOOOOOOOOOOOOOOOOOOOOO        ooooooooOOOOOOOOOOOOOOOO++++++++OOOOOOOOOOOOOOOOoooooooooooooooo",
"XXXXXXXXooooooooOOOOOOOO++++++++OOOOOOOOOOOOOOOOOOOOOOOO        ooooooooOOOOOOOOOOOOOOOO++++++++OOOOOOOOOOOOOOOOoooooooooooooooo",
"OOOOOOOOOOOOOOOOooooooooOOOOOOOOooooooooOOOOOOOOoooooooo        ++++++++++++++++ooooooooOOOOOOOOOOOOOOOOooooooooOOOOOOOOOOOOOOOO",
"OOOOOOOOOOOOOOOOooooooooOOOOOOOOooooooooOOOOOOOOoooooooo        ++++++++++++++++ooooooooOOOOOOOOOOOOOOOOooooooooOOOOOOOOOOOOOOOO",
"OOOOOOOOOOOOOOOOooooooooOOOOOOOOooooooooOOOOOOOOoooooooo        ++++++++++++++++ooooooooOOOOOOOOOOOOOOOOooooooooOOOOOOOOOOOOOOOO",
"OOOOOOOOOOOOOOOOooooooooOOOOOOOOooooooooOOOOOOOOoooooooo        ++++++++++++++++ooooooooOOOOOOOOOOOOOOOOooooooooOOOOOOOOOOOOOOOO",
"OOOOOOOOOOOOOOOOooooooooOOOOOOOOooooooooOOOOOOOOoooooooo        ++++++++++++++++ooooooooOOOOOOOOOOOOOOOOooooooooOOOOOOOOOOOOOOOO",
"OOOOOOOOOOOOOOOOooooooooOOOOOOOOooooooooOOOOOOOOoooooooo        ++++++++++++++++ooooooooOOOOOOOOOOOOOOOOooooooooOOOOOOOOOOOOOOOO",
"OOOOOOOOOOOOOOOOooooooooOOOOOOOOooooooooOOOOOOOOoooooooo        ++++++++++++++++ooooooooOOOOOOOOOOOOOOOOooooooooOOOOOOOOOOOOOOOO",
"OOOOOOOOOOOOOOOOooooooooOOOOOOOOooooooooOOOOOOOOoooooooo        ++++++++++++++++ooooooooOOOOOOOOOOOOOOOOooooooooOOOOOOOOOOOOOOOO",
"OOOOOOOOooooooooooooooooooooooooXXXXXXXXoooooooooooooooo        OOOOOOOO++++++++OOOOOOOOooooooooooooooooXXXXXXXXOOOOOOOOoooooooo",
"OOOOOOOOooooooooooooooooooooooooXXXXXXXXoooooooooooooooo        OOOOOOOO++++++++OOOOOOOOooooooooooooooooXXXXXXXXOOOOOOOOoooooooo",
"OOOOOOOOooooooooooooooooooooooooXXXXXXXXoooooooooooooooo        OOOOOOOO++++++++OOOOOOOOooooooooooooooooXXXXXXXXOOOOOOOOoooooooo",
"OOOOOOOOooooooooooooooooooooooooXXXXXXXXoooooooooooooooo        OOOOOOOO++++++++OOOOOOOOooooooooooooooooXXXXXXXXOOOOOOOOoooooooo",
"OOOOOOOOooooooooooooooooooooooooXXXXXXXXoooooooooooooooo        OOOOOOOO++++++++OOOOOOOOooooooooooooooooXXXXXXXXOOOOOOOOoooooooo",
"OOOOOOOOooooooooooooooooooooooooXXXXXXXXoooooooooooooooo        OOOOOOOO++++++++OOOOOOOOooooooooooooooooXXXXXXXXOOOOOOOOoooooooo",
"OOOOOOOOooooooooooooooooooooooooXXXXXXXXoooooooooooooooo        OOOOOOOO++++++++OOOOOOOOooooooooooooooooXXXXXXXXOOOOOOOOoooooooo",
"OOOOOOOOooooooooooooooooooooooooXXXXXXXXoooooooooooooooo        OOOOOOOO++++++++OOOOOOOOooooooooooooooooXXXXXXXXOOOOOOOOoooooooo",
"ooooooooooooooooXXXXXXXXXXXXXXXXXXXXXXXXooooooooXXXXXXXX........OOOOOOOOOOOOOOOOooooooooooooooooXXXXXXXX........XXXXXXXXoooooooo",
"ooooooooooooooooXXXXXXXXXXXXXXXXXXXXXXXXooooooooXXXXXXXX........OOOOOOOOOOOOOOOOooooooooooooooooXXXXXXXX........XXXXXXXXoooooooo",
"ooooooooooooooooXXXXXXXXXXXXXXXXXXXXXXXXooooooooXXXXXXXX........OOOOOOOOOOOOOOOOooooooooooooooooXXXXXXXX........XXXXXXXXoooooooo",
"ooooooooooooooooXXXXXXXXXXXXXXXXXXXXXXXXooooooooXXXXXXXX........OOOOOOOOOOOOOOOOooooooooooooooooXXXXXXXX........XXXXXXXXoooooooo",
"ooooooooooooooooXXXXXXXXXXXXXXXXXXXXXXXXooooooooXXXXXXXX........OOOOOOOOOOOOOOOOooooooooooooooooXXXXXXXX........XXXXXXXXoooooooo",
"ooooooooooooooooXXXXXXXXXXXXXXXXXXXXXXXXooooooooXXXXXXXX........OOOOOOOOOOOOOOOOooooooooooooooooXXXXXXXX........XXXXXXXXoooooooo",
"ooooooooooooooooXXXXXXXXXXXXXXXXXXXXXXXXooooooooXXXXXXXX........OOOOOOOOOOOOOOOOooooooooooooooooXXXXXXXX........XXXXXXXXoooooooo",
"ooooooooooooooooXXXXXXXXXXXXXXXXXXXXXXXXooooooooXXXXXXXX........OOOOOOOOOOOOOOOOooooooooooooooooXXXXXXXX........XXXXXXXXoooooooo",
"XXXXXXXX........XXXXXXXX........................................XXXXXXXX................................XXXXXXXXXXXXXXXXXXXXXXXX",
"XXXXXXXX........XXXXXXXX........................................XXXXXXXX................................XXXXXXXXXXXXXXXXXXXXXXXX",
"XXXXXXXX........XXXXXXXX........................................XXXXXXXX................................XXXXXXXXXXXXXXXXXXXXXXXX",
"XXXXXXXX........XXXXXXXX........................................XXXXXXXX................................XXXXXXXXXXXXXXXXXXXXXXXX",
"XXXXXXXX........XXXXXXXX........................................XXXXXXXX................................XXXXXXXXXXXXXXXXXXXXXXXX",
"XXXXXXXX........XXXXXXXX........................................XXXXXXXX................................XXXXXXXXXXXXXXXXXXXXXXXX",
"XXXXXXXX........XXXXXXXX........................................XXXXXXXX................................XXXXXXXXXXXXXXXXXXXXXXXX",
"XXXXXXXX........XXXXXXXX........................................XXXXXXXX................................XXXXXXXXXXXXXXXXXXXXXXXX",
"........        ........                        ........................                                ........................",
"........        ........                        ........................                                ........................",
"........        ........                        ........................                                ........................",
"........        ........                        ........................                                ........................",
"........        ........                        ........................                                ........................",
"........        ........                        ........................                                ........................",
"........        ........                        ........................                                ........................",
"........        ........                        ........................                                ........................"
};
