/* XPM */
static char *_3042f975e084459c769ee5d1627f3f7TJv5aIy3DDa1qxAy[] = {
/* columns rows colors chars-per-pixel */
"100 100 9 1 ",
"  c black",
". c #5E4841",
"X c #695146",
"o c #7E5D48",
"O c #8C674F",
"+ c #957150",
"@ c #9D785C",
"# c #AB8661",
"$ c #AE8F71",
/* pixels */
"......++++++@@@@@@@##################@@@@@@@++++++......++++++@@@@@@@##################@@@@@@@++++++",
"......++++++@@@@@@@##################@@@@@@@++++++......++++++@@@@@@@##################@@@@@@@++++++",
"......++++++@@@@@@@##################@@@@@@@++++++......++++++@@@@@@@##################@@@@@@@++++++",
"......++++++@@@@@@@##################@@@@@@@++++++......++++++@@@@@@@##################@@@@@@@++++++",
"......++++++@@@@@@@##################@@@@@@@++++++......++++++@@@@@@@##################@@@@@@@++++++",
"......++++++@@@@@@@##################@@@@@@@++++++......++++++@@@@@@@##################@@@@@@@++++++",
"XXXXXX@@@@@@+++++++@@@@@@@@@@@@+++++++++++++++++++XXXXXX@@@@@@+++++++@@@@@@+++++++++++++++++++OOOOOO",
"XXXXXX@@@@@@+++++++@@@@@@@@@@@@+++++++++++++++++++XXXXXX@@@@@@+++++++@@@@@@+++++++++++++++++++OOOOOO",
"XXXXXX@@@@@@+++++++@@@@@@@@@@@@+++++++++++++++++++XXXXXX@@@@@@+++++++@@@@@@+++++++++++++++++++OOOOOO",
"XXXXXX@@@@@@+++++++@@@@@@@@@@@@+++++++++++++++++++XXXXXX@@@@@@+++++++@@@@@@+++++++++++++++++++OOOOOO",
"XXXXXX@@@@@@+++++++@@@@@@@@@@@@+++++++++++++++++++XXXXXX@@@@@@+++++++@@@@@@+++++++++++++++++++OOOOOO",
"XXXXXX@@@@@@+++++++@@@@@@@@@@@@+++++++++++++++++++XXXXXX@@@@@@+++++++@@@@@@+++++++++++++++++++OOOOOO",
"oooooo++++++#######@@@@@@++++++OOOOOO@@@@@@@++++++oooooo+++++++++++++@@@@@@@@@@@@++++++OOOOOOO++++++",
"oooooo++++++#######@@@@@@++++++OOOOOO@@@@@@@++++++oooooo+++++++++++++@@@@@@@@@@@@++++++OOOOOOO++++++",
"oooooo++++++#######@@@@@@++++++OOOOOO@@@@@@@++++++oooooo+++++++++++++@@@@@@@@@@@@++++++OOOOOOO++++++",
"oooooo++++++#######@@@@@@++++++OOOOOO@@@@@@@++++++oooooo+++++++++++++@@@@@@@@@@@@++++++OOOOOOO++++++",
"oooooo++++++#######@@@@@@++++++OOOOOO@@@@@@@++++++oooooo+++++++++++++@@@@@@@@@@@@++++++OOOOOOO++++++",
"oooooo++++++#######@@@@@@++++++OOOOOO@@@@@@@++++++oooooo+++++++++++++@@@@@@@@@@@@++++++OOOOOOO++++++",
"oooooo++++++#######@@@@@@++++++OOOOOO@@@@@@@++++++oooooo+++++++++++++@@@@@@@@@@@@++++++OOOOOOO++++++",
"oooooo++++++@@@@@@@++++++@@@@@@+++++++++++++OOOOOOoooooo++++++OOOOOOO++++++++++++@@@@@@+++++++++++++",
"oooooo++++++@@@@@@@++++++@@@@@@+++++++++++++OOOOOOoooooo++++++OOOOOOO++++++++++++@@@@@@+++++++++++++",
"oooooo++++++@@@@@@@++++++@@@@@@+++++++++++++OOOOOOoooooo++++++OOOOOOO++++++++++++@@@@@@+++++++++++++",
"oooooo++++++@@@@@@@++++++@@@@@@+++++++++++++OOOOOOoooooo++++++OOOOOOO++++++++++++@@@@@@+++++++++++++",
"oooooo++++++@@@@@@@++++++@@@@@@+++++++++++++OOOOOOoooooo++++++OOOOOOO++++++++++++@@@@@@+++++++++++++",
"oooooo++++++@@@@@@@++++++@@@@@@+++++++++++++OOOOOOoooooo++++++OOOOOOO++++++++++++@@@@@@+++++++++++++",
"oooooo+++++++++++++OOOOOO++++++++++++OOOOOOOOOOOOOoooooo+++++++++++++++++++@@@@@@OOOOOO+++++++OOOOOO",
"oooooo+++++++++++++OOOOOO++++++++++++OOOOOOOOOOOOOoooooo+++++++++++++++++++@@@@@@OOOOOO+++++++OOOOOO",
"oooooo+++++++++++++OOOOOO++++++++++++OOOOOOOOOOOOOoooooo+++++++++++++++++++@@@@@@OOOOOO+++++++OOOOOO",
"oooooo+++++++++++++OOOOOO++++++++++++OOOOOOOOOOOOOoooooo+++++++++++++++++++@@@@@@OOOOOO+++++++OOOOOO",
"oooooo+++++++++++++OOOOOO++++++++++++OOOOOOOOOOOOOoooooo+++++++++++++++++++@@@@@@OOOOOO+++++++OOOOOO",
"oooooo+++++++++++++OOOOOO++++++++++++OOOOOOOOOOOOOoooooo+++++++++++++++++++@@@@@@OOOOOO+++++++OOOOOO",
"ooooooOOOOOOOOOOOOO++++++OOOOOOooooooOOOOOOOooooooXXXXXXOOOOOOOOOOOOO@@@@@@++++++++++++OOOOOOOoooooo",
"ooooooOOOOOOOOOOOOO++++++OOOOOOooooooOOOOOOOooooooXXXXXXOOOOOOOOOOOOO@@@@@@++++++++++++OOOOOOOoooooo",
"ooooooOOOOOOOOOOOOO++++++OOOOOOooooooOOOOOOOooooooXXXXXXOOOOOOOOOOOOO@@@@@@++++++++++++OOOOOOOoooooo",
"ooooooOOOOOOOOOOOOO++++++OOOOOOooooooOOOOOOOooooooXXXXXXOOOOOOOOOOOOO@@@@@@++++++++++++OOOOOOOoooooo",
"ooooooOOOOOOOOOOOOO++++++OOOOOOooooooOOOOOOOooooooXXXXXXOOOOOOOOOOOOO@@@@@@++++++++++++OOOOOOOoooooo",
"ooooooOOOOOOOOOOOOO++++++OOOOOOooooooOOOOOOOooooooXXXXXXOOOOOOOOOOOOO@@@@@@++++++++++++OOOOOOOoooooo",
"XXXXXXooooooooooooooooooooooooooooooooooooooXXXXXX......oooooooooooooooooooooooooooooooooooooooooooo",
"XXXXXXooooooooooooooooooooooooooooooooooooooXXXXXX......oooooooooooooooooooooooooooooooooooooooooooo",
"XXXXXXooooooooooooooooooooooooooooooooooooooXXXXXX......oooooooooooooooooooooooooooooooooooooooooooo",
"XXXXXXooooooooooooooooooooooooooooooooooooooXXXXXX......oooooooooooooooooooooooooooooooooooooooooooo",
"XXXXXXooooooooooooooooooooooooooooooooooooooXXXXXX......oooooooooooooooooooooooooooooooooooooooooooo",
"XXXXXXooooooooooooooooooooooooooooooooooooooXXXXXX......oooooooooooooooooooooooooooooooooooooooooooo",
"XXXXXXooooooooooooooooooooooooooooooooooooooXXXXXX......oooooooooooooooooooooooooooooooooooooooooooo",
"...................XXXXXX......XXXXXXXXXXXXX..................XXXXXXXXXXXXX............XXXXXXX......",
"...................XXXXXX......XXXXXXXXXXXXX..................XXXXXXXXXXXXX............XXXXXXX......",
"...................XXXXXX......XXXXXXXXXXXXX..................XXXXXXXXXXXXX............XXXXXXX......",
"...................XXXXXX......XXXXXXXXXXXXX..................XXXXXXXXXXXXX............XXXXXXX......",
"...................XXXXXX......XXXXXXXXXXXXX..................XXXXXXXXXXXXX............XXXXXXX......",
"...................XXXXXX......XXXXXXXXXXXXX..................XXXXXXXXXXXXX............XXXXXXX......",
"############@@@@@@@OOOOOO......++++++@@@@@@@##################@@@@@@@++++++XXXXXX++++++@@@@@@@######",
"############@@@@@@@OOOOOO......++++++@@@@@@@##################@@@@@@@++++++XXXXXX++++++@@@@@@@######",
"############@@@@@@@OOOOOO......++++++@@@@@@@##################@@@@@@@++++++XXXXXX++++++@@@@@@@######",
"############@@@@@@@OOOOOO......++++++@@@@@@@##################@@@@@@@++++++XXXXXX++++++@@@@@@@######",
"############@@@@@@@OOOOOO......++++++@@@@@@@##################@@@@@@@++++++XXXXXX++++++@@@@@@@######",
"############@@@@@@@OOOOOO......++++++@@@@@@@##################@@@@@@@++++++XXXXXX++++++@@@@@@@######",
"@@@@@@++++++OOOOOOO++++++XXXXXX@@@@@@+++++++@@@@@@@@@@@@@@@@@@@@@@@@@++++++oooooo@@@@@@@@@@@@@++++++",
"@@@@@@++++++OOOOOOO++++++XXXXXX@@@@@@+++++++@@@@@@@@@@@@@@@@@@@@@@@@@++++++oooooo@@@@@@@@@@@@@++++++",
"@@@@@@++++++OOOOOOO++++++XXXXXX@@@@@@+++++++@@@@@@@@@@@@@@@@@@@@@@@@@++++++oooooo@@@@@@@@@@@@@++++++",
"@@@@@@++++++OOOOOOO++++++XXXXXX@@@@@@+++++++@@@@@@@@@@@@@@@@@@@@@@@@@++++++oooooo@@@@@@@@@@@@@++++++",
"@@@@@@++++++OOOOOOO++++++XXXXXX@@@@@@+++++++@@@@@@@@@@@@@@@@@@@@@@@@@++++++oooooo@@@@@@@@@@@@@++++++",
"@@@@@@++++++OOOOOOO++++++XXXXXX@@@@@@+++++++@@@@@@@@@@@@@@@@@@@@@@@@@++++++oooooo@@@@@@@@@@@@@++++++",
"++++++@@@@@@@@@@@@@++++++oooooo+++++++++++++++++++@@@@@@++++++OOOOOOO++++++oooooo++++++#######@@@@@@",
"++++++@@@@@@@@@@@@@++++++oooooo+++++++++++++++++++@@@@@@++++++OOOOOOO++++++oooooo++++++#######@@@@@@",
"++++++@@@@@@@@@@@@@++++++oooooo+++++++++++++++++++@@@@@@++++++OOOOOOO++++++oooooo++++++#######@@@@@@",
"++++++@@@@@@@@@@@@@++++++oooooo+++++++++++++++++++@@@@@@++++++OOOOOOO++++++oooooo++++++#######@@@@@@",
"++++++@@@@@@@@@@@@@++++++oooooo+++++++++++++++++++@@@@@@++++++OOOOOOO++++++oooooo++++++#######@@@@@@",
"++++++@@@@@@@@@@@@@++++++oooooo+++++++++++++++++++@@@@@@++++++OOOOOOO++++++oooooo++++++#######@@@@@@",
"++++++@@@@@@@@@@@@@++++++oooooo+++++++++++++++++++@@@@@@++++++OOOOOOO++++++oooooo++++++#######@@@@@@",
"@@@@@@@@@@@@+++++++OOOOOOoooooo@@@@@@OOOOOOO++++++@@@@@@######@@@@@@@++++++oooooo++++++@@@@@@@OOOOOO",
"@@@@@@@@@@@@+++++++OOOOOOoooooo@@@@@@OOOOOOO++++++@@@@@@######@@@@@@@++++++oooooo++++++@@@@@@@OOOOOO",
"@@@@@@@@@@@@+++++++OOOOOOoooooo@@@@@@OOOOOOO++++++@@@@@@######@@@@@@@++++++oooooo++++++@@@@@@@OOOOOO",
"@@@@@@@@@@@@+++++++OOOOOOoooooo@@@@@@OOOOOOO++++++@@@@@@######@@@@@@@++++++oooooo++++++@@@@@@@OOOOOO",
"@@@@@@@@@@@@+++++++OOOOOOoooooo@@@@@@OOOOOOO++++++@@@@@@######@@@@@@@++++++oooooo++++++@@@@@@@OOOOOO",
"@@@@@@@@@@@@+++++++OOOOOOoooooo@@@@@@OOOOOOO++++++@@@@@@######@@@@@@@++++++oooooo++++++@@@@@@@OOOOOO",
"++++++OOOOOO+++++++OOOOOOoooooo+++++++++++++@@@@@@+++++++++++++++++++++++++oooooo+++++++++++++++++++",
"++++++OOOOOO+++++++OOOOOOoooooo+++++++++++++@@@@@@+++++++++++++++++++++++++oooooo+++++++++++++++++++",
"++++++OOOOOO+++++++OOOOOOoooooo+++++++++++++@@@@@@+++++++++++++++++++++++++oooooo+++++++++++++++++++",
"++++++OOOOOO+++++++OOOOOOoooooo+++++++++++++@@@@@@+++++++++++++++++++++++++oooooo+++++++++++++++++++",
"++++++OOOOOO+++++++OOOOOOoooooo+++++++++++++@@@@@@+++++++++++++++++++++++++oooooo+++++++++++++++++++",
"++++++OOOOOO+++++++OOOOOOoooooo+++++++++++++@@@@@@+++++++++++++++++++++++++oooooo+++++++++++++++++++",
"++++++++++++OOOOOOOooooooXXXXXXooooooOOOOOOO++++++OOOOOO+++++++++++++OOOOOOXXXXXXOOOOOOOOOOOOO@@@@@@",
"++++++++++++OOOOOOOooooooXXXXXXooooooOOOOOOO++++++OOOOOO+++++++++++++OOOOOOXXXXXXOOOOOOOOOOOOO@@@@@@",
"++++++++++++OOOOOOOooooooXXXXXXooooooOOOOOOO++++++OOOOOO+++++++++++++OOOOOOXXXXXXOOOOOOOOOOOOO@@@@@@",
"++++++++++++OOOOOOOooooooXXXXXXooooooOOOOOOO++++++OOOOOO+++++++++++++OOOOOOXXXXXXOOOOOOOOOOOOO@@@@@@",
"++++++++++++OOOOOOOooooooXXXXXXooooooOOOOOOO++++++OOOOOO+++++++++++++OOOOOOXXXXXXOOOOOOOOOOOOO@@@@@@",
"++++++++++++OOOOOOOooooooXXXXXXooooooOOOOOOO++++++OOOOOO+++++++++++++OOOOOOXXXXXXOOOOOOOOOOOOO@@@@@@",
"ooooooooooooooooooooooooo......XXXXXXoooooooooooooooooooooooooooooooooooooo......ooooooooooooooooooo",
"ooooooooooooooooooooooooo......XXXXXXoooooooooooooooooooooooooooooooooooooo......ooooooooooooooooooo",
"ooooooooooooooooooooooooo......XXXXXXoooooooooooooooooooooooooooooooooooooo......ooooooooooooooooooo",
"ooooooooooooooooooooooooo......XXXXXXoooooooooooooooooooooooooooooooooooooo......ooooooooooooooooooo",
"ooooooooooooooooooooooooo......XXXXXXoooooooooooooooooooooooooooooooooooooo......ooooooooooooooooooo",
"ooooooooooooooooooooooooo......XXXXXXoooooooooooooooooooooooooooooooooooooo......ooooooooooooooooooo",
"ooooooooooooooooooooooooo......XXXXXXoooooooooooooooooooooooooooooooooooooo......ooooooooooooooooooo",
"............XXXXXXXXXXXXX......XXXXXXXXXXXXX..................XXXXXXXXXXXXX............XXXXXXX......",
"............XXXXXXXXXXXXX......XXXXXXXXXXXXX..................XXXXXXXXXXXXX............XXXXXXX......",
"............XXXXXXXXXXXXX......XXXXXXXXXXXXX..................XXXXXXXXXXXXX............XXXXXXX......",
"............XXXXXXXXXXXXX......XXXXXXXXXXXXX..................XXXXXXXXXXXXX............XXXXXXX......",
"............XXXXXXXXXXXXX......XXXXXXXXXXXXX..................XXXXXXXXXXXXX............XXXXXXX......",
"............XXXXXXXXXXXXX......XXXXXXXXXXXXX..................XXXXXXXXXXXXX............XXXXXXX......"
};
