/* XPM */
static char *be62d51e069e477edd4d79467579a8585tfXexgGX8pzAEIm[] = {
/* columns rows colors chars-per-pixel */
"100 100 12 1 ",
"  c #525D39",
". c #5A595A",
"X c #5A6D41",
"o c #627941",
"O c gray39",
"+ c #6A6D6A",
"@ c #787678",
"# c gray50",
"$ c #738552",
"% c #7A8F55",
"& c #8B898B",
"* c #9C999C",
/* pixels */
"&&&&&&******ooooooo$$$$$$$$$$$$%%%%%%%%%%%%%$$$$$$oooooo******%%%%%%%%%%%%%&&&&&&$$$$$$%%%%%%%      ",
"&&&&&&******ooooooo$$$$$$$$$$$$%%%%%%%%%%%%%$$$$$$oooooo******%%%%%%%%%%%%%&&&&&&$$$$$$%%%%%%%      ",
"&&&&&&******ooooooo$$$$$$$$$$$$%%%%%%%%%%%%%$$$$$$oooooo******%%%%%%%%%%%%%&&&&&&$$$$$$%%%%%%%      ",
"&&&&&&******ooooooo$$$$$$$$$$$$%%%%%%%%%%%%%$$$$$$oooooo******%%%%%%%%%%%%%&&&&&&$$$$$$%%%%%%%      ",
"&&&&&&******ooooooo$$$$$$$$$$$$%%%%%%%%%%%%%$$$$$$oooooo******%%%%%%%%%%%%%&&&&&&$$$$$$%%%%%%%      ",
"&&&&&&******ooooooo$$$$$$$$$$$$%%%%%%%%%%%%%$$$$$$oooooo******%%%%%%%%%%%%%&&&&&&$$$$$$%%%%%%%      ",
"******######&&&&&&&XXXXXX%%%%%%$$$$$$%%%%%%%oooooo&&&&&&#########################oooooooooooooXXXXXX",
"******######&&&&&&&XXXXXX%%%%%%$$$$$$%%%%%%%oooooo&&&&&&#########################oooooooooooooXXXXXX",
"******######&&&&&&&XXXXXX%%%%%%$$$$$$%%%%%%%oooooo&&&&&&#########################oooooooooooooXXXXXX",
"******######&&&&&&&XXXXXX%%%%%%$$$$$$%%%%%%%oooooo&&&&&&#########################oooooooooooooXXXXXX",
"******######&&&&&&&XXXXXX%%%%%%$$$$$$%%%%%%%oooooo&&&&&&#########################oooooooooooooXXXXXX",
"******######&&&&&&&XXXXXX%%%%%%$$$$$$%%%%%%%oooooo&&&&&&#########################oooooooooooooXXXXXX",
"******&&&&&&#######XXXXXX$$$$$$oooooo$$$$$$$oooooo############$$$$$$$&&&&&&XXXXXX######ooooooo......",
"******&&&&&&#######XXXXXX$$$$$$oooooo$$$$$$$oooooo############$$$$$$$&&&&&&XXXXXX######ooooooo......",
"******&&&&&&#######XXXXXX$$$$$$oooooo$$$$$$$oooooo############$$$$$$$&&&&&&XXXXXX######ooooooo......",
"******&&&&&&#######XXXXXX$$$$$$oooooo$$$$$$$oooooo############$$$$$$$&&&&&&XXXXXX######ooooooo......",
"******&&&&&&#######XXXXXX$$$$$$oooooo$$$$$$$oooooo############$$$$$$$&&&&&&XXXXXX######ooooooo......",
"******&&&&&&#######XXXXXX$$$$$$oooooo$$$$$$$oooooo############$$$$$$$&&&&&&XXXXXX######ooooooo......",
"******&&&&&&#######XXXXXX$$$$$$oooooo$$$$$$$oooooo############$$$$$$$&&&&&&XXXXXX######ooooooo......",
"******######@@@@@@@######XXXXXX&&&&&&$$$$$$$@@@@@@######&&&&&&#######@@@@@@######@@@@@@XXXXXXX......",
"******######@@@@@@@######XXXXXX&&&&&&$$$$$$$@@@@@@######&&&&&&#######@@@@@@######@@@@@@XXXXXXX......",
"******######@@@@@@@######XXXXXX&&&&&&$$$$$$$@@@@@@######&&&&&&#######@@@@@@######@@@@@@XXXXXXX......",
"******######@@@@@@@######XXXXXX&&&&&&$$$$$$$@@@@@@######&&&&&&#######@@@@@@######@@@@@@XXXXXXX......",
"******######@@@@@@@######XXXXXX&&&&&&$$$$$$$@@@@@@######&&&&&&#######@@@@@@######@@@@@@XXXXXXX......",
"******######@@@@@@@######XXXXXX&&&&&&$$$$$$$@@@@@@######&&&&&&#######@@@@@@######@@@@@@XXXXXXX......",
"******@@@@@@ooooooo@@@@@@@@@@@@######ooooooo############oooooo$$$$$$$######@@@@@@++++++#######......",
"******@@@@@@ooooooo@@@@@@@@@@@@######ooooooo############oooooo$$$$$$$######@@@@@@++++++#######......",
"******@@@@@@ooooooo@@@@@@@@@@@@######ooooooo############oooooo$$$$$$$######@@@@@@++++++#######......",
"******@@@@@@ooooooo@@@@@@@@@@@@######ooooooo############oooooo$$$$$$$######@@@@@@++++++#######......",
"******@@@@@@ooooooo@@@@@@@@@@@@######ooooooo############oooooo$$$$$$$######@@@@@@++++++#######......",
"******@@@@@@ooooooo@@@@@@@@@@@@######ooooooo############oooooo$$$$$$$######@@@@@@++++++#######......",
"&&&&&&@@@@@@XXXXXXXoooooo######@@@@@@@@@@@@@@@@@@@oooooo$$$$$$oooooooXXXXXXXXXXXX######@@@@@@@      ",
"&&&&&&@@@@@@XXXXXXXoooooo######@@@@@@@@@@@@@@@@@@@oooooo$$$$$$oooooooXXXXXXXXXXXX######@@@@@@@      ",
"&&&&&&@@@@@@XXXXXXXoooooo######@@@@@@@@@@@@@@@@@@@oooooo$$$$$$oooooooXXXXXXXXXXXX######@@@@@@@      ",
"&&&&&&@@@@@@XXXXXXXoooooo######@@@@@@@@@@@@@@@@@@@oooooo$$$$$$oooooooXXXXXXXXXXXX######@@@@@@@      ",
"&&&&&&@@@@@@XXXXXXXoooooo######@@@@@@@@@@@@@@@@@@@oooooo$$$$$$oooooooXXXXXXXXXXXX######@@@@@@@      ",
"&&&&&&@@@@@@XXXXXXXoooooo######@@@@@@@@@@@@@@@@@@@oooooo$$$$$$oooooooXXXXXXXXXXXX######@@@@@@@      ",
"@@@@@@++++++XXXXXXXXXXXXX++++++@@@@@@+++++++XXXXXXooooooooooooXXXXXXXXXXXXX@@@@@@@@@@@@#######XXXXXX",
"@@@@@@++++++XXXXXXXXXXXXX++++++@@@@@@+++++++XXXXXXooooooooooooXXXXXXXXXXXXX@@@@@@@@@@@@#######XXXXXX",
"@@@@@@++++++XXXXXXXXXXXXX++++++@@@@@@+++++++XXXXXXooooooooooooXXXXXXXXXXXXX@@@@@@@@@@@@#######XXXXXX",
"@@@@@@++++++XXXXXXXXXXXXX++++++@@@@@@+++++++XXXXXXooooooooooooXXXXXXXXXXXXX@@@@@@@@@@@@#######XXXXXX",
"@@@@@@++++++XXXXXXXXXXXXX++++++@@@@@@+++++++XXXXXXooooooooooooXXXXXXXXXXXXX@@@@@@@@@@@@#######XXXXXX",
"@@@@@@++++++XXXXXXXXXXXXX++++++@@@@@@+++++++XXXXXXooooooooooooXXXXXXXXXXXXX@@@@@@@@@@@@#######XXXXXX",
"@@@@@@++++++XXXXXXXXXXXXX++++++@@@@@@+++++++XXXXXXooooooooooooXXXXXXXXXXXXX@@@@@@@@@@@@#######XXXXXX",
"OOOOOOOOOOOO.......      OOOOOOOOOOOO...................                         OOOOOOOOOOOOOOOOOOO",
"OOOOOOOOOOOO.......      OOOOOOOOOOOO...................                         OOOOOOOOOOOOOOOOOOO",
"OOOOOOOOOOOO.......      OOOOOOOOOOOO...................                         OOOOOOOOOOOOOOOOOOO",
"OOOOOOOOOOOO.......      OOOOOOOOOOOO...................                         OOOOOOOOOOOOOOOOOOO",
"OOOOOOOOOOOO.......      OOOOOOOOOOOO...................                         OOOOOOOOOOOOOOOOOOO",
"OOOOOOOOOOOO.......      OOOOOOOOOOOO...................                         OOOOOOOOOOOOOOOOOOO",
"%%%%%%%%%%%%$$$$$$$******************&&&&&&&......&&&&&&*************************$$$$$$%%%%%%%%%%%%%",
"%%%%%%%%%%%%$$$$$$$******************&&&&&&&......&&&&&&*************************$$$$$$%%%%%%%%%%%%%",
"%%%%%%%%%%%%$$$$$$$******************&&&&&&&......&&&&&&*************************$$$$$$%%%%%%%%%%%%%",
"%%%%%%%%%%%%$$$$$$$******************&&&&&&&......&&&&&&*************************$$$$$$%%%%%%%%%%%%%",
"%%%%%%%%%%%%$$$$$$$******************&&&&&&&......&&&&&&*************************$$$$$$%%%%%%%%%%%%%",
"%%%%%%%%%%%%$$$$$$$******************&&&&&&&......&&&&&&*************************$$$$$$%%%%%%%%%%%%%",
"oooooo&&&&&&&&&&&&&&&&&&&&&&&&&#############......******&&&&&&#######&&&&&&&&&&&&&&&&&&&&&&&&&$$$$$$",
"oooooo&&&&&&&&&&&&&&&&&&&&&&&&&#############......******&&&&&&#######&&&&&&&&&&&&&&&&&&&&&&&&&$$$$$$",
"oooooo&&&&&&&&&&&&&&&&&&&&&&&&&#############......******&&&&&&#######&&&&&&&&&&&&&&&&&&&&&&&&&$$$$$$",
"oooooo&&&&&&&&&&&&&&&&&&&&&&&&&#############......******&&&&&&#######&&&&&&&&&&&&&&&&&&&&&&&&&$$$$$$",
"oooooo&&&&&&&&&&&&&&&&&&&&&&&&&#############......******&&&&&&#######&&&&&&&&&&&&&&&&&&&&&&&&&$$$$$$",
"oooooo&&&&&&&&&&&&&&&&&&&&&&&&&#############......******&&&&&&#######&&&&&&&&&&&&&&&&&&&&&&&&&$$$$$$",
"&&&&&&#############&&&&&&############@@@@@@@......******######@@@@@@@&&&&&&@@@@@@&&&&&&ooooooo######",
"&&&&&&#############&&&&&&############@@@@@@@......******######@@@@@@@&&&&&&@@@@@@&&&&&&ooooooo######",
"&&&&&&#############&&&&&&############@@@@@@@......******######@@@@@@@&&&&&&@@@@@@&&&&&&ooooooo######",
"&&&&&&#############&&&&&&############@@@@@@@......******######@@@@@@@&&&&&&@@@@@@&&&&&&ooooooo######",
"&&&&&&#############&&&&&&############@@@@@@@......******######@@@@@@@&&&&&&@@@@@@&&&&&&ooooooo######",
"&&&&&&#############&&&&&&############@@@@@@@......******######@@@@@@@&&&&&&@@@@@@&&&&&&ooooooo######",
"&&&&&&#############&&&&&&############@@@@@@@......******######@@@@@@@&&&&&&@@@@@@&&&&&&ooooooo######",
"######&&&&&&&&&&&&&############oooooo+++++++......******@@@@@@#######@@@@@@############XXXXXXX&&&&&&",
"######&&&&&&&&&&&&&############oooooo+++++++......******@@@@@@#######@@@@@@############XXXXXXX&&&&&&",
"######&&&&&&&&&&&&&############oooooo+++++++......******@@@@@@#######@@@@@@############XXXXXXX&&&&&&",
"######&&&&&&&&&&&&&############oooooo+++++++......******@@@@@@#######@@@@@@############XXXXXXX&&&&&&",
"######&&&&&&&&&&&&&############oooooo+++++++......******@@@@@@#######@@@@@@############XXXXXXX&&&&&&",
"######&&&&&&&&&&&&&############oooooo+++++++......******@@@@@@#######@@@@@@############XXXXXXX&&&&&&",
"#########################@@@@@@oooooo@@@@@@@......&&&&&&$$$$$$%%%%%%%######&&&&&&######@@@@@@@@@@@@@",
"#########################@@@@@@oooooo@@@@@@@......&&&&&&$$$$$$%%%%%%%######&&&&&&######@@@@@@@@@@@@@",
"#########################@@@@@@oooooo@@@@@@@......&&&&&&$$$$$$%%%%%%%######&&&&&&######@@@@@@@@@@@@@",
"#########################@@@@@@oooooo@@@@@@@......&&&&&&$$$$$$%%%%%%%######&&&&&&######@@@@@@@@@@@@@",
"#########################@@@@@@oooooo@@@@@@@......&&&&&&$$$$$$%%%%%%%######&&&&&&######@@@@@@@@@@@@@",
"#########################@@@@@@oooooo@@@@@@@......&&&&&&$$$$$$%%%%%%%######&&&&&&######@@@@@@@@@@@@@",
"@@@@@@@@@@@@+++++++@@@@@@oooooooooooo@@@@@@@......&&&&&&%%%%%%#######@@@@@@@@@@@@#############@@@@@@",
"@@@@@@@@@@@@+++++++@@@@@@oooooooooooo@@@@@@@......&&&&&&%%%%%%#######@@@@@@@@@@@@#############@@@@@@",
"@@@@@@@@@@@@+++++++@@@@@@oooooooooooo@@@@@@@......&&&&&&%%%%%%#######@@@@@@@@@@@@#############@@@@@@",
"@@@@@@@@@@@@+++++++@@@@@@oooooooooooo@@@@@@@......&&&&&&%%%%%%#######@@@@@@@@@@@@#############@@@@@@",
"@@@@@@@@@@@@+++++++@@@@@@oooooooooooo@@@@@@@......&&&&&&%%%%%%#######@@@@@@@@@@@@#############@@@@@@",
"@@@@@@@@@@@@+++++++@@@@@@oooooooooooo@@@@@@@......&&&&&&%%%%%%#######@@@@@@@@@@@@#############@@@@@@",
"++++++++++++XXXXXXXXXXXXXoooooo@@@@@@#######......@@@@@@XXXXXXXXXXXXX@@@@@@++++++@@@@@@@@@@@@@++++++",
"++++++++++++XXXXXXXXXXXXXoooooo@@@@@@#######......@@@@@@XXXXXXXXXXXXX@@@@@@++++++@@@@@@@@@@@@@++++++",
"++++++++++++XXXXXXXXXXXXXoooooo@@@@@@#######......@@@@@@XXXXXXXXXXXXX@@@@@@++++++@@@@@@@@@@@@@++++++",
"++++++++++++XXXXXXXXXXXXXoooooo@@@@@@#######......@@@@@@XXXXXXXXXXXXX@@@@@@++++++@@@@@@@@@@@@@++++++",
"++++++++++++XXXXXXXXXXXXXoooooo@@@@@@#######......@@@@@@XXXXXXXXXXXXX@@@@@@++++++@@@@@@@@@@@@@++++++",
"++++++++++++XXXXXXXXXXXXXoooooo@@@@@@#######......@@@@@@XXXXXXXXXXXXX@@@@@@++++++@@@@@@@@@@@@@++++++",
"++++++++++++XXXXXXXXXXXXXoooooo@@@@@@#######......@@@@@@XXXXXXXXXXXXX@@@@@@++++++@@@@@@@@@@@@@++++++",
"OOOOOO                         OOOOOO...................                   OOOOOOOOOOOO             ",
"OOOOOO                         OOOOOO...................                   OOOOOOOOOOOO             ",
"OOOOOO                         OOOOOO...................                   OOOOOOOOOOOO             ",
"OOOOOO                         OOOOOO...................                   OOOOOOOOOOOO             ",
"OOOOOO                         OOOOOO...................                   OOOOOOOOOOOO             ",
"OOOOOO                         OOOOOO...................                   OOOOOOOOOOOO             "
};
