/* XPM */
static char *_ee0559906ed4494c78b1c6d5c1a66f8mhyQB9iwdMIL5YDg[] = {
/* columns rows colors chars-per-pixel */
"100 100 7 1 ",
"  c #5A595A",
". c gray39",
"X c #6A6D6A",
"o c #787678",
"O c gray50",
"+ c #8B898B",
"@ c #9C999C",
/* pixels */
"++++++@@@@@@@@@@@@@@@@@@@@@@@@@@@@@@@@@@@@@@@@@@@@@@@@@@@@@@@@@@@@@@@@@@@@@+++++++++++++++++++      ",
"++++++@@@@@@@@@@@@@@@@@@@@@@@@@@@@@@@@@@@@@@@@@@@@@@@@@@@@@@@@@@@@@@@@@@@@@+++++++++++++++++++      ",
"++++++@@@@@@@@@@@@@@@@@@@@@@@@@@@@@@@@@@@@@@@@@@@@@@@@@@@@@@@@@@@@@@@@@@@@@+++++++++++++++++++      ",
"++++++@@@@@@@@@@@@@@@@@@@@@@@@@@@@@@@@@@@@@@@@@@@@@@@@@@@@@@@@@@@@@@@@@@@@@+++++++++++++++++++      ",
"++++++@@@@@@@@@@@@@@@@@@@@@@@@@@@@@@@@@@@@@@@@@@@@@@@@@@@@@@@@@@@@@@@@@@@@@+++++++++++++++++++      ",
"++++++@@@@@@@@@@@@@@@@@@@@@@@@@@@@@@@@@@@@@@@@@@@@@@@@@@@@@@@@@@@@@@@@@@@@@+++++++++++++++++++      ",
"@@@@@@OOOOOO+++++++OOOOOO+++++++++++++++++++++++++++++++OOOOOOOOOOOOOOOOOOOOOOOOOOOOOOO+++++++      ",
"@@@@@@OOOOOO+++++++OOOOOO+++++++++++++++++++++++++++++++OOOOOOOOOOOOOOOOOOOOOOOOOOOOOOO+++++++      ",
"@@@@@@OOOOOO+++++++OOOOOO+++++++++++++++++++++++++++++++OOOOOOOOOOOOOOOOOOOOOOOOOOOOOOO+++++++      ",
"@@@@@@OOOOOO+++++++OOOOOO+++++++++++++++++++++++++++++++OOOOOOOOOOOOOOOOOOOOOOOOOOOOOOO+++++++      ",
"@@@@@@OOOOOO+++++++OOOOOO+++++++++++++++++++++++++++++++OOOOOOOOOOOOOOOOOOOOOOOOOOOOOOO+++++++      ",
"@@@@@@OOOOOO+++++++OOOOOO+++++++++++++++++++++++++++++++OOOOOOOOOOOOOOOOOOOOOOOOOOOOOOO+++++++      ",
"@@@@@@++++++OOOOOOO++++++OOOOOOOOOOOOOOOOOOOOOOOOOOOOOOOOOOOOO+++++++++++++ooooooOOOOOOOOOOOOO      ",
"@@@@@@++++++OOOOOOO++++++OOOOOOOOOOOOOOOOOOOOOOOOOOOOOOOOOOOOO+++++++++++++ooooooOOOOOOOOOOOOO      ",
"@@@@@@++++++OOOOOOO++++++OOOOOOOOOOOOOOOOOOOOOOOOOOOOOOOOOOOOO+++++++++++++ooooooOOOOOOOOOOOOO      ",
"@@@@@@++++++OOOOOOO++++++OOOOOOOOOOOOOOOOOOOOOOOOOOOOOOOOOOOOO+++++++++++++ooooooOOOOOOOOOOOOO      ",
"@@@@@@++++++OOOOOOO++++++OOOOOOOOOOOOOOOOOOOOOOOOOOOOOOOOOOOOO+++++++++++++ooooooOOOOOOOOOOOOO      ",
"@@@@@@++++++OOOOOOO++++++OOOOOOOOOOOOOOOOOOOOOOOOOOOOOOOOOOOOO+++++++++++++ooooooOOOOOOOOOOOOO      ",
"@@@@@@++++++OOOOOOO++++++OOOOOOOOOOOOOOOOOOOOOOOOOOOOOOOOOOOOO+++++++++++++ooooooOOOOOOOOOOOOO      ",
"@@@@@@OOOOOOoooooooOOOOOO++++++++++++OOOOOOOooooooOOOOOO++++++OOOOOOOooooooOOOOOOooooooooooooo      ",
"@@@@@@OOOOOOoooooooOOOOOO++++++++++++OOOOOOOooooooOOOOOO++++++OOOOOOOooooooOOOOOOooooooooooooo      ",
"@@@@@@OOOOOOoooooooOOOOOO++++++++++++OOOOOOOooooooOOOOOO++++++OOOOOOOooooooOOOOOOooooooooooooo      ",
"@@@@@@OOOOOOoooooooOOOOOO++++++++++++OOOOOOOooooooOOOOOO++++++OOOOOOOooooooOOOOOOooooooooooooo      ",
"@@@@@@OOOOOOoooooooOOOOOO++++++++++++OOOOOOOooooooOOOOOO++++++OOOOOOOooooooOOOOOOooooooooooooo      ",
"@@@@@@OOOOOOoooooooOOOOOO++++++++++++OOOOOOOooooooOOOOOO++++++OOOOOOOooooooOOOOOOooooooooooooo      ",
"@@@@@@ooooooXXXXXXXooooooooooooOOOOOO+++++++OOOOOOOOOOOOoooooooooooooOOOOOOooooooXXXXXXOOOOOOO      ",
"@@@@@@ooooooXXXXXXXooooooooooooOOOOOO+++++++OOOOOOOOOOOOoooooooooooooOOOOOOooooooXXXXXXOOOOOOO      ",
"@@@@@@ooooooXXXXXXXooooooooooooOOOOOO+++++++OOOOOOOOOOOOoooooooooooooOOOOOOooooooXXXXXXOOOOOOO      ",
"@@@@@@ooooooXXXXXXXooooooooooooOOOOOO+++++++OOOOOOOOOOOOoooooooooooooOOOOOOooooooXXXXXXOOOOOOO      ",
"@@@@@@ooooooXXXXXXXooooooooooooOOOOOO+++++++OOOOOOOOOOOOoooooooooooooOOOOOOooooooXXXXXXOOOOOOO      ",
"@@@@@@ooooooXXXXXXXooooooooooooOOOOOO+++++++OOOOOOOOOOOOoooooooooooooOOOOOOooooooXXXXXXOOOOOOO      ",
"++++++ooooooXXXXXXXOOOOOOOOOOOOoooooooooooooooooooooooooOOOOOO+++++++ooooooXXXXXXOOOOOOooooooo      ",
"++++++ooooooXXXXXXXOOOOOOOOOOOOoooooooooooooooooooooooooOOOOOO+++++++ooooooXXXXXXOOOOOOooooooo      ",
"++++++ooooooXXXXXXXOOOOOOOOOOOOoooooooooooooooooooooooooOOOOOO+++++++ooooooXXXXXXOOOOOOooooooo      ",
"++++++ooooooXXXXXXXOOOOOOOOOOOOoooooooooooooooooooooooooOOOOOO+++++++ooooooXXXXXXOOOOOOooooooo      ",
"++++++ooooooXXXXXXXOOOOOOOOOOOOoooooooooooooooooooooooooOOOOOO+++++++ooooooXXXXXXOOOOOOooooooo      ",
"++++++ooooooXXXXXXXOOOOOOOOOOOOoooooooooooooooooooooooooOOOOOO+++++++ooooooXXXXXXOOOOOOooooooo      ",
"XXXXXXXXXXXXXXXXXXXXXXXXXXXXXXXXXXXXXXXXXXXXXXXXXXXXXXXXXXXXXXXXXXXXXXXXXXXXXXXXXXXXXXXXXXXXXX      ",
"XXXXXXXXXXXXXXXXXXXXXXXXXXXXXXXXXXXXXXXXXXXXXXXXXXXXXXXXXXXXXXXXXXXXXXXXXXXXXXXXXXXXXXXXXXXXXX      ",
"XXXXXXXXXXXXXXXXXXXXXXXXXXXXXXXXXXXXXXXXXXXXXXXXXXXXXXXXXXXXXXXXXXXXXXXXXXXXXXXXXXXXXXXXXXXXXX      ",
"XXXXXXXXXXXXXXXXXXXXXXXXXXXXXXXXXXXXXXXXXXXXXXXXXXXXXXXXXXXXXXXXXXXXXXXXXXXXXXXXXXXXXXXXXXXXXX      ",
"XXXXXXXXXXXXXXXXXXXXXXXXXXXXXXXXXXXXXXXXXXXXXXXXXXXXXXXXXXXXXXXXXXXXXXXXXXXXXXXXXXXXXXXXXXXXXX      ",
"XXXXXXXXXXXXXXXXXXXXXXXXXXXXXXXXXXXXXXXXXXXXXXXXXXXXXXXXXXXXXXXXXXXXXXXXXXXXXXXXXXXXXXXXXXXXXX      ",
"XXXXXXXXXXXXXXXXXXXXXXXXXXXXXXXXXXXXXXXXXXXXXXXXXXXXXXXXXXXXXXXXXXXXXXXXXXXXXXXXXXXXXXXXXXXXXX      ",
"............             ............                   ............................................",
"............             ............                   ............................................",
"............             ............                   ............................................",
"............             ............                   ............................................",
"............             ............                   ............................................",
"............             ............                   ............................................",
"@@@@@@@@@@@@@@@@@@@@@@@@@@@@@@@@@@@@@+++++++      ++++++@@@@@@@@@@@@@@@@@@@@@@@@@@@@@@@@@@@@@@@@@@@@",
"@@@@@@@@@@@@@@@@@@@@@@@@@@@@@@@@@@@@@+++++++      ++++++@@@@@@@@@@@@@@@@@@@@@@@@@@@@@@@@@@@@@@@@@@@@",
"@@@@@@@@@@@@@@@@@@@@@@@@@@@@@@@@@@@@@+++++++      ++++++@@@@@@@@@@@@@@@@@@@@@@@@@@@@@@@@@@@@@@@@@@@@",
"@@@@@@@@@@@@@@@@@@@@@@@@@@@@@@@@@@@@@+++++++      ++++++@@@@@@@@@@@@@@@@@@@@@@@@@@@@@@@@@@@@@@@@@@@@",
"@@@@@@@@@@@@@@@@@@@@@@@@@@@@@@@@@@@@@+++++++      ++++++@@@@@@@@@@@@@@@@@@@@@@@@@@@@@@@@@@@@@@@@@@@@",
"@@@@@@@@@@@@@@@@@@@@@@@@@@@@@@@@@@@@@+++++++      ++++++@@@@@@@@@@@@@@@@@@@@@@@@@@@@@@@@@@@@@@@@@@@@",
"oooooo+++++++++++++++++++++++++OOOOOOOOOOOOO      @@@@@@++++++OOOOOOO+++++++++++++++++++++++++OOOOOO",
"oooooo+++++++++++++++++++++++++OOOOOOOOOOOOO      @@@@@@++++++OOOOOOO+++++++++++++++++++++++++OOOOOO",
"oooooo+++++++++++++++++++++++++OOOOOOOOOOOOO      @@@@@@++++++OOOOOOO+++++++++++++++++++++++++OOOOOO",
"oooooo+++++++++++++++++++++++++OOOOOOOOOOOOO      @@@@@@++++++OOOOOOO+++++++++++++++++++++++++OOOOOO",
"oooooo+++++++++++++++++++++++++OOOOOOOOOOOOO      @@@@@@++++++OOOOOOO+++++++++++++++++++++++++OOOOOO",
"oooooo+++++++++++++++++++++++++OOOOOOOOOOOOO      @@@@@@++++++OOOOOOO+++++++++++++++++++++++++OOOOOO",
"++++++OOOOOOOOOOOOO++++++OOOOOOOOOOOOooooooo      @@@@@@OOOOOOooooooo++++++oooooo++++++OOOOOOOOOOOOO",
"++++++OOOOOOOOOOOOO++++++OOOOOOOOOOOOooooooo      @@@@@@OOOOOOooooooo++++++oooooo++++++OOOOOOOOOOOOO",
"++++++OOOOOOOOOOOOO++++++OOOOOOOOOOOOooooooo      @@@@@@OOOOOOooooooo++++++oooooo++++++OOOOOOOOOOOOO",
"++++++OOOOOOOOOOOOO++++++OOOOOOOOOOOOooooooo      @@@@@@OOOOOOooooooo++++++oooooo++++++OOOOOOOOOOOOO",
"++++++OOOOOOOOOOOOO++++++OOOOOOOOOOOOooooooo      @@@@@@OOOOOOooooooo++++++oooooo++++++OOOOOOOOOOOOO",
"++++++OOOOOOOOOOOOO++++++OOOOOOOOOOOOooooooo      @@@@@@OOOOOOooooooo++++++oooooo++++++OOOOOOOOOOOOO",
"++++++OOOOOOOOOOOOO++++++OOOOOOOOOOOOooooooo      @@@@@@OOOOOOooooooo++++++oooooo++++++OOOOOOOOOOOOO",
"OOOOOO+++++++++++++OOOOOOOOOOOOooooooXXXXXXX      @@@@@@ooooooOOOOOOOooooooOOOOOOOOOOOOOOOOOOO++++++",
"OOOOOO+++++++++++++OOOOOOOOOOOOooooooXXXXXXX      @@@@@@ooooooOOOOOOOooooooOOOOOOOOOOOOOOOOOOO++++++",
"OOOOOO+++++++++++++OOOOOOOOOOOOooooooXXXXXXX      @@@@@@ooooooOOOOOOOooooooOOOOOOOOOOOOOOOOOOO++++++",
"OOOOOO+++++++++++++OOOOOOOOOOOOooooooXXXXXXX      @@@@@@ooooooOOOOOOOooooooOOOOOOOOOOOOOOOOOOO++++++",
"OOOOOO+++++++++++++OOOOOOOOOOOOooooooXXXXXXX      @@@@@@ooooooOOOOOOOooooooOOOOOOOOOOOOOOOOOOO++++++",
"OOOOOO+++++++++++++OOOOOOOOOOOOooooooXXXXXXX      @@@@@@ooooooOOOOOOOooooooOOOOOOOOOOOOOOOOOOO++++++",
"OOOOOOOOOOOOOOOOOOOOOOOOOooooooOOOOOOooooooo      ++++++oooooooooooooOOOOOO++++++OOOOOOooooooooooooo",
"OOOOOOOOOOOOOOOOOOOOOOOOOooooooOOOOOOooooooo      ++++++oooooooooooooOOOOOO++++++OOOOOOooooooooooooo",
"OOOOOOOOOOOOOOOOOOOOOOOOOooooooOOOOOOooooooo      ++++++oooooooooooooOOOOOO++++++OOOOOOooooooooooooo",
"OOOOOOOOOOOOOOOOOOOOOOOOOooooooOOOOOOooooooo      ++++++oooooooooooooOOOOOO++++++OOOOOOooooooooooooo",
"OOOOOOOOOOOOOOOOOOOOOOOOOooooooOOOOOOooooooo      ++++++oooooooooooooOOOOOO++++++OOOOOOooooooooooooo",
"OOOOOOOOOOOOOOOOOOOOOOOOOooooooOOOOOOooooooo      ++++++oooooooooooooOOOOOO++++++OOOOOOooooooooooooo",
"ooooooooooooXXXXXXXooooooXXXXXXXXXXXXooooooo      ++++++OOOOOOOOOOOOOooooooooooooOOOOOOOOOOOOOoooooo",
"ooooooooooooXXXXXXXooooooXXXXXXXXXXXXooooooo      ++++++OOOOOOOOOOOOOooooooooooooOOOOOOOOOOOOOoooooo",
"ooooooooooooXXXXXXXooooooXXXXXXXXXXXXooooooo      ++++++OOOOOOOOOOOOOooooooooooooOOOOOOOOOOOOOoooooo",
"ooooooooooooXXXXXXXooooooXXXXXXXXXXXXooooooo      ++++++OOOOOOOOOOOOOooooooooooooOOOOOOOOOOOOOoooooo",
"ooooooooooooXXXXXXXooooooXXXXXXXXXXXXooooooo      ++++++OOOOOOOOOOOOOooooooooooooOOOOOOOOOOOOOoooooo",
"ooooooooooooXXXXXXXooooooXXXXXXXXXXXXooooooo      ++++++OOOOOOOOOOOOOooooooooooooOOOOOOOOOOOOOoooooo",
"XXXXXXXXXXXXXXXXXXXXXXXXXXXXXXXXXXXXXXXXXXXX      XXXXXXXXXXXXXXXXXXXXXXXXXXXXXXXXXXXXXXXXXXXXXXXXXX",
"XXXXXXXXXXXXXXXXXXXXXXXXXXXXXXXXXXXXXXXXXXXX      XXXXXXXXXXXXXXXXXXXXXXXXXXXXXXXXXXXXXXXXXXXXXXXXXX",
"XXXXXXXXXXXXXXXXXXXXXXXXXXXXXXXXXXXXXXXXXXXX      XXXXXXXXXXXXXXXXXXXXXXXXXXXXXXXXXXXXXXXXXXXXXXXXXX",
"XXXXXXXXXXXXXXXXXXXXXXXXXXXXXXXXXXXXXXXXXXXX      XXXXXXXXXXXXXXXXXXXXXXXXXXXXXXXXXXXXXXXXXXXXXXXXXX",
"XXXXXXXXXXXXXXXXXXXXXXXXXXXXXXXXXXXXXXXXXXXX      XXXXXXXXXXXXXXXXXXXXXXXXXXXXXXXXXXXXXXXXXXXXXXXXXX",
"XXXXXXXXXXXXXXXXXXXXXXXXXXXXXXXXXXXXXXXXXXXX      XXXXXXXXXXXXXXXXXXXXXXXXXXXXXXXXXXXXXXXXXXXXXXXXXX",
"XXXXXXXXXXXXXXXXXXXXXXXXXXXXXXXXXXXXXXXXXXXX      XXXXXXXXXXXXXXXXXXXXXXXXXXXXXXXXXXXXXXXXXXXXXXXXXX",
".....................................                         ......................................",
".....................................                         ......................................",
".....................................                         ......................................",
".....................................                         ......................................",
".....................................                         ......................................",
".....................................                         ......................................"
};
