/* XPM */
static char *result[] = {
/* columns rows colors chars-per-pixel */
"128 128 7 1 ",
"  c #5A595A",
". c gray39",
"X c #6A6D6A",
"o c #787678",
"O c gray50",
"+ c #8B898B",
"@ c #9C999C",
/* pixels */
"++++++++@@@@@@@@@@@@@@@@@@@@@@@@@@@@@@@@@@@@@@@@@@@@@@@@@@@@@@@@@@@@@@@@@@@@@@@@@@@@@@@@@@@@@@@@++++++++++++++++++++++++        ",
"++++++++@@@@@@@@@@@@@@@@@@@@@@@@@@@@@@@@@@@@@@@@@@@@@@@@@@@@@@@@@@@@@@@@@@@@@@@@@@@@@@@@@@@@@@@@++++++++++++++++++++++++        ",
"++++++++@@@@@@@@@@@@@@@@@@@@@@@@@@@@@@@@@@@@@@@@@@@@@@@@@@@@@@@@@@@@@@@@@@@@@@@@@@@@@@@@@@@@@@@@++++++++++++++++++++++++        ",
"++++++++@@@@@@@@@@@@@@@@@@@@@@@@@@@@@@@@@@@@@@@@@@@@@@@@@@@@@@@@@@@@@@@@@@@@@@@@@@@@@@@@@@@@@@@@++++++++++++++++++++++++        ",
"++++++++@@@@@@@@@@@@@@@@@@@@@@@@@@@@@@@@@@@@@@@@@@@@@@@@@@@@@@@@@@@@@@@@@@@@@@@@@@@@@@@@@@@@@@@@++++++++++++++++++++++++        ",
"++++++++@@@@@@@@@@@@@@@@@@@@@@@@@@@@@@@@@@@@@@@@@@@@@@@@@@@@@@@@@@@@@@@@@@@@@@@@@@@@@@@@@@@@@@@@++++++++++++++++++++++++        ",
"++++++++@@@@@@@@@@@@@@@@@@@@@@@@@@@@@@@@@@@@@@@@@@@@@@@@@@@@@@@@@@@@@@@@@@@@@@@@@@@@@@@@@@@@@@@@++++++++++++++++++++++++        ",
"++++++++@@@@@@@@@@@@@@@@@@@@@@@@@@@@@@@@@@@@@@@@@@@@@@@@@@@@@@@@@@@@@@@@@@@@@@@@@@@@@@@@@@@@@@@@++++++++++++++++++++++++        ",
"@@@@@@@@OOOOOOOO++++++++OOOOOOOO++++++++++++++++++++++++++++++++++++++++OOOOOOOOOOOOOOOOOOOOOOOOOOOOOOOOOOOOOOOO++++++++        ",
"@@@@@@@@OOOOOOOO++++++++OOOOOOOO++++++++++++++++++++++++++++++++++++++++OOOOOOOOOOOOOOOOOOOOOOOOOOOOOOOOOOOOOOOO++++++++        ",
"@@@@@@@@OOOOOOOO++++++++OOOOOOOO++++++++++++++++++++++++++++++++++++++++OOOOOOOOOOOOOOOOOOOOOOOOOOOOOOOOOOOOOOOO++++++++        ",
"@@@@@@@@OOOOOOOO++++++++OOOOOOOO++++++++++++++++++++++++++++++++++++++++OOOOOOOOOOOOOOOOOOOOOOOOOOOOOOOOOOOOOOOO++++++++        ",
"@@@@@@@@OOOOOOOO++++++++OOOOOOOO++++++++++++++++++++++++++++++++++++++++OOOOOOOOOOOOOOOOOOOOOOOOOOOOOOOOOOOOOOOO++++++++        ",
"@@@@@@@@OOOOOOOO++++++++OOOOOOOO++++++++++++++++++++++++++++++++++++++++OOOOOOOOOOOOOOOOOOOOOOOOOOOOOOOOOOOOOOOO++++++++        ",
"@@@@@@@@OOOOOOOO++++++++OOOOOOOO++++++++++++++++++++++++++++++++++++++++OOOOOOOOOOOOOOOOOOOOOOOOOOOOOOOOOOOOOOOO++++++++        ",
"@@@@@@@@OOOOOOOO++++++++OOOOOOOO++++++++++++++++++++++++++++++++++++++++OOOOOOOOOOOOOOOOOOOOOOOOOOOOOOOOOOOOOOOO++++++++        ",
"@@@@@@@@++++++++OOOOOOOO++++++++OOOOOOOOOOOOOOOOOOOOOOOOOOOOOOOOOOOOOOOOOOOOOOOO++++++++++++++++ooooooooOOOOOOOOOOOOOOOO        ",
"@@@@@@@@++++++++OOOOOOOO++++++++OOOOOOOOOOOOOOOOOOOOOOOOOOOOOOOOOOOOOOOOOOOOOOOO++++++++++++++++ooooooooOOOOOOOOOOOOOOOO        ",
"@@@@@@@@++++++++OOOOOOOO++++++++OOOOOOOOOOOOOOOOOOOOOOOOOOOOOOOOOOOOOOOOOOOOOOOO++++++++++++++++ooooooooOOOOOOOOOOOOOOOO        ",
"@@@@@@@@++++++++OOOOOOOO++++++++OOOOOOOOOOOOOOOOOOOOOOOOOOOOOOOOOOOOOOOOOOOOOOOO++++++++++++++++ooooooooOOOOOOOOOOOOOOOO        ",
"@@@@@@@@++++++++OOOOOOOO++++++++OOOOOOOOOOOOOOOOOOOOOOOOOOOOOOOOOOOOOOOOOOOOOOOO++++++++++++++++ooooooooOOOOOOOOOOOOOOOO        ",
"@@@@@@@@++++++++OOOOOOOO++++++++OOOOOOOOOOOOOOOOOOOOOOOOOOOOOOOOOOOOOOOOOOOOOOOO++++++++++++++++ooooooooOOOOOOOOOOOOOOOO        ",
"@@@@@@@@++++++++OOOOOOOO++++++++OOOOOOOOOOOOOOOOOOOOOOOOOOOOOOOOOOOOOOOOOOOOOOOO++++++++++++++++ooooooooOOOOOOOOOOOOOOOO        ",
"@@@@@@@@++++++++OOOOOOOO++++++++OOOOOOOOOOOOOOOOOOOOOOOOOOOOOOOOOOOOOOOOOOOOOOOO++++++++++++++++ooooooooOOOOOOOOOOOOOOOO        ",
"@@@@@@@@OOOOOOOOooooooooOOOOOOOO++++++++++++++++OOOOOOOOooooooooOOOOOOOO++++++++OOOOOOOOooooooooOOOOOOOOoooooooooooooooo        ",
"@@@@@@@@OOOOOOOOooooooooOOOOOOOO++++++++++++++++OOOOOOOOooooooooOOOOOOOO++++++++OOOOOOOOooooooooOOOOOOOOoooooooooooooooo        ",
"@@@@@@@@OOOOOOOOooooooooOOOOOOOO++++++++++++++++OOOOOOOOooooooooOOOOOOOO++++++++OOOOOOOOooooooooOOOOOOOOoooooooooooooooo        ",
"@@@@@@@@OOOOOOOOooooooooOOOOOOOO++++++++++++++++OOOOOOOOooooooooOOOOOOOO++++++++OOOOOOOOooooooooOOOOOOOOoooooooooooooooo        ",
"@@@@@@@@OOOOOOOOooooooooOOOOOOOO++++++++++++++++OOOOOOOOooooooooOOOOOOOO++++++++OOOOOOOOooooooooOOOOOOOOoooooooooooooooo        ",
"@@@@@@@@OOOOOOOOooooooooOOOOOOOO++++++++++++++++OOOOOOOOooooooooOOOOOOOO++++++++OOOOOOOOooooooooOOOOOOOOoooooooooooooooo        ",
"@@@@@@@@OOOOOOOOooooooooOOOOOOOO++++++++++++++++OOOOOOOOooooooooOOOOOOOO++++++++OOOOOOOOooooooooOOOOOOOOoooooooooooooooo        ",
"@@@@@@@@OOOOOOOOooooooooOOOOOOOO++++++++++++++++OOOOOOOOooooooooOOOOOOOO++++++++OOOOOOOOooooooooOOOOOOOOoooooooooooooooo        ",
"@@@@@@@@ooooooooXXXXXXXXooooooooooooooooOOOOOOOO++++++++OOOOOOOOOOOOOOOOooooooooooooooooOOOOOOOOooooooooXXXXXXXXOOOOOOOO        ",
"@@@@@@@@ooooooooXXXXXXXXooooooooooooooooOOOOOOOO++++++++OOOOOOOOOOOOOOOOooooooooooooooooOOOOOOOOooooooooXXXXXXXXOOOOOOOO        ",
"@@@@@@@@ooooooooXXXXXXXXooooooooooooooooOOOOOOOO++++++++OOOOOOOOOOOOOOOOooooooooooooooooOOOOOOOOooooooooXXXXXXXXOOOOOOOO        ",
"@@@@@@@@ooooooooXXXXXXXXooooooooooooooooOOOOOOOO++++++++OOOOOOOOOOOOOOOOooooooooooooooooOOOOOOOOooooooooXXXXXXXXOOOOOOOO        ",
"@@@@@@@@ooooooooXXXXXXXXooooooooooooooooOOOOOOOO++++++++OOOOOOOOOOOOOOOOooooooooooooooooOOOOOOOOooooooooXXXXXXXXOOOOOOOO        ",
"@@@@@@@@ooooooooXXXXXXXXooooooooooooooooOOOOOOOO++++++++OOOOOOOOOOOOOOOOooooooooooooooooOOOOOOOOooooooooXXXXXXXXOOOOOOOO        ",
"@@@@@@@@ooooooooXXXXXXXXooooooooooooooooOOOOOOOO++++++++OOOOOOOOOOOOOOOOooooooooooooooooOOOOOOOOooooooooXXXXXXXXOOOOOOOO        ",
"@@@@@@@@ooooooooXXXXXXXXooooooooooooooooOOOOOOOO++++++++OOOOOOOOOOOOOOOOooooooooooooooooOOOOOOOOooooooooXXXXXXXXOOOOOOOO        ",
"++++++++ooooooooXXXXXXXXOOOOOOOOOOOOOOOOooooooooooooooooooooooooooooooooOOOOOOOO++++++++ooooooooXXXXXXXXOOOOOOOOoooooooo        ",
"++++++++ooooooooXXXXXXXXOOOOOOOOOOOOOOOOooooooooooooooooooooooooooooooooOOOOOOOO++++++++ooooooooXXXXXXXXOOOOOOOOoooooooo        ",
"++++++++ooooooooXXXXXXXXOOOOOOOOOOOOOOOOooooooooooooooooooooooooooooooooOOOOOOOO++++++++ooooooooXXXXXXXXOOOOOOOOoooooooo        ",
"++++++++ooooooooXXXXXXXXOOOOOOOOOOOOOOOOooooooooooooooooooooooooooooooooOOOOOOOO++++++++ooooooooXXXXXXXXOOOOOOOOoooooooo        ",
"++++++++ooooooooXXXXXXXXOOOOOOOOOOOOOOOOooooooooooooooooooooooooooooooooOOOOOOOO++++++++ooooooooXXXXXXXXOOOOOOOOoooooooo        ",
"++++++++ooooooooXXXXXXXXOOOOOOOOOOOOOOOOooooooooooooooooooooooooooooooooOOOOOOOO++++++++ooooooooXXXXXXXXOOOOOOOOoooooooo        ",
"++++++++ooooooooXXXXXXXXOOOOOOOOOOOOOOOOooooooooooooooooooooooooooooooooOOOOOOOO++++++++ooooooooXXXXXXXXOOOOOOOOoooooooo        ",
"++++++++ooooooooXXXXXXXXOOOOOOOOOOOOOOOOooooooooooooooooooooooooooooooooOOOOOOOO++++++++ooooooooXXXXXXXXOOOOOOOOoooooooo        ",
"XXXXXXXXXXXXXXXXXXXXXXXXXXXXXXXXXXXXXXXXXXXXXXXXXXXXXXXXXXXXXXXXXXXXXXXXXXXXXXXXXXXXXXXXXXXXXXXXXXXXXXXXXXXXXXXXXXXXXXXX        ",
"XXXXXXXXXXXXXXXXXXXXXXXXXXXXXXXXXXXXXXXXXXXXXXXXXXXXXXXXXXXXXXXXXXXXXXXXXXXXXXXXXXXXXXXXXXXXXXXXXXXXXXXXXXXXXXXXXXXXXXXX        ",
"XXXXXXXXXXXXXXXXXXXXXXXXXXXXXXXXXXXXXXXXXXXXXXXXXXXXXXXXXXXXXXXXXXXXXXXXXXXXXXXXXXXXXXXXXXXXXXXXXXXXXXXXXXXXXXXXXXXXXXXX        ",
"XXXXXXXXXXXXXXXXXXXXXXXXXXXXXXXXXXXXXXXXXXXXXXXXXXXXXXXXXXXXXXXXXXXXXXXXXXXXXXXXXXXXXXXXXXXXXXXXXXXXXXXXXXXXXXXXXXXXXXXX        ",
"XXXXXXXXXXXXXXXXXXXXXXXXXXXXXXXXXXXXXXXXXXXXXXXXXXXXXXXXXXXXXXXXXXXXXXXXXXXXXXXXXXXXXXXXXXXXXXXXXXXXXXXXXXXXXXXXXXXXXXXX        ",
"XXXXXXXXXXXXXXXXXXXXXXXXXXXXXXXXXXXXXXXXXXXXXXXXXXXXXXXXXXXXXXXXXXXXXXXXXXXXXXXXXXXXXXXXXXXXXXXXXXXXXXXXXXXXXXXXXXXXXXXX        ",
"XXXXXXXXXXXXXXXXXXXXXXXXXXXXXXXXXXXXXXXXXXXXXXXXXXXXXXXXXXXXXXXXXXXXXXXXXXXXXXXXXXXXXXXXXXXXXXXXXXXXXXXXXXXXXXXXXXXXXXXX        ",
"XXXXXXXXXXXXXXXXXXXXXXXXXXXXXXXXXXXXXXXXXXXXXXXXXXXXXXXXXXXXXXXXXXXXXXXXXXXXXXXXXXXXXXXXXXXXXXXXXXXXXXXXXXXXXXXXXXXXXXXX        ",
"................                ................                        ........................................................",
"................                ................                        ........................................................",
"................                ................                        ........................................................",
"................                ................                        ........................................................",
"................                ................                        ........................................................",
"................                ................                        ........................................................",
"................                ................                        ........................................................",
"................                ................                        ........................................................",
"@@@@@@@@@@@@@@@@@@@@@@@@@@@@@@@@@@@@@@@@@@@@@@@@++++++++        ++++++++@@@@@@@@@@@@@@@@@@@@@@@@@@@@@@@@@@@@@@@@@@@@@@@@@@@@@@@@",
"@@@@@@@@@@@@@@@@@@@@@@@@@@@@@@@@@@@@@@@@@@@@@@@@++++++++        ++++++++@@@@@@@@@@@@@@@@@@@@@@@@@@@@@@@@@@@@@@@@@@@@@@@@@@@@@@@@",
"@@@@@@@@@@@@@@@@@@@@@@@@@@@@@@@@@@@@@@@@@@@@@@@@++++++++        ++++++++@@@@@@@@@@@@@@@@@@@@@@@@@@@@@@@@@@@@@@@@@@@@@@@@@@@@@@@@",
"@@@@@@@@@@@@@@@@@@@@@@@@@@@@@@@@@@@@@@@@@@@@@@@@++++++++        ++++++++@@@@@@@@@@@@@@@@@@@@@@@@@@@@@@@@@@@@@@@@@@@@@@@@@@@@@@@@",
"@@@@@@@@@@@@@@@@@@@@@@@@@@@@@@@@@@@@@@@@@@@@@@@@++++++++        ++++++++@@@@@@@@@@@@@@@@@@@@@@@@@@@@@@@@@@@@@@@@@@@@@@@@@@@@@@@@",
"@@@@@@@@@@@@@@@@@@@@@@@@@@@@@@@@@@@@@@@@@@@@@@@@++++++++        ++++++++@@@@@@@@@@@@@@@@@@@@@@@@@@@@@@@@@@@@@@@@@@@@@@@@@@@@@@@@",
"@@@@@@@@@@@@@@@@@@@@@@@@@@@@@@@@@@@@@@@@@@@@@@@@++++++++        ++++++++@@@@@@@@@@@@@@@@@@@@@@@@@@@@@@@@@@@@@@@@@@@@@@@@@@@@@@@@",
"@@@@@@@@@@@@@@@@@@@@@@@@@@@@@@@@@@@@@@@@@@@@@@@@++++++++        ++++++++@@@@@@@@@@@@@@@@@@@@@@@@@@@@@@@@@@@@@@@@@@@@@@@@@@@@@@@@",
"oooooooo++++++++++++++++++++++++++++++++OOOOOOOOOOOOOOOO        @@@@@@@@++++++++OOOOOOOO++++++++++++++++++++++++++++++++OOOOOOOO",
"oooooooo++++++++++++++++++++++++++++++++OOOOOOOOOOOOOOOO        @@@@@@@@++++++++OOOOOOOO++++++++++++++++++++++++++++++++OOOOOOOO",
"oooooooo++++++++++++++++++++++++++++++++OOOOOOOOOOOOOOOO        @@@@@@@@++++++++OOOOOOOO++++++++++++++++++++++++++++++++OOOOOOOO",
"oooooooo++++++++++++++++++++++++++++++++OOOOOOOOOOOOOOOO        @@@@@@@@++++++++OOOOOOOO++++++++++++++++++++++++++++++++OOOOOOOO",
"oooooooo++++++++++++++++++++++++++++++++OOOOOOOOOOOOOOOO        @@@@@@@@++++++++OOOOOOOO++++++++++++++++++++++++++++++++OOOOOOOO",
"oooooooo++++++++++++++++++++++++++++++++OOOOOOOOOOOOOOOO        @@@@@@@@++++++++OOOOOOOO++++++++++++++++++++++++++++++++OOOOOOOO",
"oooooooo++++++++++++++++++++++++++++++++OOOOOOOOOOOOOOOO        @@@@@@@@++++++++OOOOOOOO++++++++++++++++++++++++++++++++OOOOOOOO",
"oooooooo++++++++++++++++++++++++++++++++OOOOOOOOOOOOOOOO        @@@@@@@@++++++++OOOOOOOO++++++++++++++++++++++++++++++++OOOOOOOO",
"++++++++OOOOOOOOOOOOOOOO++++++++OOOOOOOOOOOOOOOOoooooooo        @@@@@@@@OOOOOOOOoooooooo++++++++oooooooo++++++++OOOOOOOOOOOOOOOO",
"++++++++OOOOOOOOOOOOOOOO++++++++OOOOOOOOOOOOOOOOoooooooo        @@@@@@@@OOOOOOOOoooooooo++++++++oooooooo++++++++OOOOOOOOOOOOOOOO",
"++++++++OOOOOOOOOOOOOOOO++++++++OOOOOOOOOOOOOOOOoooooooo        @@@@@@@@OOOOOOOOoooooooo++++++++oooooooo++++++++OOOOOOOOOOOOOOOO",
"++++++++OOOOOOOOOOOOOOOO++++++++OOOOOOOOOOOOOOOOoooooooo        @@@@@@@@OOOOOOOOoooooooo++++++++oooooooo++++++++OOOOOOOOOOOOOOOO",
"++++++++OOOOOOOOOOOOOOOO++++++++OOOOOOOOOOOOOOOOoooooooo        @@@@@@@@OOOOOOOOoooooooo++++++++oooooooo++++++++OOOOOOOOOOOOOOOO",
"++++++++OOOOOOOOOOOOOOOO++++++++OOOOOOOOOOOOOOOOoooooooo        @@@@@@@@OOOOOOOOoooooooo++++++++oooooooo++++++++OOOOOOOOOOOOOOOO",
"++++++++OOOOOOOOOOOOOOOO++++++++OOOOOOOOOOOOOOOOoooooooo        @@@@@@@@OOOOOOOOoooooooo++++++++oooooooo++++++++OOOOOOOOOOOOOOOO",
"++++++++OOOOOOOOOOOOOOOO++++++++OOOOOOOOOOOOOOOOoooooooo        @@@@@@@@OOOOOOOOoooooooo++++++++oooooooo++++++++OOOOOOOOOOOOOOOO",
"OOOOOOOO++++++++++++++++OOOOOOOOOOOOOOOOooooooooXXXXXXXX        @@@@@@@@ooooooooOOOOOOOOooooooooOOOOOOOOOOOOOOOOOOOOOOOO++++++++",
"OOOOOOOO++++++++++++++++OOOOOOOOOOOOOOOOooooooooXXXXXXXX        @@@@@@@@ooooooooOOOOOOOOooooooooOOOOOOOOOOOOOOOOOOOOOOOO++++++++",
"OOOOOOOO++++++++++++++++OOOOOOOOOOOOOOOOooooooooXXXXXXXX        @@@@@@@@ooooooooOOOOOOOOooooooooOOOOOOOOOOOOOOOOOOOOOOOO++++++++",
"OOOOOOOO++++++++++++++++OOOOOOOOOOOOOOOOooooooooXXXXXXXX        @@@@@@@@ooooooooOOOOOOOOooooooooOOOOOOOOOOOOOOOOOOOOOOOO++++++++",
"OOOOOOOO++++++++++++++++OOOOOOOOOOOOOOOOooooooooXXXXXXXX        @@@@@@@@ooooooooOOOOOOOOooooooooOOOOOOOOOOOOOOOOOOOOOOOO++++++++",
"OOOOOOOO++++++++++++++++OOOOOOOOOOOOOOOOooooooooXXXXXXXX        @@@@@@@@ooooooooOOOOOOOOooooooooOOOOOOOOOOOOOOOOOOOOOOOO++++++++",
"OOOOOOOO++++++++++++++++OOOOOOOOOOOOOOOOooooooooXXXXXXXX        @@@@@@@@ooooooooOOOOOOOOooooooooOOOOOOOOOOOOOOOOOOOOOOOO++++++++",
"OOOOOOOO++++++++++++++++OOOOOOOOOOOOOOOOooooooooXXXXXXXX        @@@@@@@@ooooooooOOOOOOOOooooooooOOOOOOOOOOOOOOOOOOOOOOOO++++++++",
"OOOOOOOOOOOOOOOOOOOOOOOOOOOOOOOOooooooooOOOOOOOOoooooooo        ++++++++ooooooooooooooooOOOOOOOO++++++++OOOOOOOOoooooooooooooooo",
"OOOOOOOOOOOOOOOOOOOOOOOOOOOOOOOOooooooooOOOOOOOOoooooooo        ++++++++ooooooooooooooooOOOOOOOO++++++++OOOOOOOOoooooooooooooooo",
"OOOOOOOOOOOOOOOOOOOOOOOOOOOOOOOOooooooooOOOOOOOOoooooooo        ++++++++ooooooooooooooooOOOOOOOO++++++++OOOOOOOOoooooooooooooooo",
"OOOOOOOOOOOOOOOOOOOOOOOOOOOOOOOOooooooooOOOOOOOOoooooooo        ++++++++ooooooooooooooooOOOOOOOO++++++++OOOOOOOOoooooooooooooooo",
"OOOOOOOOOOOOOOOOOOOOOOOOOOOOOOOOooooooooOOOOOOOOoooooooo        ++++++++ooooooooooooooooOOOOOOOO++++++++OOOOOOOOoooooooooooooooo",
"OOOOOOOOOOOOOOOOOOOOOOOOOOOOOOOOooooooooOOOOOOOOoooooooo        ++++++++ooooooooooooooooOOOOOOOO++++++++OOOOOOOOoooooooooooooooo",
"OOOOOOOOOOOOOOOOOOOOOOOOOOOOOOOOooooooooOOOOOOOOoooooooo        ++++++++ooooooooooooooooOOOOOOOO++++++++OOOOOOOOoooooooooooooooo",
"OOOOOOOOOOOOOOOOOOOOOOOOOOOOOOOOooooooooOOOOOOOOoooooooo        ++++++++ooooooooooooooooOOOOOOOO++++++++OOOOOOOOoooooooooooooooo",
"ooooooooooooooooXXXXXXXXooooooooXXXXXXXXXXXXXXXXoooooooo        ++++++++OOOOOOOOOOOOOOOOooooooooooooooooOOOOOOOOOOOOOOOOoooooooo",
"ooooooooooooooooXXXXXXXXooooooooXXXXXXXXXXXXXXXXoooooooo        ++++++++OOOOOOOOOOOOOOOOooooooooooooooooOOOOOOOOOOOOOOOOoooooooo",
"ooooooooooooooooXXXXXXXXooooooooXXXXXXXXXXXXXXXXoooooooo        ++++++++OOOOOOOOOOOOOOOOooooooooooooooooOOOOOOOOOOOOOOOOoooooooo",
"ooooooooooooooooXXXXXXXXooooooooXXXXXXXXXXXXXXXXoooooooo        ++++++++OOOOOOOOOOOOOOOOooooooooooooooooOOOOOOOOOOOOOOOOoooooooo",
"ooooooooooooooooXXXXXXXXooooooooXXXXXXXXXXXXXXXXoooooooo        ++++++++OOOOOOOOOOOOOOOOooooooooooooooooOOOOOOOOOOOOOOOOoooooooo",
"ooooooooooooooooXXXXXXXXooooooooXXXXXXXXXXXXXXXXoooooooo        ++++++++OOOOOOOOOOOOOOOOooooooooooooooooOOOOOOOOOOOOOOOOoooooooo",
"ooooooooooooooooXXXXXXXXooooooooXXXXXXXXXXXXXXXXoooooooo        ++++++++OOOOOOOOOOOOOOOOooooooooooooooooOOOOOOOOOOOOOOOOoooooooo",
"ooooooooooooooooXXXXXXXXooooooooXXXXXXXXXXXXXXXXoooooooo        ++++++++OOOOOOOOOOOOOOOOooooooooooooooooOOOOOOOOOOOOOOOOoooooooo",
"XXXXXXXXXXXXXXXXXXXXXXXXXXXXXXXXXXXXXXXXXXXXXXXXXXXXXXXX        XXXXXXXXXXXXXXXXXXXXXXXXXXXXXXXXXXXXXXXXXXXXXXXXXXXXXXXXXXXXXXXX",
"XXXXXXXXXXXXXXXXXXXXXXXXXXXXXXXXXXXXXXXXXXXXXXXXXXXXXXXX        XXXXXXXXXXXXXXXXXXXXXXXXXXXXXXXXXXXXXXXXXXXXXXXXXXXXXXXXXXXXXXXX",
"XXXXXXXXXXXXXXXXXXXXXXXXXXXXXXXXXXXXXXXXXXXXXXXXXXXXXXXX        XXXXXXXXXXXXXXXXXXXXXXXXXXXXXXXXXXXXXXXXXXXXXXXXXXXXXXXXXXXXXXXX",
"XXXXXXXXXXXXXXXXXXXXXXXXXXXXXXXXXXXXXXXXXXXXXXXXXXXXXXXX        XXXXXXXXXXXXXXXXXXXXXXXXXXXXXXXXXXXXXXXXXXXXXXXXXXXXXXXXXXXXXXXX",
"XXXXXXXXXXXXXXXXXXXXXXXXXXXXXXXXXXXXXXXXXXXXXXXXXXXXXXXX        XXXXXXXXXXXXXXXXXXXXXXXXXXXXXXXXXXXXXXXXXXXXXXXXXXXXXXXXXXXXXXXX",
"XXXXXXXXXXXXXXXXXXXXXXXXXXXXXXXXXXXXXXXXXXXXXXXXXXXXXXXX        XXXXXXXXXXXXXXXXXXXXXXXXXXXXXXXXXXXXXXXXXXXXXXXXXXXXXXXXXXXXXXXX",
"XXXXXXXXXXXXXXXXXXXXXXXXXXXXXXXXXXXXXXXXXXXXXXXXXXXXXXXX        XXXXXXXXXXXXXXXXXXXXXXXXXXXXXXXXXXXXXXXXXXXXXXXXXXXXXXXXXXXXXXXX",
"XXXXXXXXXXXXXXXXXXXXXXXXXXXXXXXXXXXXXXXXXXXXXXXXXXXXXXXX        XXXXXXXXXXXXXXXXXXXXXXXXXXXXXXXXXXXXXXXXXXXXXXXXXXXXXXXXXXXXXXXX",
"................................................                                ................................................",
"................................................                                ................................................",
"................................................                                ................................................",
"................................................                                ................................................",
"................................................                                ................................................",
"................................................                                ................................................",
"................................................                                ................................................",
"................................................                                ................................................"
};
