/* XPM */
static char *result[] = {
/* columns rows colors chars-per-pixel */
"128 128 12 1 ",
"  c #525D39",
". c #5A595A",
"X c #5A6D41",
"o c #627941",
"O c gray39",
"+ c #6A6D6A",
"@ c #787678",
"# c gray50",
"$ c #738552",
"% c #7A8F55",
"& c #8B898B",
"* c #9C999C",
/* pixels */
"&&&&&&&&********oooooooo$$$$$$$$$$$$$$$$%%%%%%%%%%%%%%%%$$$$$$$$oooooooo********%%%%%%%%%%%%%%%%&&&&&&&&$$$$$$$$%%%%%%%%        ",
"&&&&&&&&********oooooooo$$$$$$$$$$$$$$$$%%%%%%%%%%%%%%%%$$$$$$$$oooooooo********%%%%%%%%%%%%%%%%&&&&&&&&$$$$$$$$%%%%%%%%        ",
"&&&&&&&&********oooooooo$$$$$$$$$$$$$$$$%%%%%%%%%%%%%%%%$$$$$$$$oooooooo********%%%%%%%%%%%%%%%%&&&&&&&&$$$$$$$$%%%%%%%%        ",
"&&&&&&&&********oooooooo$$$$$$$$$$$$$$$$%%%%%%%%%%%%%%%%$$$$$$$$oooooooo********%%%%%%%%%%%%%%%%&&&&&&&&$$$$$$$$%%%%%%%%        ",
"&&&&&&&&********oooooooo$$$$$$$$$$$$$$$$%%%%%%%%%%%%%%%%$$$$$$$$oooooooo********%%%%%%%%%%%%%%%%&&&&&&&&$$$$$$$$%%%%%%%%        ",
"&&&&&&&&********oooooooo$$$$$$$$$$$$$$$$%%%%%%%%%%%%%%%%$$$$$$$$oooooooo********%%%%%%%%%%%%%%%%&&&&&&&&$$$$$$$$%%%%%%%%        ",
"&&&&&&&&********oooooooo$$$$$$$$$$$$$$$$%%%%%%%%%%%%%%%%$$$$$$$$oooooooo********%%%%%%%%%%%%%%%%&&&&&&&&$$$$$$$$%%%%%%%%        ",
"&&&&&&&&********oooooooo$$$$$$$$$$$$$$$$%%%%%%%%%%%%%%%%$$$$$$$$oooooooo********%%%%%%%%%%%%%%%%&&&&&&&&$$$$$$$$%%%%%%%%        ",
"********########&&&&&&&&XXXXXXXX%%%%%%%%$$$$$$$$%%%%%%%%oooooooo&&&&&&&&################################ooooooooooooooooXXXXXXXX",
"********########&&&&&&&&XXXXXXXX%%%%%%%%$$$$$$$$%%%%%%%%oooooooo&&&&&&&&################################ooooooooooooooooXXXXXXXX",
"********########&&&&&&&&XXXXXXXX%%%%%%%%$$$$$$$$%%%%%%%%oooooooo&&&&&&&&################################ooooooooooooooooXXXXXXXX",
"********########&&&&&&&&XXXXXXXX%%%%%%%%$$$$$$$$%%%%%%%%oooooooo&&&&&&&&################################ooooooooooooooooXXXXXXXX",
"********########&&&&&&&&XXXXXXXX%%%%%%%%$$$$$$$$%%%%%%%%oooooooo&&&&&&&&################################ooooooooooooooooXXXXXXXX",
"********########&&&&&&&&XXXXXXXX%%%%%%%%$$$$$$$$%%%%%%%%oooooooo&&&&&&&&################################ooooooooooooooooXXXXXXXX",
"********########&&&&&&&&XXXXXXXX%%%%%%%%$$$$$$$$%%%%%%%%oooooooo&&&&&&&&################################ooooooooooooooooXXXXXXXX",
"********########&&&&&&&&XXXXXXXX%%%%%%%%$$$$$$$$%%%%%%%%oooooooo&&&&&&&&################################ooooooooooooooooXXXXXXXX",
"********&&&&&&&&########XXXXXXXX$$$$$$$$oooooooo$$$$$$$$oooooooo################$$$$$$$$&&&&&&&&XXXXXXXX########oooooooo........",
"********&&&&&&&&########XXXXXXXX$$$$$$$$oooooooo$$$$$$$$oooooooo################$$$$$$$$&&&&&&&&XXXXXXXX########oooooooo........",
"********&&&&&&&&########XXXXXXXX$$$$$$$$oooooooo$$$$$$$$oooooooo################$$$$$$$$&&&&&&&&XXXXXXXX########oooooooo........",
"********&&&&&&&&########XXXXXXXX$$$$$$$$oooooooo$$$$$$$$oooooooo################$$$$$$$$&&&&&&&&XXXXXXXX########oooooooo........",
"********&&&&&&&&########XXXXXXXX$$$$$$$$oooooooo$$$$$$$$oooooooo################$$$$$$$$&&&&&&&&XXXXXXXX########oooooooo........",
"********&&&&&&&&########XXXXXXXX$$$$$$$$oooooooo$$$$$$$$oooooooo################$$$$$$$$&&&&&&&&XXXXXXXX########oooooooo........",
"********&&&&&&&&########XXXXXXXX$$$$$$$$oooooooo$$$$$$$$oooooooo################$$$$$$$$&&&&&&&&XXXXXXXX########oooooooo........",
"********&&&&&&&&########XXXXXXXX$$$$$$$$oooooooo$$$$$$$$oooooooo################$$$$$$$$&&&&&&&&XXXXXXXX########oooooooo........",
"********########@@@@@@@@########XXXXXXXX&&&&&&&&$$$$$$$$@@@@@@@@########&&&&&&&&########@@@@@@@@########@@@@@@@@XXXXXXXX........",
"********########@@@@@@@@########XXXXXXXX&&&&&&&&$$$$$$$$@@@@@@@@########&&&&&&&&########@@@@@@@@########@@@@@@@@XXXXXXXX........",
"********########@@@@@@@@########XXXXXXXX&&&&&&&&$$$$$$$$@@@@@@@@########&&&&&&&&########@@@@@@@@########@@@@@@@@XXXXXXXX........",
"********########@@@@@@@@########XXXXXXXX&&&&&&&&$$$$$$$$@@@@@@@@########&&&&&&&&########@@@@@@@@########@@@@@@@@XXXXXXXX........",
"********########@@@@@@@@########XXXXXXXX&&&&&&&&$$$$$$$$@@@@@@@@########&&&&&&&&########@@@@@@@@########@@@@@@@@XXXXXXXX........",
"********########@@@@@@@@########XXXXXXXX&&&&&&&&$$$$$$$$@@@@@@@@########&&&&&&&&########@@@@@@@@########@@@@@@@@XXXXXXXX........",
"********########@@@@@@@@########XXXXXXXX&&&&&&&&$$$$$$$$@@@@@@@@########&&&&&&&&########@@@@@@@@########@@@@@@@@XXXXXXXX........",
"********########@@@@@@@@########XXXXXXXX&&&&&&&&$$$$$$$$@@@@@@@@########&&&&&&&&########@@@@@@@@########@@@@@@@@XXXXXXXX........",
"********@@@@@@@@oooooooo@@@@@@@@@@@@@@@@########oooooooo################oooooooo$$$$$$$$########@@@@@@@@++++++++########........",
"********@@@@@@@@oooooooo@@@@@@@@@@@@@@@@########oooooooo################oooooooo$$$$$$$$########@@@@@@@@++++++++########........",
"********@@@@@@@@oooooooo@@@@@@@@@@@@@@@@########oooooooo################oooooooo$$$$$$$$########@@@@@@@@++++++++########........",
"********@@@@@@@@oooooooo@@@@@@@@@@@@@@@@########oooooooo################oooooooo$$$$$$$$########@@@@@@@@++++++++########........",
"********@@@@@@@@oooooooo@@@@@@@@@@@@@@@@########oooooooo################oooooooo$$$$$$$$########@@@@@@@@++++++++########........",
"********@@@@@@@@oooooooo@@@@@@@@@@@@@@@@########oooooooo################oooooooo$$$$$$$$########@@@@@@@@++++++++########........",
"********@@@@@@@@oooooooo@@@@@@@@@@@@@@@@########oooooooo################oooooooo$$$$$$$$########@@@@@@@@++++++++########........",
"********@@@@@@@@oooooooo@@@@@@@@@@@@@@@@########oooooooo################oooooooo$$$$$$$$########@@@@@@@@++++++++########........",
"&&&&&&&&@@@@@@@@XXXXXXXXoooooooo########@@@@@@@@@@@@@@@@@@@@@@@@oooooooo$$$$$$$$ooooooooXXXXXXXXXXXXXXXX########@@@@@@@@        ",
"&&&&&&&&@@@@@@@@XXXXXXXXoooooooo########@@@@@@@@@@@@@@@@@@@@@@@@oooooooo$$$$$$$$ooooooooXXXXXXXXXXXXXXXX########@@@@@@@@        ",
"&&&&&&&&@@@@@@@@XXXXXXXXoooooooo########@@@@@@@@@@@@@@@@@@@@@@@@oooooooo$$$$$$$$ooooooooXXXXXXXXXXXXXXXX########@@@@@@@@        ",
"&&&&&&&&@@@@@@@@XXXXXXXXoooooooo########@@@@@@@@@@@@@@@@@@@@@@@@oooooooo$$$$$$$$ooooooooXXXXXXXXXXXXXXXX########@@@@@@@@        ",
"&&&&&&&&@@@@@@@@XXXXXXXXoooooooo########@@@@@@@@@@@@@@@@@@@@@@@@oooooooo$$$$$$$$ooooooooXXXXXXXXXXXXXXXX########@@@@@@@@        ",
"&&&&&&&&@@@@@@@@XXXXXXXXoooooooo########@@@@@@@@@@@@@@@@@@@@@@@@oooooooo$$$$$$$$ooooooooXXXXXXXXXXXXXXXX########@@@@@@@@        ",
"&&&&&&&&@@@@@@@@XXXXXXXXoooooooo########@@@@@@@@@@@@@@@@@@@@@@@@oooooooo$$$$$$$$ooooooooXXXXXXXXXXXXXXXX########@@@@@@@@        ",
"&&&&&&&&@@@@@@@@XXXXXXXXoooooooo########@@@@@@@@@@@@@@@@@@@@@@@@oooooooo$$$$$$$$ooooooooXXXXXXXXXXXXXXXX########@@@@@@@@        ",
"@@@@@@@@++++++++XXXXXXXXXXXXXXXX++++++++@@@@@@@@++++++++XXXXXXXXooooooooooooooooXXXXXXXXXXXXXXXX@@@@@@@@@@@@@@@@########XXXXXXXX",
"@@@@@@@@++++++++XXXXXXXXXXXXXXXX++++++++@@@@@@@@++++++++XXXXXXXXooooooooooooooooXXXXXXXXXXXXXXXX@@@@@@@@@@@@@@@@########XXXXXXXX",
"@@@@@@@@++++++++XXXXXXXXXXXXXXXX++++++++@@@@@@@@++++++++XXXXXXXXooooooooooooooooXXXXXXXXXXXXXXXX@@@@@@@@@@@@@@@@########XXXXXXXX",
"@@@@@@@@++++++++XXXXXXXXXXXXXXXX++++++++@@@@@@@@++++++++XXXXXXXXooooooooooooooooXXXXXXXXXXXXXXXX@@@@@@@@@@@@@@@@########XXXXXXXX",
"@@@@@@@@++++++++XXXXXXXXXXXXXXXX++++++++@@@@@@@@++++++++XXXXXXXXooooooooooooooooXXXXXXXXXXXXXXXX@@@@@@@@@@@@@@@@########XXXXXXXX",
"@@@@@@@@++++++++XXXXXXXXXXXXXXXX++++++++@@@@@@@@++++++++XXXXXXXXooooooooooooooooXXXXXXXXXXXXXXXX@@@@@@@@@@@@@@@@########XXXXXXXX",
"@@@@@@@@++++++++XXXXXXXXXXXXXXXX++++++++@@@@@@@@++++++++XXXXXXXXooooooooooooooooXXXXXXXXXXXXXXXX@@@@@@@@@@@@@@@@########XXXXXXXX",
"@@@@@@@@++++++++XXXXXXXXXXXXXXXX++++++++@@@@@@@@++++++++XXXXXXXXooooooooooooooooXXXXXXXXXXXXXXXX@@@@@@@@@@@@@@@@########XXXXXXXX",
"OOOOOOOOOOOOOOOO........        OOOOOOOOOOOOOOOO........................                                OOOOOOOOOOOOOOOOOOOOOOOO",
"OOOOOOOOOOOOOOOO........        OOOOOOOOOOOOOOOO........................                                OOOOOOOOOOOOOOOOOOOOOOOO",
"OOOOOOOOOOOOOOOO........        OOOOOOOOOOOOOOOO........................                                OOOOOOOOOOOOOOOOOOOOOOOO",
"OOOOOOOOOOOOOOOO........        OOOOOOOOOOOOOOOO........................                                OOOOOOOOOOOOOOOOOOOOOOOO",
"OOOOOOOOOOOOOOOO........        OOOOOOOOOOOOOOOO........................                                OOOOOOOOOOOOOOOOOOOOOOOO",
"OOOOOOOOOOOOOOOO........        OOOOOOOOOOOOOOOO........................                                OOOOOOOOOOOOOOOOOOOOOOOO",
"OOOOOOOOOOOOOOOO........        OOOOOOOOOOOOOOOO........................                                OOOOOOOOOOOOOOOOOOOOOOOO",
"OOOOOOOOOOOOOOOO........        OOOOOOOOOOOOOOOO........................                                OOOOOOOOOOOOOOOOOOOOOOOO",
"%%%%%%%%%%%%%%%%$$$$$$$$************************&&&&&&&&........&&&&&&&&********************************$$$$$$$$%%%%%%%%%%%%%%%%",
"%%%%%%%%%%%%%%%%$$$$$$$$************************&&&&&&&&........&&&&&&&&********************************$$$$$$$$%%%%%%%%%%%%%%%%",
"%%%%%%%%%%%%%%%%$$$$$$$$************************&&&&&&&&........&&&&&&&&********************************$$$$$$$$%%%%%%%%%%%%%%%%",
"%%%%%%%%%%%%%%%%$$$$$$$$************************&&&&&&&&........&&&&&&&&********************************$$$$$$$$%%%%%%%%%%%%%%%%",
"%%%%%%%%%%%%%%%%$$$$$$$$************************&&&&&&&&........&&&&&&&&********************************$$$$$$$$%%%%%%%%%%%%%%%%",
"%%%%%%%%%%%%%%%%$$$$$$$$************************&&&&&&&&........&&&&&&&&********************************$$$$$$$$%%%%%%%%%%%%%%%%",
"%%%%%%%%%%%%%%%%$$$$$$$$************************&&&&&&&&........&&&&&&&&********************************$$$$$$$$%%%%%%%%%%%%%%%%",
"%%%%%%%%%%%%%%%%$$$$$$$$************************&&&&&&&&........&&&&&&&&********************************$$$$$$$$%%%%%%%%%%%%%%%%",
"oooooooo&&&&&&&&&&&&&&&&&&&&&&&&&&&&&&&&################........********&&&&&&&&########&&&&&&&&&&&&&&&&&&&&&&&&&&&&&&&&$$$$$$$$",
"oooooooo&&&&&&&&&&&&&&&&&&&&&&&&&&&&&&&&################........********&&&&&&&&########&&&&&&&&&&&&&&&&&&&&&&&&&&&&&&&&$$$$$$$$",
"oooooooo&&&&&&&&&&&&&&&&&&&&&&&&&&&&&&&&################........********&&&&&&&&########&&&&&&&&&&&&&&&&&&&&&&&&&&&&&&&&$$$$$$$$",
"oooooooo&&&&&&&&&&&&&&&&&&&&&&&&&&&&&&&&################........********&&&&&&&&########&&&&&&&&&&&&&&&&&&&&&&&&&&&&&&&&$$$$$$$$",
"oooooooo&&&&&&&&&&&&&&&&&&&&&&&&&&&&&&&&################........********&&&&&&&&########&&&&&&&&&&&&&&&&&&&&&&&&&&&&&&&&$$$$$$$$",
"oooooooo&&&&&&&&&&&&&&&&&&&&&&&&&&&&&&&&################........********&&&&&&&&########&&&&&&&&&&&&&&&&&&&&&&&&&&&&&&&&$$$$$$$$",
"oooooooo&&&&&&&&&&&&&&&&&&&&&&&&&&&&&&&&################........********&&&&&&&&########&&&&&&&&&&&&&&&&&&&&&&&&&&&&&&&&$$$$$$$$",
"oooooooo&&&&&&&&&&&&&&&&&&&&&&&&&&&&&&&&################........********&&&&&&&&########&&&&&&&&&&&&&&&&&&&&&&&&&&&&&&&&$$$$$$$$",
"&&&&&&&&################&&&&&&&&################@@@@@@@@........********########@@@@@@@@&&&&&&&&@@@@@@@@&&&&&&&&oooooooo########",
"&&&&&&&&################&&&&&&&&################@@@@@@@@........********########@@@@@@@@&&&&&&&&@@@@@@@@&&&&&&&&oooooooo########",
"&&&&&&&&################&&&&&&&&################@@@@@@@@........********########@@@@@@@@&&&&&&&&@@@@@@@@&&&&&&&&oooooooo########",
"&&&&&&&&################&&&&&&&&################@@@@@@@@........********########@@@@@@@@&&&&&&&&@@@@@@@@&&&&&&&&oooooooo########",
"&&&&&&&&################&&&&&&&&################@@@@@@@@........********########@@@@@@@@&&&&&&&&@@@@@@@@&&&&&&&&oooooooo########",
"&&&&&&&&################&&&&&&&&################@@@@@@@@........********########@@@@@@@@&&&&&&&&@@@@@@@@&&&&&&&&oooooooo########",
"&&&&&&&&################&&&&&&&&################@@@@@@@@........********########@@@@@@@@&&&&&&&&@@@@@@@@&&&&&&&&oooooooo########",
"&&&&&&&&################&&&&&&&&################@@@@@@@@........********########@@@@@@@@&&&&&&&&@@@@@@@@&&&&&&&&oooooooo########",
"########&&&&&&&&&&&&&&&&################oooooooo++++++++........********@@@@@@@@########@@@@@@@@################XXXXXXXX&&&&&&&&",
"########&&&&&&&&&&&&&&&&################oooooooo++++++++........********@@@@@@@@########@@@@@@@@################XXXXXXXX&&&&&&&&",
"########&&&&&&&&&&&&&&&&################oooooooo++++++++........********@@@@@@@@########@@@@@@@@################XXXXXXXX&&&&&&&&",
"########&&&&&&&&&&&&&&&&################oooooooo++++++++........********@@@@@@@@########@@@@@@@@################XXXXXXXX&&&&&&&&",
"########&&&&&&&&&&&&&&&&################oooooooo++++++++........********@@@@@@@@########@@@@@@@@################XXXXXXXX&&&&&&&&",
"########&&&&&&&&&&&&&&&&################oooooooo++++++++........********@@@@@@@@########@@@@@@@@################XXXXXXXX&&&&&&&&",
"########&&&&&&&&&&&&&&&&################oooooooo++++++++........********@@@@@@@@########@@@@@@@@################XXXXXXXX&&&&&&&&",
"########&&&&&&&&&&&&&&&&################oooooooo++++++++........********@@@@@@@@########@@@@@@@@################XXXXXXXX&&&&&&&&",
"################################@@@@@@@@oooooooo@@@@@@@@........&&&&&&&&$$$$$$$$%%%%%%%%########&&&&&&&&########@@@@@@@@@@@@@@@@",
"################################@@@@@@@@oooooooo@@@@@@@@........&&&&&&&&$$$$$$$$%%%%%%%%########&&&&&&&&########@@@@@@@@@@@@@@@@",
"################################@@@@@@@@oooooooo@@@@@@@@........&&&&&&&&$$$$$$$$%%%%%%%%########&&&&&&&&########@@@@@@@@@@@@@@@@",
"################################@@@@@@@@oooooooo@@@@@@@@........&&&&&&&&$$$$$$$$%%%%%%%%########&&&&&&&&########@@@@@@@@@@@@@@@@",
"################################@@@@@@@@oooooooo@@@@@@@@........&&&&&&&&$$$$$$$$%%%%%%%%########&&&&&&&&########@@@@@@@@@@@@@@@@",
"################################@@@@@@@@oooooooo@@@@@@@@........&&&&&&&&$$$$$$$$%%%%%%%%########&&&&&&&&########@@@@@@@@@@@@@@@@",
"################################@@@@@@@@oooooooo@@@@@@@@........&&&&&&&&$$$$$$$$%%%%%%%%########&&&&&&&&########@@@@@@@@@@@@@@@@",
"################################@@@@@@@@oooooooo@@@@@@@@........&&&&&&&&$$$$$$$$%%%%%%%%########&&&&&&&&########@@@@@@@@@@@@@@@@",
"@@@@@@@@@@@@@@@@++++++++@@@@@@@@oooooooooooooooo@@@@@@@@........&&&&&&&&%%%%%%%%########@@@@@@@@@@@@@@@@################@@@@@@@@",
"@@@@@@@@@@@@@@@@++++++++@@@@@@@@oooooooooooooooo@@@@@@@@........&&&&&&&&%%%%%%%%########@@@@@@@@@@@@@@@@################@@@@@@@@",
"@@@@@@@@@@@@@@@@++++++++@@@@@@@@oooooooooooooooo@@@@@@@@........&&&&&&&&%%%%%%%%########@@@@@@@@@@@@@@@@################@@@@@@@@",
"@@@@@@@@@@@@@@@@++++++++@@@@@@@@oooooooooooooooo@@@@@@@@........&&&&&&&&%%%%%%%%########@@@@@@@@@@@@@@@@################@@@@@@@@",
"@@@@@@@@@@@@@@@@++++++++@@@@@@@@oooooooooooooooo@@@@@@@@........&&&&&&&&%%%%%%%%########@@@@@@@@@@@@@@@@################@@@@@@@@",
"@@@@@@@@@@@@@@@@++++++++@@@@@@@@oooooooooooooooo@@@@@@@@........&&&&&&&&%%%%%%%%########@@@@@@@@@@@@@@@@################@@@@@@@@",
"@@@@@@@@@@@@@@@@++++++++@@@@@@@@oooooooooooooooo@@@@@@@@........&&&&&&&&%%%%%%%%########@@@@@@@@@@@@@@@@################@@@@@@@@",
"@@@@@@@@@@@@@@@@++++++++@@@@@@@@oooooooooooooooo@@@@@@@@........&&&&&&&&%%%%%%%%########@@@@@@@@@@@@@@@@################@@@@@@@@",
"++++++++++++++++XXXXXXXXXXXXXXXXoooooooo@@@@@@@@########........@@@@@@@@XXXXXXXXXXXXXXXX@@@@@@@@++++++++@@@@@@@@@@@@@@@@++++++++",
"++++++++++++++++XXXXXXXXXXXXXXXXoooooooo@@@@@@@@########........@@@@@@@@XXXXXXXXXXXXXXXX@@@@@@@@++++++++@@@@@@@@@@@@@@@@++++++++",
"++++++++++++++++XXXXXXXXXXXXXXXXoooooooo@@@@@@@@########........@@@@@@@@XXXXXXXXXXXXXXXX@@@@@@@@++++++++@@@@@@@@@@@@@@@@++++++++",
"++++++++++++++++XXXXXXXXXXXXXXXXoooooooo@@@@@@@@########........@@@@@@@@XXXXXXXXXXXXXXXX@@@@@@@@++++++++@@@@@@@@@@@@@@@@++++++++",
"++++++++++++++++XXXXXXXXXXXXXXXXoooooooo@@@@@@@@########........@@@@@@@@XXXXXXXXXXXXXXXX@@@@@@@@++++++++@@@@@@@@@@@@@@@@++++++++",
"++++++++++++++++XXXXXXXXXXXXXXXXoooooooo@@@@@@@@########........@@@@@@@@XXXXXXXXXXXXXXXX@@@@@@@@++++++++@@@@@@@@@@@@@@@@++++++++",
"++++++++++++++++XXXXXXXXXXXXXXXXoooooooo@@@@@@@@########........@@@@@@@@XXXXXXXXXXXXXXXX@@@@@@@@++++++++@@@@@@@@@@@@@@@@++++++++",
"++++++++++++++++XXXXXXXXXXXXXXXXoooooooo@@@@@@@@########........@@@@@@@@XXXXXXXXXXXXXXXX@@@@@@@@++++++++@@@@@@@@@@@@@@@@++++++++",
"OOOOOOOO                                OOOOOOOO........................                        OOOOOOOOOOOOOOOO                ",
"OOOOOOOO                                OOOOOOOO........................                        OOOOOOOOOOOOOOOO                ",
"OOOOOOOO                                OOOOOOOO........................                        OOOOOOOOOOOOOOOO                ",
"OOOOOOOO                                OOOOOOOO........................                        OOOOOOOOOOOOOOOO                ",
"OOOOOOOO                                OOOOOOOO........................                        OOOOOOOOOOOOOOOO                ",
"OOOOOOOO                                OOOOOOOO........................                        OOOOOOOOOOOOOOOO                ",
"OOOOOOOO                                OOOOOOOO........................                        OOOOOOOOOOOOOOOO                ",
"OOOOOOOO                                OOOOOOOO........................                        OOOOOOOOOOOOOOOO                "
};
